<?xml version="1.0" encoding="UTF-8" standalone="no"?>
<svg
   xmlns:dc="http://purl.org/dc/elements/1.1/"
   xmlns:cc="http://creativecommons.org/ns#"
   xmlns:rdf="http://www.w3.org/1999/02/22-rdf-syntax-ns#"
   xmlns:svg="http://www.w3.org/2000/svg"
   xmlns="http://www.w3.org/2000/svg"
   xmlns:sodipodi="http://sodipodi.sourceforge.net/DTD/sodipodi-0.dtd"
   xmlns:inkscape="http://www.inkscape.org/namespaces/inkscape"
   sodipodi:docname="$.svg"
   inkscape:version="1.0 (4035a4fb49, 2020-05-01)"
   id="svg8"
   version="1.1"
   viewBox="0 0 1000 1000"
   height="1000"
   width="1000">
  <defs
     id="defs2" />
  <sodipodi:namedview
     inkscape:guide-bbox="true"
     showguides="true"
     inkscape:window-maximized="1"
     inkscape:window-y="1281"
     inkscape:window-x="0"
     inkscape:window-height="997"
     inkscape:window-width="1916"
     inkscape:snap-grids="true"
     inkscape:snap-page="true"
     inkscape:snap-text-baseline="true"
     inkscape:snap-center="true"
     inkscape:snap-object-midpoints="true"
     inkscape:snap-midpoints="true"
     inkscape:snap-smooth-nodes="true"
     inkscape:snap-intersection-paths="true"
     inkscape:object-paths="true"
     inkscape:snap-bbox-midpoints="true"
     inkscape:snap-bbox-edge-midpoints="true"
     inkscape:bbox-nodes="true"
     inkscape:bbox-paths="true"
     inkscape:snap-bbox="true"
     inkscape:pagecheckerboard="true"
     units="px"
     showgrid="true"
     inkscape:document-rotation="0"
     inkscape:current-layer="layer1"
     inkscape:document-units="px"
     inkscape:cy="405.86931"
     inkscape:cx="780.44083"
     inkscape:zoom="0.51755965"
     inkscape:pageshadow="2"
     inkscape:pageopacity="0.0"
     borderopacity="1.0"
     bordercolor="#666666"
     pagecolor="#ffffff"
     id="base">
    <inkscape:grid
       id="grid883"
       type="xygrid" />
    <sodipodi:guide
       inkscape:color="rgb(0,0,255)"
       inkscape:locked="true"
       inkscape:label=""
       id="guide885"
       orientation="0,1"
       position="0,300" />
    <sodipodi:guide
       inkscape:color="rgb(0,0,255)"
       inkscape:locked="true"
       inkscape:label=""
       id="guide887"
       orientation="0,1"
       position="0,700" />
    <sodipodi:guide
       inkscape:color="rgb(0,0,255)"
       inkscape:locked="true"
       inkscape:label=""
       id="guide889"
       orientation="0,1"
       position="0,975" />
    <sodipodi:guide
       inkscape:color="rgb(0,0,255)"
       inkscape:locked="true"
       inkscape:label=""
       id="guide891"
       orientation="0,1"
       position="0,1000" />
    <sodipodi:guide
       inkscape:color="rgb(0,0,255)"
       inkscape:locked="true"
       inkscape:label=""
       id="guide893"
       orientation="0,1"
       position="0,0" />
    <sodipodi:guide
       id="guide921"
       orientation="0,-1"
       position="120,600" />
  </sodipodi:namedview>
  <metadata
     id="metadata5">
    <rdf:RDF>
      <cc:Work
         rdf:about="">
        <dc:format>image/svg+xml</dc:format>
        <dc:type
           rdf:resource="http://purl.org/dc/dcmitype/StillImage" />
        <dc:title />
      </cc:Work>
    </rdf:RDF>
  </metadata>
  <g
     style="display:inline"
     id="layer1"
     inkscape:groupmode="layer"
     inkscape:label="Layer 1">
    <path
       d="M 175 0 A 25 25 0 0 0 150 25 L 150 26.800781 C 65.407435 39.002442 -6.9116322e-14 112.13211 0 200 C 0 287.86789 65.407435 360.99756 150 373.19922 L 150 647.69727 C 110.82383 640.4677 76.26502 616.48521 55.921875 581.25 A 25 25 0 0 0 21.771484 572.09961 A 25 25 0 0 0 12.621094 606.25 C 41.880781 656.92905 92.904272 690.63934 150 698.32422 L 150 700 A 25 25 0 0 0 175 725 A 25 25 0 0 0 200 700 L 200 698.32227 C 291.51467 686.0327 362.5 607.28288 362.5 512.5 C 362.5 417.71712 291.51467 338.9673 200 326.67773 L 200 77.529297 C 223.83676 82.393183 245.92347 94.146095 263.38867 111.61133 A 25 25 0 0 0 298.74414 111.61133 A 25 25 0 0 0 298.74414 76.255859 C 271.88233 49.394007 237.1668 32.169267 200 26.802734 L 200 25 A 25 25 0 0 0 175 0 z M 150 77.474609 L 150 322.52539 C 92.759257 311.02819 50 260.76298 50 200 C 50 139.23702 92.759257 88.971805 150 77.474609 z M 200 377.25 C 264.1954 388.92703 312.5 444.80874 312.5 512.5 C 312.5 580.19126 264.1954 636.07297 200 647.75 L 200 377.25 z "
       style="color:#000000;font-style:normal;font-variant:normal;font-weight:normal;font-stretch:normal;font-size:medium;line-height:normal;font-family:sans-serif;font-variant-ligatures:normal;font-variant-position:normal;font-variant-caps:normal;font-variant-numeric:normal;font-variant-alternates:normal;font-variant-east-asian:normal;font-feature-settings:normal;font-variation-settings:normal;text-indent:0;text-align:start;text-decoration:none;text-decoration-line:none;text-decoration-style:solid;text-decoration-color:#000000;letter-spacing:normal;word-spacing:normal;text-transform:none;writing-mode:lr-tb;direction:ltr;text-orientation:mixed;dominant-baseline:auto;baseline-shift:baseline;text-anchor:start;white-space:normal;shape-padding:0;shape-margin:0;inline-size:0;clip-rule:nonzero;display:inline;overflow:visible;visibility:visible;isolation:auto;mix-blend-mode:normal;color-interpolation:sRGB;color-interpolation-filters:linearRGB;solid-color:#000000;solid-opacity:1;vector-effect:none;fill:#000000;fill-opacity:1;fill-rule:nonzero;stroke:none;stroke-width:50;stroke-linecap:round;stroke-linejoin:round;stroke-miterlimit:4;stroke-dasharray:none;stroke-dashoffset:0;stroke-opacity:1;paint-order:stroke fill markers;color-rendering:auto;image-rendering:auto;shape-rendering:auto;text-rendering:auto;enable-background:accumulate;stop-color:#000000"
       id="path847" />
  </g>
</svg>
