<?xml version="1.0" encoding="UTF-8" standalone="no"?>
<svg
   xmlns:dc="http://purl.org/dc/elements/1.1/"
   xmlns:cc="http://creativecommons.org/ns#"
   xmlns:rdf="http://www.w3.org/1999/02/22-rdf-syntax-ns#"
   xmlns:svg="http://www.w3.org/2000/svg"
   xmlns="http://www.w3.org/2000/svg"
   xmlns:sodipodi="http://sodipodi.sourceforge.net/DTD/sodipodi-0.dtd"
   xmlns:inkscape="http://www.inkscape.org/namespaces/inkscape"
   sodipodi:docname="5.svg"
   inkscape:version="1.0 (4035a4fb49, 2020-05-01)"
   id="svg8"
   version="1.1"
   viewBox="0 0 1000 1000"
   height="1000"
   width="1000">
  <defs
     id="defs2" />
  <sodipodi:namedview
     inkscape:guide-bbox="true"
     showguides="true"
     inkscape:window-maximized="1"
     inkscape:window-y="1301"
     inkscape:window-x="0"
     inkscape:window-height="977"
     inkscape:window-width="1916"
     inkscape:snap-grids="false"
     inkscape:snap-page="true"
     inkscape:snap-text-baseline="true"
     inkscape:snap-center="true"
     inkscape:snap-object-midpoints="true"
     inkscape:snap-midpoints="true"
     inkscape:snap-smooth-nodes="true"
     inkscape:snap-intersection-paths="true"
     inkscape:object-paths="true"
     inkscape:snap-bbox-midpoints="true"
     inkscape:snap-bbox-edge-midpoints="true"
     inkscape:bbox-nodes="true"
     inkscape:bbox-paths="true"
     inkscape:snap-bbox="true"
     inkscape:pagecheckerboard="true"
     units="px"
     showgrid="true"
     inkscape:document-rotation="0"
     inkscape:current-layer="layer1"
     inkscape:document-units="px"
     inkscape:cy="385.95842"
     inkscape:cx="177.15804"
     inkscape:zoom="1.0351193"
     inkscape:pageshadow="2"
     inkscape:pageopacity="0.0"
     borderopacity="1.0"
     bordercolor="#666666"
     pagecolor="#ffffff"
     id="base">
    <inkscape:grid
       id="grid883"
       type="xygrid" />
    <sodipodi:guide
       inkscape:color="rgb(0,0,255)"
       inkscape:locked="true"
       inkscape:label=""
       id="guide885"
       orientation="0,1"
       position="0,300" />
    <sodipodi:guide
       inkscape:color="rgb(0,0,255)"
       inkscape:locked="true"
       inkscape:label=""
       id="guide887"
       orientation="0,1"
       position="0,700" />
    <sodipodi:guide
       inkscape:color="rgb(0,0,255)"
       inkscape:locked="true"
       inkscape:label=""
       id="guide889"
       orientation="0,1"
       position="0,975" />
    <sodipodi:guide
       inkscape:color="rgb(0,0,255)"
       inkscape:locked="true"
       inkscape:label=""
       id="guide891"
       orientation="0,1"
       position="0,1000" />
    <sodipodi:guide
       inkscape:color="rgb(0,0,255)"
       inkscape:locked="true"
       inkscape:label=""
       id="guide893"
       orientation="0,1"
       position="0,0" />
    <sodipodi:guide
       id="guide921"
       orientation="0,-1"
       position="120,600" />
    <sodipodi:guide
       position="350,950"
       orientation="1,0"
       id="guide4126" />
  </sodipodi:namedview>
  <metadata
     id="metadata5">
    <rdf:RDF>
      <cc:Work
         rdf:about="">
        <dc:format>image/svg+xml</dc:format>
        <dc:type
           rdf:resource="http://purl.org/dc/dcmitype/StillImage" />
        <dc:title />
      </cc:Work>
    </rdf:RDF>
  </metadata>
  <g
     style="display:inline"
     id="layer1"
     inkscape:groupmode="layer"
     inkscape:label="Layer 1">
    <path
       d="M 300.53711 24.533203 L 25.167969 25 L 24.957031 25 A 25 25 0 0 0 24.322266 25.009766 A 25 25 0 0 0 24.160156 25.013672 A 25 25 0 0 0 24.117188 25.015625 A 25 25 0 0 0 23.738281 25.03125 A 25 25 0 0 0 23.695312 25.033203 A 25 25 0 0 0 23.320312 25.056641 A 25 25 0 0 0 23.009766 25.080078 A 25 25 0 0 0 22.482422 25.126953 A 25 25 0 0 0 22.439453 25.130859 A 25 25 0 0 0 22.064453 25.173828 A 25 25 0 0 0 21.697266 25.220703 A 25 25 0 0 0 21.623047 25.230469 A 25 25 0 0 0 21.5625 25.238281 A 25 25 0 0 0 21.1875 25.292969 A 25 25 0 0 0 20.814453 25.353516 A 25 25 0 0 0 20.431641 25.419922 A 25 25 0 0 0 20.396484 25.427734 A 25 25 0 0 0 20.359375 25.433594 A 25 25 0 0 0 19.988281 25.507812 A 25 25 0 0 0 19.947266 25.515625 A 25 25 0 0 0 19.193359 25.683594 A 25 25 0 0 0 19.158203 25.691406 A 25 25 0 0 0 19.035156 25.722656 A 25 25 0 0 0 18.71875 25.802734 A 25 25 0 0 0 18.353516 25.900391 A 25 25 0 0 0 17.949219 26.015625 A 25 25 0 0 0 17.779297 26.066406 A 25 25 0 0 0 17.546875 26.136719 A 25 25 0 0 0 17.505859 26.150391 A 25 25 0 0 0 17.117188 26.275391 A 25 25 0 0 0 17.074219 26.289062 A 25 25 0 0 0 16.353516 26.542969 A 25 25 0 0 0 16.3125 26.558594 A 25 25 0 0 0 15.958984 26.691406 A 25 25 0 0 0 15.919922 26.707031 A 25 25 0 0 0 15.568359 26.847656 A 25 25 0 0 0 15.529297 26.863281 A 25 25 0 0 0 14.839844 27.158203 A 25 25 0 0 0 14.773438 27.1875 A 25 25 0 0 0 14.707031 27.21875 A 25 25 0 0 0 14.375 27.371094 A 25 25 0 0 0 13.996094 27.552734 A 25 25 0 0 0 13.654297 27.722656 A 25 25 0 0 0 13.482422 27.8125 A 25 25 0 0 0 13.285156 27.914062 A 25 25 0 0 0 13.246094 27.935547 A 25 25 0 0 0 12.914062 28.115234 A 25 25 0 0 0 12.876953 28.136719 A 25 25 0 0 0 12.548828 28.322266 A 25 25 0 0 0 12.324219 28.453125 A 25 25 0 0 0 12.185547 28.533203 A 25 25 0 0 0 12.148438 28.556641 A 25 25 0 0 0 11.791016 28.775391 A 25 25 0 0 0 11.470703 28.976562 A 25 25 0 0 0 11.435547 29 A 25 25 0 0 0 11.103516 29.21875 A 25 25 0 0 0 11.001953 29.287109 A 25 25 0 0 0 10.771484 29.443359 A 25 25 0 0 0 10.736328 29.46875 A 25 25 0 0 0 10.402344 29.703125 A 25 25 0 0 0 10.328125 29.757812 A 25 25 0 0 0 10.087891 29.933594 A 25 25 0 0 0 10.054688 29.958984 A 25 25 0 0 0 9.7539062 30.1875 A 25 25 0 0 0 9.421875 30.447266 A 25 25 0 0 0 9.1464844 30.669922 A 25 25 0 0 0 9.0839844 30.720703 A 25 25 0 0 0 9.0625 30.738281 A 25 25 0 0 0 8.7734375 30.982422 A 25 25 0 0 0 8.4824219 31.234375 A 25 25 0 0 0 8.4492188 31.261719 A 25 25 0 0 0 8.4238281 31.285156 A 25 25 0 0 0 8.1425781 31.539062 A 25 25 0 0 0 7.8691406 31.791016 A 25 25 0 0 0 7.8261719 31.832031 A 25 25 0 0 0 7.8027344 31.853516 A 25 25 0 0 0 7.53125 32.115234 A 25 25 0 0 0 7.5 32.144531 A 25 25 0 0 0 7.2324219 32.412109 A 25 25 0 0 0 7.0859375 32.5625 A 25 25 0 0 0 6.9121094 32.742188 A 25 25 0 0 0 6.9101562 32.744141 A 25 25 0 0 0 6.6523438 33.019531 A 25 25 0 0 0 6.6230469 33.050781 A 25 25 0 0 0 6.3691406 33.330078 A 25 25 0 0 0 5.8652344 33.910156 A 25 25 0 0 0 5.796875 33.994141 A 25 25 0 0 0 5.7910156 34 A 25 25 0 0 0 5.5527344 34.291016 A 25 25 0 0 0 5.5253906 34.324219 A 25 25 0 0 0 5.2910156 34.621094 A 25 25 0 0 0 5.1347656 34.824219 A 25 25 0 0 0 5.0351562 34.953125 A 25 25 0 0 0 5.0097656 34.988281 A 25 25 0 0 0 4.7675781 35.316406 A 25 25 0 0 0 4.6621094 35.462891 A 25 25 0 0 0 4.53125 35.646484 A 25 25 0 0 0 4.4179688 35.810547 A 25 25 0 0 0 4.2792969 36.011719 A 25 25 0 0 0 4.2773438 36.015625 A 25 25 0 0 0 4.0683594 36.330078 A 25 25 0 0 0 3.8808594 36.623047 A 25 25 0 0 0 3.8359375 36.695312 A 25 25 0 0 0 3.8183594 36.720703 A 25 25 0 0 0 3.6210938 37.041016 A 25 25 0 0 0 3.4472656 37.332031 A 25 25 0 0 0 3.3925781 37.423828 A 25 25 0 0 0 3.3847656 37.439453 A 25 25 0 0 0 3.1972656 37.767578 A 25 25 0 0 0 3.0664062 38.005859 A 25 25 0 0 0 2.9941406 38.136719 A 25 25 0 0 0 2.9746094 38.173828 A 25 25 0 0 0 2.796875 38.507812 A 25 25 0 0 0 2.7773438 38.546875 A 25 25 0 0 0 2.6035156 38.892578 A 25 25 0 0 0 2.53125 39.039062 A 25 25 0 0 0 2.4238281 39.261719 A 25 25 0 0 0 2.40625 39.300781 A 25 25 0 0 0 2.234375 39.667969 A 25 25 0 0 0 2.2285156 39.681641 A 25 25 0 0 0 2.0761719 40.027344 A 25 25 0 0 0 1.9902344 40.226562 A 25 25 0 0 0 1.9101562 40.414062 A 25 25 0 0 0 1.8945312 40.453125 A 25 25 0 0 0 1.7539062 40.802734 A 25 25 0 0 0 1.7382812 40.84375 A 25 25 0 0 0 1.5957031 41.208984 A 25 25 0 0 0 1.5429688 41.357422 A 25 25 0 0 0 1.4570312 41.589844 A 25 25 0 0 0 1.4433594 41.630859 A 25 25 0 0 0 1.3085938 42.015625 A 25 25 0 0 0 1.3046875 42.027344 A 25 25 0 0 0 1.1875 42.386719 A 25 25 0 0 0 1.1152344 42.619141 A 25 25 0 0 0 1.0625 42.789062 A 25 25 0 0 0 1.0507812 42.830078 A 25 25 0 0 0 0.94140625 43.205078 A 25 25 0 0 0 0.93359375 43.232422 A 25 25 0 0 0 0.83398438 43.597656 A 25 25 0 0 0 0.73046875 44.003906 A 25 25 0 0 0 0.6328125 44.414062 A 25 25 0 0 0 0.59570312 44.578125 A 25 25 0 0 0 0.54101562 44.824219 A 25 25 0 0 0 0.53320312 44.865234 A 25 25 0 0 0 0.51757812 44.939453 A 25 25 0 0 0 0.38085938 45.650391 A 25 25 0 0 0 0.37304688 45.691406 A 25 25 0 0 0 0.3125 46.064453 A 25 25 0 0 0 0.19335938 46.896484 A 25 25 0 0 0 0.16796875 47.119141 A 25 25 0 0 0 0.14453125 47.314453 A 25 25 0 0 0 0.140625 47.357422 A 25 25 0 0 0 0.1015625 47.753906 A 25 25 0 0 0 0.099609375 47.775391 A 25 25 0 0 0 0.068359375 48.152344 A 25 25 0 0 0 0.05078125 48.429688 A 25 25 0 0 0 0.041015625 48.570312 A 25 25 0 0 0 0.0390625 48.613281 A 25 25 0 0 0 0.01171875 49.291016 A 25 25 0 0 0 0.0078125 49.412109 A 25 25 0 0 0 0.001953125 49.703125 A 25 25 0 0 0 0 49.832031 A 25 25 0 0 0 0 49.875 A 25 25 0 0 0 0 50 A 25 25 0 0 0 0 50.042969 L 0 324.83203 A 25 25 0 0 0 0 325 A 25 25 0 0 0 25 350 L 150 350 C 233.13883 350 300 416.86117 300 500 C 300 583.13883 233.13883 650 150 650 C 110.20781 650 72.070861 634.20379 43.933594 606.06641 A 25 25 0 0 0 8.578125 606.06641 A 25 25 0 0 0 8.578125 641.42188 C 46.078634 678.92255 96.966158 700 150 700 C 260.16083 700 350 610.16083 350 500 C 350 390.02201 260.45733 300.30535 150.54688 300.00781 A 25 25 0 0 0 150 300 L 50 300 L 50 74.957031 L 300.62109 74.533203 A 25 25 0 0 0 325.57812 49.490234 A 25 25 0 0 0 300.53711 24.533203 z "
       style="color:#000000;font-style:normal;font-variant:normal;font-weight:normal;font-stretch:normal;font-size:medium;line-height:normal;font-family:sans-serif;font-variant-ligatures:normal;font-variant-position:normal;font-variant-caps:normal;font-variant-numeric:normal;font-variant-alternates:normal;font-variant-east-asian:normal;font-feature-settings:normal;font-variation-settings:normal;text-indent:0;text-align:start;text-decoration:none;text-decoration-line:none;text-decoration-style:solid;text-decoration-color:#000000;letter-spacing:normal;word-spacing:normal;text-transform:none;writing-mode:lr-tb;direction:ltr;text-orientation:mixed;dominant-baseline:auto;baseline-shift:baseline;text-anchor:start;white-space:normal;shape-padding:0;shape-margin:0;inline-size:0;clip-rule:nonzero;display:inline;overflow:visible;visibility:visible;isolation:auto;mix-blend-mode:normal;color-interpolation:sRGB;color-interpolation-filters:linearRGB;solid-color:#000000;solid-opacity:1;vector-effect:none;fill:#000000;fill-opacity:1;fill-rule:nonzero;stroke:none;stroke-width:50;stroke-linecap:round;stroke-linejoin:round;stroke-miterlimit:4;stroke-dasharray:none;stroke-dashoffset:0;stroke-opacity:1;color-rendering:auto;image-rendering:auto;shape-rendering:auto;text-rendering:auto;enable-background:accumulate;stop-color:#000000;stop-opacity:1;opacity:1"
       id="path877" />
  </g>
</svg>
