<?xml version="1.0" encoding="UTF-8" standalone="no"?>
<svg
   xmlns:dc="http://purl.org/dc/elements/1.1/"
   xmlns:cc="http://creativecommons.org/ns#"
   xmlns:rdf="http://www.w3.org/1999/02/22-rdf-syntax-ns#"
   xmlns:svg="http://www.w3.org/2000/svg"
   xmlns="http://www.w3.org/2000/svg"
   xmlns:sodipodi="http://sodipodi.sourceforge.net/DTD/sodipodi-0.dtd"
   xmlns:inkscape="http://www.inkscape.org/namespaces/inkscape"
   sodipodi:docname="7.svg"
   inkscape:version="1.0 (4035a4fb49, 2020-05-01)"
   id="svg8"
   version="1.1"
   viewBox="0 0 1000 1000"
   height="1000"
   width="1000">
  <defs
     id="defs2" />
  <sodipodi:namedview
     inkscape:guide-bbox="true"
     showguides="true"
     inkscape:window-maximized="1"
     inkscape:window-y="1301"
     inkscape:window-x="0"
     inkscape:window-height="977"
     inkscape:window-width="1916"
     inkscape:snap-grids="true"
     inkscape:snap-page="true"
     inkscape:snap-text-baseline="true"
     inkscape:snap-center="true"
     inkscape:snap-object-midpoints="true"
     inkscape:snap-midpoints="true"
     inkscape:snap-smooth-nodes="true"
     inkscape:snap-intersection-paths="true"
     inkscape:object-paths="true"
     inkscape:snap-bbox-midpoints="true"
     inkscape:snap-bbox-edge-midpoints="true"
     inkscape:bbox-nodes="true"
     inkscape:bbox-paths="true"
     inkscape:snap-bbox="true"
     inkscape:pagecheckerboard="true"
     units="px"
     showgrid="true"
     inkscape:document-rotation="0"
     inkscape:current-layer="layer1"
     inkscape:document-units="px"
     inkscape:cy="434.62224"
     inkscape:cx="435.46305"
     inkscape:zoom="0.51755965"
     inkscape:pageshadow="2"
     inkscape:pageopacity="0.0"
     borderopacity="1.0"
     bordercolor="#666666"
     pagecolor="#ffffff"
     id="base">
    <inkscape:grid
       id="grid883"
       type="xygrid" />
    <sodipodi:guide
       inkscape:color="rgb(0,0,255)"
       inkscape:locked="true"
       inkscape:label=""
       id="guide885"
       orientation="0,1"
       position="0,300" />
    <sodipodi:guide
       inkscape:color="rgb(0,0,255)"
       inkscape:locked="true"
       inkscape:label=""
       id="guide887"
       orientation="0,1"
       position="0,700" />
    <sodipodi:guide
       inkscape:color="rgb(0,0,255)"
       inkscape:locked="true"
       inkscape:label=""
       id="guide889"
       orientation="0,1"
       position="0,975" />
    <sodipodi:guide
       inkscape:color="rgb(0,0,255)"
       inkscape:locked="true"
       inkscape:label=""
       id="guide891"
       orientation="0,1"
       position="0,1000" />
    <sodipodi:guide
       inkscape:color="rgb(0,0,255)"
       inkscape:locked="true"
       inkscape:label=""
       id="guide893"
       orientation="0,1"
       position="0,0" />
    <sodipodi:guide
       id="guide921"
       orientation="0,-1"
       position="120,600" />
  </sodipodi:namedview>
  <metadata
     id="metadata5">
    <rdf:RDF>
      <cc:Work
         rdf:about="">
        <dc:format>image/svg+xml</dc:format>
        <dc:type
           rdf:resource="http://purl.org/dc/dcmitype/StillImage" />
        <dc:title />
      </cc:Work>
    </rdf:RDF>
  </metadata>
  <g
     style="display:inline"
     id="layer1"
     inkscape:groupmode="layer"
     inkscape:label="Layer 1">
    <path
       d="M 25 25 A 25 25 0 0 0 0 50 A 25 25 0 0 0 25 75 L 332.34766 75 L 3.1875 662.78516 A 25 25 0 0 0 12.785156 696.8125 A 25 25 0 0 0 46.8125 687.21484 L 396.79883 62.238281 L 396.80273 62.232422 A 25 25 0 0 0 396.8125 62.214844 A 25 25 0 0 0 397.00586 61.863281 A 25 25 0 0 0 397.01562 61.845703 A 25 25 0 0 0 397.20312 61.492188 A 25 25 0 0 0 397.21094 61.474609 A 25 25 0 0 0 397.39258 61.117188 A 25 25 0 0 0 397.40039 61.099609 A 25 25 0 0 0 397.57617 60.738281 A 25 25 0 0 0 397.58398 60.720703 A 25 25 0 0 0 397.75391 60.357422 A 25 25 0 0 0 397.76172 60.339844 A 25 25 0 0 0 397.92383 59.972656 A 25 25 0 0 0 397.93164 59.955078 A 25 25 0 0 0 397.95312 59.902344 A 25 25 0 0 0 398.0957 59.568359 A 25 25 0 0 0 398.24609 59.197266 A 25 25 0 0 0 398.25391 59.177734 A 25 25 0 0 0 398.39844 58.804688 A 25 25 0 0 0 398.4043 58.787109 A 25 25 0 0 0 398.54297 58.410156 A 25 25 0 0 0 398.54883 58.390625 A 25 25 0 0 0 398.68164 58.013672 A 25 25 0 0 0 398.6875 57.994141 A 25 25 0 0 0 398.8125 57.613281 A 25 25 0 0 0 398.81836 57.59375 A 25 25 0 0 0 398.86133 57.457031 A 25 25 0 0 0 398.94336 57.193359 A 25 25 0 0 0 399.05469 56.808594 A 25 25 0 0 0 399.06055 56.789062 A 25 25 0 0 0 399.16602 56.402344 A 25 25 0 0 0 399.17188 56.382812 A 25 25 0 0 0 399.26953 55.996094 A 25 25 0 0 0 399.27539 55.976562 A 25 25 0 0 0 399.36719 55.585938 A 25 25 0 0 0 399.37109 55.566406 A 25 25 0 0 0 399.45898 55.175781 A 25 25 0 0 0 399.46289 55.15625 A 25 25 0 0 0 399.54102 54.763672 A 25 25 0 0 0 399.54492 54.744141 A 25 25 0 0 0 399.55273 54.697266 A 25 25 0 0 0 399.66602 54.060547 A 25 25 0 0 0 399.69141 53.916016 A 25 25 0 0 0 399.75 53.519531 A 25 25 0 0 0 399.78906 53.234375 A 25 25 0 0 0 399.80664 53.103516 A 25 25 0 0 0 399.80859 53.083984 A 25 25 0 0 0 399.85547 52.685547 A 25 25 0 0 0 399.85742 52.666016 A 25 25 0 0 0 399.89648 52.267578 A 25 25 0 0 0 399.89844 52.248047 A 25 25 0 0 0 399.93164 51.847656 A 25 25 0 0 0 399.93359 51.828125 A 25 25 0 0 0 399.94141 51.691406 A 25 25 0 0 0 399.98047 50.988281 A 25 25 0 0 0 399.98438 50.863281 A 25 25 0 0 0 399.99805 50.226562 A 25 25 0 0 0 400 50.167969 A 25 25 0 0 0 400 50.148438 A 25 25 0 0 0 400 50 A 25 25 0 0 0 399.99805 49.728516 A 25 25 0 0 0 399.99609 49.580078 A 25 25 0 0 0 399.99023 49.308594 A 25 25 0 0 0 399.98828 49.275391 A 25 25 0 0 0 399.97461 48.886719 A 25 25 0 0 0 399.95703 48.556641 A 25 25 0 0 0 399.95312 48.466797 A 25 25 0 0 0 399.94336 48.320312 A 25 25 0 0 0 399.92383 48.048828 A 25 25 0 0 0 399.91992 48 A 25 25 0 0 0 399.88672 47.628906 A 25 25 0 0 0 399.85547 47.333984 A 25 25 0 0 0 399.82812 47.087891 A 25 25 0 0 0 399.82617 47.064453 A 25 25 0 0 0 399.79297 46.792969 A 25 25 0 0 0 399.77344 46.646484 A 25 25 0 0 0 399.73633 46.376953 A 25 25 0 0 0 399.72656 46.316406 A 25 25 0 0 0 399.69336 46.101562 A 25 25 0 0 0 399.64844 45.832031 A 25 25 0 0 0 399.64648 45.814453 A 25 25 0 0 0 399.59961 45.546875 A 25 25 0 0 0 399.59961 45.542969 A 25 25 0 0 0 399.52734 45.167969 A 25 25 0 0 0 399.52148 45.134766 A 25 25 0 0 0 399.51562 45.107422 A 25 25 0 0 0 399.44531 44.771484 A 25 25 0 0 0 399.43555 44.722656 A 25 25 0 0 0 399.4043 44.578125 A 25 25 0 0 0 399.34375 44.3125 A 25 25 0 0 0 399.3418 44.300781 A 25 25 0 0 0 399.24414 43.904297 A 25 25 0 0 0 399.1543 43.558594 A 25 25 0 0 0 399.13867 43.496094 A 25 25 0 0 0 399.09961 43.353516 A 25 25 0 0 0 399.02539 43.091797 A 25 25 0 0 0 398.98438 42.949219 A 25 25 0 0 0 398.90625 42.689453 A 25 25 0 0 0 398.9043 42.683594 A 25 25 0 0 0 398.82617 42.429688 A 25 25 0 0 0 398.74805 42.189453 A 25 25 0 0 0 398.73438 42.146484 A 25 25 0 0 0 398.64648 41.888672 A 25 25 0 0 0 398.52734 41.548828 A 25 25 0 0 0 398.50781 41.492188 A 25 25 0 0 0 398.45703 41.353516 A 25 25 0 0 0 398.36133 41.097656 A 25 25 0 0 0 398.30859 40.958984 A 25 25 0 0 0 398.20898 40.707031 A 25 25 0 0 0 398.15234 40.568359 A 25 25 0 0 0 398.04883 40.318359 A 25 25 0 0 0 397.99023 40.181641 A 25 25 0 0 0 397.88281 39.931641 A 25 25 0 0 0 397.85547 39.873047 A 25 25 0 0 0 397.70898 39.548828 A 25 25 0 0 0 397.53906 39.185547 A 25 25 0 0 0 397.53125 39.167969 A 25 25 0 0 0 397.52539 39.15625 A 25 25 0 0 0 397.3457 38.791016 A 25 25 0 0 0 397.2793 38.658203 A 25 25 0 0 0 397.1543 38.416016 A 25 25 0 0 0 397.13867 38.386719 A 25 25 0 0 0 396.95508 38.044922 A 25 25 0 0 0 396.79883 37.761719 A 25 25 0 0 0 396.75195 37.677734 A 25 25 0 0 0 396.67773 37.548828 A 25 25 0 0 0 396.54102 37.314453 A 25 25 0 0 0 396.32422 36.953125 A 25 25 0 0 0 396.15039 36.671875 A 25 25 0 0 0 396.10352 36.595703 A 25 25 0 0 0 396.02344 36.470703 A 25 25 0 0 0 395.875 36.244141 A 25 25 0 0 0 395.87109 36.238281 A 25 25 0 0 0 395.66406 35.931641 A 25 25 0 0 0 395.64062 35.894531 A 25 25 0 0 0 395.55664 35.771484 A 25 25 0 0 0 395.40039 35.548828 A 25 25 0 0 0 395.31445 35.427734 A 25 25 0 0 0 395.1543 35.207031 A 25 25 0 0 0 395.06641 35.087891 A 25 25 0 0 0 394.90234 34.871094 A 25 25 0 0 0 394.8125 34.753906 A 25 25 0 0 0 394.64453 34.539062 A 25 25 0 0 0 394.55273 34.421875 A 25 25 0 0 0 394.38281 34.210938 A 25 25 0 0 0 394.36133 34.185547 A 25 25 0 0 0 394.13281 33.912109 A 25 25 0 0 0 394.11328 33.886719 A 25 25 0 0 0 394.01758 33.773438 A 25 25 0 0 0 393.83984 33.568359 A 25 25 0 0 0 393.56055 33.253906 A 25 25 0 0 0 393.31445 32.984375 A 25 25 0 0 0 393.27734 32.943359 A 25 25 0 0 0 393.25781 32.923828 A 25 25 0 0 0 393.00781 32.658203 A 25 25 0 0 0 392.98828 32.638672 A 25 25 0 0 0 392.88477 32.53125 A 25 25 0 0 0 392.69336 32.337891 A 25 25 0 0 0 392.66602 32.3125 A 25 25 0 0 0 392.39258 32.042969 A 25 25 0 0 0 392.13477 31.796875 A 25 25 0 0 0 392.08984 31.753906 A 25 25 0 0 0 391.98047 31.652344 A 25 25 0 0 0 391.7793 31.46875 A 25 25 0 0 0 391.77344 31.462891 A 25 25 0 0 0 391.46484 31.189453 A 25 25 0 0 0 391.35352 31.091797 A 25 25 0 0 0 391.14648 30.914062 A 25 25 0 0 0 391.0332 30.818359 A 25 25 0 0 0 390.82422 30.646484 A 25 25 0 0 0 390.70898 30.552734 A 25 25 0 0 0 390.49609 30.382812 A 25 25 0 0 0 390.37891 30.291016 A 25 25 0 0 0 390.16406 30.125 A 25 25 0 0 0 390.14258 30.107422 A 25 25 0 0 0 389.85352 29.892578 A 25 25 0 0 0 389.82812 29.873047 A 25 25 0 0 0 389.70898 29.785156 A 25 25 0 0 0 389.48633 29.625 A 25 25 0 0 0 389.36523 29.539062 A 25 25 0 0 0 389.14258 29.384766 A 25 25 0 0 0 389.01953 29.300781 A 25 25 0 0 0 388.79297 29.150391 A 25 25 0 0 0 388.44531 28.923828 A 25 25 0 0 0 388.44141 28.921875 A 25 25 0 0 0 388.31641 28.841797 A 25 25 0 0 0 388.08398 28.697266 A 25 25 0 0 0 387.95898 28.621094 A 25 25 0 0 0 387.72461 28.480469 A 25 25 0 0 0 387.59766 28.40625 A 25 25 0 0 0 387.36133 28.269531 A 25 25 0 0 0 387.23242 28.197266 A 25 25 0 0 0 387.21484 28.1875 A 25 25 0 0 0 386.86328 27.994141 A 25 25 0 0 0 386.8457 27.984375 A 25 25 0 0 0 386.49219 27.796875 A 25 25 0 0 0 386.47461 27.789062 A 25 25 0 0 0 386.11719 27.607422 A 25 25 0 0 0 386.09961 27.599609 A 25 25 0 0 0 385.73828 27.423828 A 25 25 0 0 0 385.7207 27.416016 A 25 25 0 0 0 385.35742 27.246094 A 25 25 0 0 0 385.33984 27.238281 A 25 25 0 0 0 384.97266 27.076172 A 25 25 0 0 0 384.95508 27.068359 A 25 25 0 0 0 384.90234 27.046875 A 25 25 0 0 0 384.56836 26.904297 A 25 25 0 0 0 384.19727 26.753906 A 25 25 0 0 0 384.17773 26.746094 A 25 25 0 0 0 383.80469 26.601562 A 25 25 0 0 0 383.78711 26.595703 A 25 25 0 0 0 383.41016 26.457031 A 25 25 0 0 0 383.39062 26.451172 A 25 25 0 0 0 383.01367 26.318359 A 25 25 0 0 0 382.99414 26.3125 A 25 25 0 0 0 382.61328 26.1875 A 25 25 0 0 0 382.59375 26.181641 A 25 25 0 0 0 382.45703 26.138672 A 25 25 0 0 0 382.19336 26.056641 A 25 25 0 0 0 381.80859 25.945312 A 25 25 0 0 0 381.78906 25.939453 A 25 25 0 0 0 381.40234 25.833984 A 25 25 0 0 0 380.99609 25.730469 A 25 25 0 0 0 380.97656 25.724609 A 25 25 0 0 0 380.23633 25.554688 A 25 25 0 0 0 380.17578 25.541016 A 25 25 0 0 0 380.15625 25.537109 A 25 25 0 0 0 379.76367 25.458984 A 25 25 0 0 0 379.74414 25.455078 A 25 25 0 0 0 379.34961 25.380859 A 25 25 0 0 0 379.33203 25.376953 A 25 25 0 0 0 378.93555 25.3125 A 25 25 0 0 0 378.91602 25.308594 A 25 25 0 0 0 378.51953 25.25 A 25 25 0 0 0 378.23438 25.210938 A 25 25 0 0 0 378.10352 25.193359 A 25 25 0 0 0 378.08398 25.191406 A 25 25 0 0 0 377.68555 25.144531 A 25 25 0 0 0 377.66602 25.142578 A 25 25 0 0 0 377.26758 25.103516 A 25 25 0 0 0 377.24805 25.101562 A 25 25 0 0 0 376.84766 25.068359 A 25 25 0 0 0 376.82812 25.066406 A 25 25 0 0 0 376.42969 25.041016 A 25 25 0 0 0 376.41016 25.039062 A 25 25 0 0 0 376.00977 25.019531 A 25 25 0 0 0 375.99023 25.019531 A 25 25 0 0 0 375.87305 25.015625 A 25 25 0 0 0 375.22656 25.001953 A 25 25 0 0 0 375.16797 25 A 25 25 0 0 0 375 25 L 25 25 z "
       style="color:#000000;font-style:normal;font-variant:normal;font-weight:normal;font-stretch:normal;font-size:medium;line-height:normal;font-family:sans-serif;font-variant-ligatures:normal;font-variant-position:normal;font-variant-caps:normal;font-variant-numeric:normal;font-variant-alternates:normal;font-variant-east-asian:normal;font-feature-settings:normal;font-variation-settings:normal;text-indent:0;text-align:start;text-decoration:none;text-decoration-line:none;text-decoration-style:solid;text-decoration-color:#000000;letter-spacing:normal;word-spacing:normal;text-transform:none;writing-mode:lr-tb;direction:ltr;text-orientation:mixed;dominant-baseline:auto;baseline-shift:baseline;text-anchor:start;white-space:normal;shape-padding:0;shape-margin:0;inline-size:0;clip-rule:nonzero;display:inline;overflow:visible;visibility:visible;isolation:auto;mix-blend-mode:normal;color-interpolation:sRGB;color-interpolation-filters:linearRGB;solid-color:#000000;solid-opacity:1;vector-effect:none;fill:#000000;fill-opacity:1;fill-rule:nonzero;stroke:none;stroke-width:50;stroke-linecap:round;stroke-linejoin:round;stroke-miterlimit:4;stroke-dasharray:none;stroke-dashoffset:0;stroke-opacity:1;color-rendering:auto;image-rendering:auto;shape-rendering:auto;text-rendering:auto;enable-background:accumulate;stop-color:#000000;stop-opacity:1;opacity:1"
       id="path845" />
  </g>
</svg>
