<?xml version="1.0" encoding="UTF-8" standalone="no"?>
<svg
   xmlns:dc="http://purl.org/dc/elements/1.1/"
   xmlns:cc="http://creativecommons.org/ns#"
   xmlns:rdf="http://www.w3.org/1999/02/22-rdf-syntax-ns#"
   xmlns:svg="http://www.w3.org/2000/svg"
   xmlns="http://www.w3.org/2000/svg"
   xmlns:sodipodi="http://sodipodi.sourceforge.net/DTD/sodipodi-0.dtd"
   xmlns:inkscape="http://www.inkscape.org/namespaces/inkscape"
   width="1000"
   height="1000"
   viewBox="0 0 1000 1000"
   version="1.1"
   id="svg8"
   inkscape:version="1.0 (4035a4fb49, 2020-05-01)"
   sodipodi:docname="&lt;.svg">
  <defs
     id="defs2" />
  <sodipodi:namedview
     id="base"
     pagecolor="#ffffff"
     bordercolor="#666666"
     borderopacity="1.0"
     inkscape:pageopacity="0.0"
     inkscape:pageshadow="2"
     inkscape:zoom="1.0351193"
     inkscape:cx="443.12443"
     inkscape:cy="483.67686"
     inkscape:document-units="px"
     inkscape:current-layer="layer1"
     inkscape:document-rotation="0"
     showgrid="true"
     units="px"
     inkscape:pagecheckerboard="true"
     inkscape:snap-bbox="true"
     inkscape:bbox-paths="true"
     inkscape:bbox-nodes="true"
     inkscape:snap-bbox-edge-midpoints="true"
     inkscape:snap-bbox-midpoints="true"
     inkscape:object-paths="true"
     inkscape:snap-intersection-paths="true"
     inkscape:snap-smooth-nodes="true"
     inkscape:snap-midpoints="true"
     inkscape:snap-object-midpoints="true"
     inkscape:snap-center="true"
     inkscape:snap-text-baseline="true"
     inkscape:snap-page="true"
     inkscape:snap-grids="false"
     inkscape:window-width="1916"
     inkscape:window-height="997"
     inkscape:window-x="0"
     inkscape:window-y="1281"
     inkscape:window-maximized="1"
     showguides="true"
     inkscape:guide-bbox="true">
    <inkscape:grid
       type="xygrid"
       id="grid883" />
    <sodipodi:guide
       position="0,300"
       orientation="0,1"
       id="guide885"
       inkscape:label=""
       inkscape:locked="true"
       inkscape:color="rgb(0,0,255)" />
    <sodipodi:guide
       position="0,700"
       orientation="0,1"
       id="guide887"
       inkscape:label=""
       inkscape:locked="true"
       inkscape:color="rgb(0,0,255)" />
    <sodipodi:guide
       position="0,975"
       orientation="0,1"
       id="guide889"
       inkscape:label=""
       inkscape:locked="true"
       inkscape:color="rgb(0,0,255)" />
    <sodipodi:guide
       position="0,1000"
       orientation="0,1"
       id="guide891"
       inkscape:label=""
       inkscape:locked="true"
       inkscape:color="rgb(0,0,255)" />
    <sodipodi:guide
       position="0,0"
       orientation="0,1"
       id="guide893"
       inkscape:label=""
       inkscape:locked="true"
       inkscape:color="rgb(0,0,255)" />
    <sodipodi:guide
       position="120,600"
       orientation="0,-1"
       id="guide921" />
  </sodipodi:namedview>
  <metadata
     id="metadata5">
    <rdf:RDF>
      <cc:Work
         rdf:about="">
        <dc:format>image/svg+xml</dc:format>
        <dc:type
           rdf:resource="http://purl.org/dc/dcmitype/StillImage" />
        <dc:title />
      </cc:Work>
    </rdf:RDF>
  </metadata>
  <g
     inkscape:label="Layer 1"
     inkscape:groupmode="layer"
     id="layer1"
     style="display:inline">
    <path
       id="path845"
       style="color:#000000;font-style:normal;font-variant:normal;font-weight:normal;font-stretch:normal;font-size:medium;line-height:normal;font-family:sans-serif;font-variant-ligatures:normal;font-variant-position:normal;font-variant-caps:normal;font-variant-numeric:normal;font-variant-alternates:normal;font-variant-east-asian:normal;font-feature-settings:normal;font-variation-settings:normal;text-indent:0;text-align:start;text-decoration:none;text-decoration-line:none;text-decoration-style:solid;text-decoration-color:#000000;letter-spacing:normal;word-spacing:normal;text-transform:none;writing-mode:lr-tb;direction:ltr;text-orientation:mixed;dominant-baseline:auto;baseline-shift:baseline;text-anchor:start;white-space:normal;shape-padding:0;shape-margin:0;inline-size:0;clip-rule:nonzero;display:inline;overflow:visible;visibility:visible;opacity:1;isolation:auto;mix-blend-mode:normal;color-interpolation:sRGB;color-interpolation-filters:linearRGB;solid-color:#000000;solid-opacity:1;vector-effect:none;fill:#000000;fill-opacity:1;fill-rule:nonzero;stroke:none;stroke-width:50;stroke-linecap:round;stroke-linejoin:round;stroke-miterlimit:4;stroke-dasharray:none;stroke-dashoffset:0;stroke-opacity:1;color-rendering:auto;image-rendering:auto;shape-rendering:auto;text-rendering:auto;enable-background:accumulate;stop-color:#000000;stop-opacity:1"
       d="m 424.94922,200.00005 a 25,25 0 0 0 -9.96875,2.0957 L 15.070315,377.05669 a 25,25 0 0 0 -0.07422,0.0312 l -0.01563,0.008 a 25,25 0 0 0 -0.367189,0.16407 25,25 0 0 0 -0.01563,0.008 25,25 0 0 0 -0.365233,0.16992 25,25 0 0 0 -0.01563,0.008 25,25 0 0 0 -0.722656,0.35938 25,25 0 0 0 -0.01563,0.008 25,25 0 0 0 -0.01563,0.008 25,25 0 0 0 -0.355469,0.18946 25,25 0 0 0 -0.01563,0.008 25,25 0 0 0 -0.351563,0.19531 25,25 0 0 0 -0.226562,0.12891 25,25 0 0 0 -0.138672,0.0801 25,25 0 0 0 -0.01563,0.01 25,25 0 0 0 -0.345703,0.20508 25,25 0 0 0 -0.01563,0.01 25,25 0 0 0 -0.34375,0.21485 25,25 0 0 0 -0.01367,0.008 25,25 0 0 0 -0.337891,0.2168 25,25 0 0 0 -0.126953,0.084 25,25 0 0 0 -0.222656,0.14844 25,25 0 0 0 -0.01563,0.0117 25,25 0 0 0 -0.330078,0.22851 25,25 0 0 0 -0.158203,0.11329 25,25 0 0 0 -0.197266,0.14257 25,25 0 0 0 -0.3242184,0.24024 25,25 0 0 0 -0.1347656,0.10351 25,25 0 0 0 -0.1992188,0.15235 25,25 0 0 0 -0.013672,0.0117 25,25 0 0 0 -0.3144531,0.25 25,25 0 0 0 -0.013672,0.0117 25,25 0 0 0 -0.3105469,0.25586 25,25 0 0 0 -0.013672,0.0117 25,25 0 0 0 -0.3203125,0.27344 25,25 0 0 0 -0.3007813,0.26562 25,25 0 0 0 -0.1308594,0.11915 25,25 0 0 0 -0.1816406,0.16406 25,25 0 0 0 -0.011719,0.0117 25,25 0 0 0 -0.2929688,0.27734 25,25 0 0 0 -0.1367187,0.13477 25,25 0 0 0 -0.1757813,0.17187 25,25 0 0 0 -0.2851562,0.28516 25,25 0 0 0 -0.011719,0.0137 25,25 0 0 0 -0.2792969,0.28906 25,25 0 0 0 -0.011719,0.0137 25,25 0 0 0 -0.2734375,0.29493 25,25 0 0 0 -0.011719,0.0137 25,25 0 0 0 -0.2675781,0.30078 25,25 0 0 0 -0.011719,0.0137 25,25 0 0 0 -0.2675782,0.30859 25,25 0 0 0 -0.00781,0.01 25,25 0 0 0 -0.2578126,0.30859 25,25 0 0 0 -0.089844,0.11133 25,25 0 0 0 -0.1757813,0.21485 25,25 0 0 0 -0.00977,0.0137 25,25 0 0 0 -0.2480468,0.31836 25,25 0 0 0 -0.1914063,0.25195 25,25 0 0 0 -0.0625,0.084 25,25 0 0 0 -0.00977,0.0137 25,25 0 0 0 -0.2421875,0.33398 25,25 0 0 0 -0.00586,0.006 25,25 0 0 0 -0.2304688,0.33008 25,25 0 0 0 -0.09375,0.13867 25,25 0 0 0 -0.1425781,0.20898 25,25 0 0 0 -0.00977,0.0156 25,25 0 0 0 -0.2207031,0.33594 25,25 0 0 0 -0.00977,0.0156 25,25 0 0 0 -0.4042969,0.65235 25,25 0 0 0 -0.027344,0.0469 25,25 0 0 0 -0.076172,0.12891 25,25 0 0 0 -0.1367187,0.23437 25,25 0 0 0 -0.00781,0.0156 25,25 0 0 0 -0.1972656,0.35156 25,25 0 0 0 -0.00781,0.0156 25,25 0 0 0 -0.1914063,0.35352 25,25 0 0 0 -0.1523437,0.29492 25,25 0 0 0 -0.041016,0.0801 25,25 0 0 0 -0.00781,0.0156 25,25 0 0 0 -0.1796876,0.35938 25,25 0 0 0 -0.00781,0.0176 25,25 0 0 0 -0.1738282,0.36328 25,25 0 0 0 -0.00781,0.0156 25,25 0 0 0 -0.1660156,0.36719 25,25 0 0 0 -0.040965,0.0896 25,25 0 0 0 -0.027344,0.0625 25,25 0 0 0 -0.1054687,0.24609 25,25 0 0 0 -0.1367188,0.32813 25,25 0 0 0 -0.044922,0.10937 25,25 0 0 0 -0.097656,0.25 25,25 0 0 0 -0.056641,0.14649 25,25 0 0 0 -0.074219,0.19336 25,25 0 0 0 -0.099609,0.27148 25,25 0 0 0 -0.021484,0.0605 25,25 0 0 0 -0.1054688,0.30078 25,25 0 0 0 -0.058594,0.17578 25,25 0 0 0 -0.0625,0.18945 25,25 0 0 0 -0.056641,0.17188 25,25 0 0 0 -0.097656,0.3164 25,25 0 0 0 -0.10937506,0.36915 25,25 0 0 0 -0.033203,0.11718 25,25 0 0 0 -0.078125,0.28906 25,25 0 0 0 -0.027344,0.10157 25,25 0 0 0 -0.072266,0.27734 25,25 0 0 0 -0.042969,0.17188 25,25 0 0 0 -0.050781,0.21289 25,25 0 0 0 -0.048828,0.21484 25,25 0 0 0 -0.056641,0.25391 25,25 0 0 0 -0.00586,0.0273 25,25 0 0 0 -0.054687,0.26367 25,25 0 0 0 -0.078125,0.40235 25,25 0 0 0 -0.00586,0.0254 25,25 0 0 0 -0.037109,0.21093 25,25 0 0 0 -0.052734,0.3125 25,25 0 0 0 -0.00391,0.0234 25,25 0 0 0 -0.041016,0.26563 25,25 0 0 0 -0.046875,0.32617 25,25 0 0 0 -0.021484,0.1543 25,25 0 0 0 -0.041016,0.33789 25,25 0 0 0 -0.00195,0.0234 25,25 0 0 0 -0.044922,0.41031 25,25 0 0 0 -0.03125,0.32617 25,25 0 0 0 -0.015625,0.19141 25,25 0 0 0 -0.00977,0.14844 25,25 0 0 0 -0.017578,0.23437 25,25 0 0 0 -0.011719,0.22461 25,25 0 0 0 -0.013672,0.28516 25,25 0 0 0 -0.013672,0.39257 25,25 0 0 0 -0.00195,0.0684 25,25 0 0 0 -0.00586,0.37891 25,25 0 0 0 -0.00195000129,0.32031 25,25 0 0 0 0.00195000129,0.25196 25,25 0 0 0 0.00586,0.23242 25,25 0 0 0 0.00195,0.11133 25,25 0 0 0 0.00977,0.25781 25,25 0 0 0 0.015625,0.35156 25,25 0 0 0 0,0.006 25,25 0 0 0 0.025391,0.41797 25,25 0 0 0 0.023437,0.31445 25,25 0 0 0 0.015625,0.17774 25,25 0 0 0 0.029297,0.31054 25,25 0 0 0 0.00586,0.0527 25,25 0 0 0 0.044922,0.39844 25,25 0 0 0 0,0.004 25,25 0 0 0 0.037109,0.28906 25,25 0 0 0 0.035156,0.26172 25,25 0 0 0 0.00586,0.0391 25,25 0 0 0 0.046875,0.31836 25,25 0 0 0 0.050781,0.29883 25,25 0 0 0 0.00977,0.0586 25,25 0 0 0 0.044922,0.25781 25,25 0 0 0 0.050781,0.26172 25,25 0 0 0 0.015625,0.0762 25,25 0 0 0 0.060547,0.30664 25,25 0 0 0 0.025391,0.11133 25,25 0 0 0 0.078125,0.35156 25,25 0 0 0 0.097656,0.40625 25,25 0 0 0 0,0.002 25,25 0 0 0 0.066406,0.26172 25,25 0 0 0 0.095703,0.35938 25,25 0 0 0 0.044922,0.15429 25,25 0 0 0 0.021484,0.0742 25,25 0 0 0 0.083984,0.28907 25,25 0 0 0 0.099609,0.33203 25,25 0 0 0 0.00195,0.006 25,25 0 0 0 0.1074218,0.33007 25,25 0 0 0 0.044922,0.13282 25,25 0 0 0 0.066406,0.19336 25,25 0 0 0 0.076172,0.21679 25,25 0 0 0 0.076172,0.21485 25,25 0 0 0 0.050781,0.13476 25,25 0 0 0 0.1308593,0.34375 25,25 0 0 0 0.011719,0.0352 25,25 0 0 0 0.078125,0.19531 25,25 0 0 0 0.1230469,0.30274 25,25 0 0 0 0.025391,0.0605 25,25 0 0 0 0.085937,0.20117 25,25 0 0 0 0.060547,0.13868 25,25 0 0 0 0.00586,0.0156 25,25 0 0 0 0.064453,0.14063 25,25 0 0 0 0.1074219,0.24218 25,25 0 0 0 0.171875,0.36719 25,25 0 0 0 0.1542969,0.31641 25,25 0 0 0 0.035156,0.0703 25,25 0 0 0 0.00195,0.006 25,25 0 0 0 0.1816406,0.35937 25,25 0 0 0 0.00781,0.0156 25,25 0 0 0 0.1894531,0.35547 25,25 0 0 0 0.15625,0.2832 25,25 0 0 0 0.054687,0.0996 25,25 0 0 0 0.00195,0.002 25,25 0 0 0 0.2089844,0.36328 25,25 0 0 0 0.2070313,0.34571 25,25 0 0 0 0.2167963,0.35156 25,25 0 0 0 0.00586,0.008 25,25 0 0 0 0.00781,0.0137 25,25 0 0 0 0.21875,0.33984 25,25 0 0 0 0.1601563,0.24219 25,25 0 0 0 0.072266,0.10742 25,25 0 0 0 0.00977,0.0137 25,25 0 0 0 0.2363281,0.34375 25,25 0 0 0 0.015625,0.0215 25,25 0 0 0 0.2226563,0.3086 25,25 0 0 0 0.00977,0.0117 25,25 0 0 0 0.2402344,0.32422 25,25 0 0 0 0.1035156,0.13476 25,25 0 0 0 0.1523438,0.19922 25,25 0 0 0 0.011719,0.0137 25,25 0 0 0 0.2519532,0.31446 25,25 0 0 0 0.1132812,0.13867 25,25 0 0 0 0.1640625,0.19922 25,25 0 0 0 0.2636719,0.30859 25,25 0 0 0 0.052734,0.0606 25,25 0 0 0 0.2226562,0.2539 25,25 0 0 0 0.011719,0.0117 25,25 0 0 0 0.2734374,0.29883 25,25 0 0 0 0.00977,0.0117 25,25 0 0 0 0.2773437,0.29297 25,25 0 0 0 0.2714844,0.27734 25,25 0 0 0 0.03125,0.0312 25,25 0 0 0 0.00391,0.004 25,25 0 0 0 0.2871094,0.28515 25,25 0 0 0 0.011719,0.0117 25,25 0 0 0 0.2910156,0.2793 25,25 0 0 0 0.011719,0.0117 25,25 0 0 0 0.296875,0.27344 25,25 0 0 0 0.1113281,0.0996 25,25 0 0 0 0.5332032,0.4668 25,25 0 0 0 0.3085938,0.25977 25,25 0 0 0 0.013672,0.01 25,25 0 0 0 0.3144532,0.25391 25,25 0 0 0 0.1289062,0.10156 25,25 0 0 0 0.2011719,0.1582 25,25 0 0 0 0.013672,0.01 25,25 0 0 0 0.3222649,0.24219 25,25 0 0 0 0.01367,0.01 25,25 0 0 0 0.333985,0.24414 25,25 0 0 0 0.0293,0.0195 25,25 0 0 0 0.320312,0.2246 25,25 0 0 0 0.335938,0.22657 25,25 0 0 0 0.01367,0.01 25,25 0 0 0 0.337891,0.22071 25,25 0 0 0 0.21875,0.13867 25,25 0 0 0 0.136719,0.0859 25,25 0 0 0 0.01367,0.008 25,25 0 0 0 0.345703,0.21094 25,25 0 0 0 0.01367,0.008 25,25 0 0 0 0.355468,0.20703 25,25 0 0 0 0.0078,0.004 25,25 0 0 0 0.353515,0.19727 25,25 0 0 0 0.140626,0.0762 25,25 0 0 0 0.228515,0.125 25,25 0 0 0 0.01563,0.008 25,25 0 0 0 0.726563,0.36718 25,25 0 0 0 0.0078,0.004 25,25 0 0 0 0.01563,0.008 25,25 0 0 0 0.363281,0.17383 25,25 0 0 0 0.01563,0.008 25,25 0 0 0 0.367188,0.16602 25,25 0 0 0 0.0918,0.041 25,25 0 0 0 0.0625,0.0273 l 400.000005,175 A 25,25 0 0 0 447.9043,585.02243 25,25 0 0 0 435.01953,552.0986 L 87.373049,400.00005 435.01953,247.90435 a 25,25 0 0 0 12.88477,-32.92383 25,25 0 0 0 -22.95508,-14.98047 z" />
  </g>
</svg>
