<?xml version="1.0" encoding="UTF-8" standalone="no"?>
<svg
   xmlns:dc="http://purl.org/dc/elements/1.1/"
   xmlns:cc="http://creativecommons.org/ns#"
   xmlns:rdf="http://www.w3.org/1999/02/22-rdf-syntax-ns#"
   xmlns:svg="http://www.w3.org/2000/svg"
   xmlns="http://www.w3.org/2000/svg"
   xmlns:sodipodi="http://sodipodi.sourceforge.net/DTD/sodipodi-0.dtd"
   xmlns:inkscape="http://www.inkscape.org/namespaces/inkscape"
   sodipodi:docname="&gt;.svg"
   inkscape:version="1.0 (4035a4fb49, 2020-05-01)"
   id="svg8"
   version="1.1"
   viewBox="0 0 1000 1000"
   height="1000"
   width="1000">
  <defs
     id="defs2" />
  <sodipodi:namedview
     inkscape:guide-bbox="true"
     showguides="true"
     inkscape:window-maximized="1"
     inkscape:window-y="1281"
     inkscape:window-x="0"
     inkscape:window-height="997"
     inkscape:window-width="1916"
     inkscape:snap-grids="false"
     inkscape:snap-page="true"
     inkscape:snap-text-baseline="true"
     inkscape:snap-center="true"
     inkscape:snap-object-midpoints="true"
     inkscape:snap-midpoints="true"
     inkscape:snap-smooth-nodes="true"
     inkscape:snap-intersection-paths="true"
     inkscape:object-paths="true"
     inkscape:snap-bbox-midpoints="true"
     inkscape:snap-bbox-edge-midpoints="true"
     inkscape:bbox-nodes="true"
     inkscape:bbox-paths="true"
     inkscape:snap-bbox="true"
     inkscape:pagecheckerboard="true"
     units="px"
     showgrid="true"
     inkscape:document-rotation="0"
     inkscape:current-layer="layer1"
     inkscape:document-units="px"
     inkscape:cy="447.40686"
     inkscape:cx="244.59828"
     inkscape:zoom="1.4638798"
     inkscape:pageshadow="2"
     inkscape:pageopacity="0.0"
     borderopacity="1.0"
     bordercolor="#666666"
     pagecolor="#ffffff"
     id="base">
    <inkscape:grid
       id="grid883"
       type="xygrid" />
    <sodipodi:guide
       inkscape:color="rgb(0,0,255)"
       inkscape:locked="true"
       inkscape:label=""
       id="guide885"
       orientation="0,1"
       position="0,300" />
    <sodipodi:guide
       inkscape:color="rgb(0,0,255)"
       inkscape:locked="true"
       inkscape:label=""
       id="guide887"
       orientation="0,1"
       position="0,700" />
    <sodipodi:guide
       inkscape:color="rgb(0,0,255)"
       inkscape:locked="true"
       inkscape:label=""
       id="guide889"
       orientation="0,1"
       position="0,975" />
    <sodipodi:guide
       inkscape:color="rgb(0,0,255)"
       inkscape:locked="true"
       inkscape:label=""
       id="guide891"
       orientation="0,1"
       position="0,1000" />
    <sodipodi:guide
       inkscape:color="rgb(0,0,255)"
       inkscape:locked="true"
       inkscape:label=""
       id="guide893"
       orientation="0,1"
       position="0,0" />
    <sodipodi:guide
       id="guide921"
       orientation="0,-1"
       position="120,600" />
  </sodipodi:namedview>
  <metadata
     id="metadata5">
    <rdf:RDF>
      <cc:Work
         rdf:about="">
        <dc:format>image/svg+xml</dc:format>
        <dc:type
           rdf:resource="http://purl.org/dc/dcmitype/StillImage" />
        <dc:title />
      </cc:Work>
    </rdf:RDF>
  </metadata>
  <g
     style="display:inline"
     id="layer1"
     inkscape:groupmode="layer"
     inkscape:label="Layer 1">
    <path
       d="M 24.798828,200.00079 A 25,25 0 0 0 2.0957031,214.98126 25,25 0 0 0 14.980469,247.90509 L 362.62695,400.00079 14.980469,552.09649 A 25,25 0 0 0 2.0957031,585.02032 25,25 0 0 0 35.019531,597.90509 L 435.00391,422.91095 a 25,25 0 0 0 0.15625,-0.0703 25,25 0 0 0 0.24218,-0.10742 25,25 0 0 0 0.26563,-0.12304 25,25 0 0 0 0.11523,-0.0547 25,25 0 0 0 0.36328,-0.17774 25,25 0 0 0 0.0156,-0.008 25,25 0 0 0 0.35937,-0.18164 25,25 0 0 0 0.0156,-0.008 25,25 0 0 0 0.35547,-0.18946 25,25 0 0 0 0.0156,-0.008 25,25 0 0 0 0.35352,-0.19531 25,25 0 0 0 0.0137,-0.008 25,25 0 0 0 0.002,-0.002 25,25 0 0 0 0.36328,-0.20898 25,25 0 0 0 0.17579,-0.10352 25,25 0 0 0 0.16992,-0.10351 25,25 0 0 0 0.35156,-0.2168 25,25 0 0 0 0.006,-0.004 25,25 0 0 0 0.0156,-0.01 25,25 0 0 0 0.33984,-0.21875 25,25 0 0 0 0.0137,-0.008 25,25 0 0 0 0.33594,-0.22461 25,25 0 0 0 0.0137,-0.01 25,25 0 0 0 0.33203,-0.22851 25,25 0 0 0 0.0137,-0.01 25,25 0 0 0 0.32813,-0.23633 25,25 0 0 0 0.0117,-0.01 25,25 0 0 0 0.24218,-0.17969 25,25 0 0 0 0.0957,-0.0703 25,25 0 0 0 0.32031,-0.2461 25,25 0 0 0 0.0137,-0.0117 25,25 0 0 0 0.12305,-0.0976 25,25 0 0 0 0.20508,-0.16406 25,25 0 0 0 0.125,-0.10352 25,25 0 0 0 0.19922,-0.16406 25,25 0 0 0 0.30664,-0.26172 25,25 0 0 0 0.0137,-0.0117 25,25 0 0 0 0.30273,-0.26562 25,25 0 0 0 0.0117,-0.0117 25,25 0 0 0 0.15235,-0.13868 25,25 0 0 0 0.1582,-0.14453 25,25 0 0 0 0.29297,-0.27734 25,25 0 0 0 0.0137,-0.0117 25,25 0 0 0 0.28711,-0.2832 25,25 0 0 0 0.0117,-0.0117 25,25 0 0 0 0.28515,-0.28711 25,25 0 0 0 0.0117,-0.0117 25,25 0 0 0 0.2793,-0.29102 25,25 0 0 0 0.0117,-0.0117 25,25 0 0 0 0.27344,-0.29688 25,25 0 0 0 0.0117,-0.0117 25,25 0 0 0 0.0879,-0.0996 25,25 0 0 0 0.4668,-0.5332 25,25 0 0 0 0.25977,-0.30859 25,25 0 0 0 0.01,-0.0137 25,25 0 0 0 0.20508,-0.2539 25,25 0 0 0 0.0586,-0.0723 25,25 0 0 0 0.25,-0.31836 25,25 0 0 0 0.01,-0.0137 25,25 0 0 0 0.24219,-0.32226 25,25 0 0 0 0.01,-0.0137 25,25 0 0 0 0.23828,-0.32617 25,25 0 0 0 0.01,-0.0137 25,25 0 0 0 0.0156,-0.0234 25,25 0 0 0 0.2246,-0.32031 25,25 0 0 0 0.16407,-0.24219 25,25 0 0 0 0.0723,-0.10742 25,25 0 0 0 0.22071,-0.33789 25,25 0 0 0 0.01,-0.0137 25,25 0 0 0 0.21484,-0.3418 25,25 0 0 0 0.008,-0.0137 25,25 0 0 0 0.21094,-0.3457 25,25 0 0 0 0.008,-0.0137 25,25 0 0 0 0.20312,-0.3496 25,25 0 0 0 0.008,-0.0137 25,25 0 0 0 0.19727,-0.35351 25,25 0 0 0 0.008,-0.0137 25,25 0 0 0 0.19336,-0.35547 25,25 0 0 0 0.008,-0.0156 25,25 0 0 0 0.36718,-0.72656 25,25 0 0 0 0.0117,-0.0234 25,25 0 0 0 0.17383,-0.36328 25,25 0 0 0 0.008,-0.0156 25,25 0 0 0 0.16602,-0.36719 25,25 0 0 0 0.008,-0.0156 25,25 0 0 0 0.0605,-0.13867 25,25 0 0 0 0.10547,-0.24609 25,25 0 0 0 0.13671,-0.32813 25,25 0 0 0 0.0254,-0.0605 25,25 0 0 0 0.0566,-0.14063 25,25 0 0 0 0.0976,-0.25 25,25 0 0 0 0.0547,-0.14258 25,25 0 0 0 0.0391,-0.10547 25,25 0 0 0 0.0996,-0.27148 25,25 0 0 0 0.006,-0.0176 25,25 0 0 0 0.0898,-0.25391 25,25 0 0 0 0.0488,-0.14257 25,25 0 0 0 0.0859,-0.25586 25,25 0 0 0 0.0469,-0.14258 25,25 0 0 0 0.0273,-0.0859 25,25 0 0 0 0.0977,-0.3164 25,25 0 0 0 0.10937,-0.36915 25,25 0 0 0 0.01,-0.0332 25,25 0 0 0 0.0723,-0.25976 25,25 0 0 0 0.0391,-0.14649 25,25 0 0 0 0.0684,-0.25976 25,25 0 0 0 0.0371,-0.14649 25,25 0 0 0 0.0645,-0.26172 25,25 0 0 0 0.0137,-0.0625 25,25 0 0 0 0.0488,-0.21484 25,25 0 0 0 0.0566,-0.25391 25,25 0 0 0 0.006,-0.0273 25,25 0 0 0 0.0547,-0.26367 25,25 0 0 0 0.0781,-0.40235 25,25 0 0 0 0.002,-0.01 25,25 0 0 0 0.0274,-0.14844 25,25 0 0 0 0.0137,-0.0781 25,25 0 0 0 0.0527,-0.3125 25,25 0 0 0 0.004,-0.0234 25,25 0 0 0 0.041,-0.26563 25,25 0 0 0 0.0469,-0.32617 25,25 0 0 0 0.0137,-0.0918 25,25 0 0 0 0.008,-0.0625 25,25 0 0 0 0.041,-0.33789 25,25 0 0 0 0.002,-0.0156 25,25 0 0 0 0,-0.008 25,25 0 0 0 0.0449,-0.41016 25,25 0 0 0 0.0312,-0.32617 25,25 0 0 0 0.008,-0.0937 25,25 0 0 0 0.0117,-0.15039 25,25 0 0 0 0.0195,-0.26758 25,25 0 0 0 0.004,-0.0625 25,25 0 0 0 0.0117,-0.22461 25,25 0 0 0 0.0137,-0.28516 25,25 0 0 0 0.0137,-0.39257 25,25 0 0 0 0.002,-0.0274 25,25 0 0 0 0,-0.041 25,25 0 0 0 0.006,-0.37891 25,25 0 0 0 0.002,-0.26953 25,25 0 0 0 0,-0.0508 25,25 0 0 0 -0.002,-0.25196 25,25 0 0 0 -0.006,-0.23242 25,25 0 0 0 0,-0.0371 25,25 0 0 0 -0.008,-0.26757 25,25 0 0 0 -0.004,-0.0645 25,25 0 0 0 -0.0156,-0.35156 25,25 0 0 0 0,-0.004 25,25 0 0 0 0,-0.002 25,25 0 0 0 -0.0254,-0.41797 25,25 0 0 0 -0.0234,-0.31445 25,25 0 0 0 -0.008,-0.10547 25,25 0 0 0 -0.008,-0.0723 25,25 0 0 0 -0.0293,-0.31054 25,25 0 0 0 -0.004,-0.0352 25,25 0 0 0 -0.002,-0.0176 25,25 0 0 0 -0.0449,-0.39844 25,25 0 0 0 0,-0.002 25,25 0 0 0 -0.0391,-0.30859 25,25 0 0 0 -0.0137,-0.10742 25,25 0 0 0 -0.0215,-0.15039 25,25 0 0 0 -0.008,-0.0566 25,25 0 0 0 -0.043,-0.2871 25,25 0 0 0 -0.0117,-0.0723 25,25 0 0 0 -0.0449,-0.26563 25,25 0 0 0 -0.004,-0.0195 25,25 0 0 0 -0.0449,-0.25781 25,25 0 0 0 -0.0508,-0.26172 25,25 0 0 0 -0.004,-0.0234 25,25 0 0 0 -0.0527,-0.26367 25,25 0 0 0 -0.0312,-0.14843 25,25 0 0 0 -0.0137,-0.0586 25,25 0 0 0 -0.0781,-0.35156 25,25 0 0 0 -0.0977,-0.40625 25,25 0 0 0 0,-0.002 25,25 0 0 0 -0.0664,-0.26172 25,25 0 0 0 -0.0957,-0.35938 25,25 0 0 0 -0.0137,-0.0469 25,25 0 0 0 -0.041,-0.14453 25,25 0 0 0 -0.0742,-0.25977 25,25 0 0 0 -0.043,-0.14453 25,25 0 0 0 -0.0801,-0.25781 25,25 0 0 0 0,-0.002 25,25 0 0 0 -0.10743,-0.33007 25,25 0 0 0 -0.0215,-0.0664 25,25 0 0 0 -0.0488,-0.14453 25,25 0 0 0 -0.0879,-0.25391 25,25 0 0 0 -0.0508,-0.14258 25,25 0 0 0 -0.0918,-0.25195 25,25 0 0 0 -0.0137,-0.0332 25,25 0 0 0 -0.13086,-0.34375 25,25 0 0 0 -0.006,-0.0176 25,25 0 0 0 -0.0547,-0.14063 25,25 0 0 0 -0.0293,-0.0723 25,25 0 0 0 -0.12305,-0.30274 25,25 0 0 0 -0.006,-0.0137 25,25 0 0 0 -0.10547,-0.24804 25,25 0 0 0 -0.0605,-0.13868 25,25 0 0 0 -0.006,-0.0156 25,25 0 0 0 -0.0645,-0.14063 25,25 0 0 0 -0.10742,-0.24218 25,25 0 0 0 -0.12304,-0.26563 25,25 0 0 0 -0.0547,-0.11523 25,25 0 0 0 -0.17774,-0.36328 25,25 0 0 0 -0.008,-0.0156 25,25 0 0 0 -0.18164,-0.35937 25,25 0 0 0 -0.008,-0.0156 25,25 0 0 0 -0.18946,-0.35547 25,25 0 0 0 -0.008,-0.0156 25,25 0 0 0 -0.19531,-0.35352 25,25 0 0 0 -0.008,-0.0137 25,25 0 0 0 -0.002,-0.002 25,25 0 0 0 -0.20898,-0.36328 25,25 0 0 0 -0.10352,-0.17579 25,25 0 0 0 -0.10351,-0.16992 25,25 0 0 0 -0.2168,-0.35156 25,25 0 0 0 -0.004,-0.006 25,25 0 0 0 -0.01,-0.0156 25,25 0 0 0 -0.21875,-0.33984 25,25 0 0 0 -0.008,-0.0137 25,25 0 0 0 -0.22461,-0.33594 25,25 0 0 0 -0.01,-0.0137 25,25 0 0 0 -0.22851,-0.33203 25,25 0 0 0 -0.01,-0.0137 25,25 0 0 0 -0.23633,-0.32813 25,25 0 0 0 -0.01,-0.0117 25,25 0 0 0 -0.17969,-0.24218 25,25 0 0 0 -0.0703,-0.0957 25,25 0 0 0 -0.2461,-0.32031 25,25 0 0 0 -0.0117,-0.0137 25,25 0 0 0 -0.0976,-0.12305 25,25 0 0 0 -0.16406,-0.20508 25,25 0 0 0 -0.10352,-0.125 25,25 0 0 0 -0.16406,-0.19922 25,25 0 0 0 -0.26172,-0.30664 25,25 0 0 0 -0.0117,-0.0137 25,25 0 0 0 -0.26562,-0.30273 25,25 0 0 0 -0.0117,-0.0117 25,25 0 0 0 -0.13868,-0.15235 25,25 0 0 0 -0.14453,-0.1582 25,25 0 0 0 -0.27734,-0.29297 25,25 0 0 0 -0.0117,-0.0137 25,25 0 0 0 -0.2832,-0.28711 25,25 0 0 0 -0.0117,-0.0117 25,25 0 0 0 -0.28711,-0.28515 25,25 0 0 0 -0.0117,-0.0117 25,25 0 0 0 -0.29102,-0.2793 25,25 0 0 0 -0.0117,-0.0117 25,25 0 0 0 -0.29688,-0.27344 25,25 0 0 0 -0.0117,-0.0117 25,25 0 0 0 -0.0996,-0.0879 25,25 0 0 0 -0.5332,-0.4668 25,25 0 0 0 -0.30859,-0.25977 25,25 0 0 0 -0.0137,-0.01 25,25 0 0 0 -0.2539,-0.20508 25,25 0 0 0 -0.0723,-0.0586 25,25 0 0 0 -0.31836,-0.25 25,25 0 0 0 -0.0137,-0.01 25,25 0 0 0 -0.32226,-0.24219 25,25 0 0 0 -0.0137,-0.01 25,25 0 0 0 -0.32617,-0.23828 25,25 0 0 0 -0.0137,-0.01 25,25 0 0 0 -0.0234,-0.0156 25,25 0 0 0 -0.32031,-0.2246 25,25 0 0 0 -0.24219,-0.16407 25,25 0 0 0 -0.10742,-0.0723 25,25 0 0 0 -0.33789,-0.22071 25,25 0 0 0 -0.0137,-0.01 25,25 0 0 0 -0.3418,-0.21484 25,25 0 0 0 -0.0137,-0.008 25,25 0 0 0 -0.3457,-0.21094 25,25 0 0 0 -0.0137,-0.008 25,25 0 0 0 -0.3496,-0.20312 25,25 0 0 0 -0.0137,-0.008 25,25 0 0 0 -0.65234,-0.35938 25,25 0 0 0 -0.0703,-0.0391 25,25 0 0 0 -0.0156,-0.008 25,25 0 0 0 -0.35742,-0.18554 25,25 0 0 0 -0.0156,-0.008 25,25 0 0 0 -0.36133,-0.17774 25,25 0 0 0 -0.0156,-0.008 25,25 0 0 0 -0.36328,-0.17383 25,25 0 0 0 -0.0156,-0.008 25,25 0 0 0 -0.36719,-0.16602 25,25 0 0 0 -0.0156,-0.008 25,25 0 0 0 -0.38476,-0.16797 L 35.019531,202.09649 a 25,25 0 0 0 -10.220703,-2.0957 z"
       style="color:#000000;font-style:normal;font-variant:normal;font-weight:normal;font-stretch:normal;font-size:medium;line-height:normal;font-family:sans-serif;font-variant-ligatures:normal;font-variant-position:normal;font-variant-caps:normal;font-variant-numeric:normal;font-variant-alternates:normal;font-variant-east-asian:normal;font-feature-settings:normal;font-variation-settings:normal;text-indent:0;text-align:start;text-decoration:none;text-decoration-line:none;text-decoration-style:solid;text-decoration-color:#000000;letter-spacing:normal;word-spacing:normal;text-transform:none;writing-mode:lr-tb;direction:ltr;text-orientation:mixed;dominant-baseline:auto;baseline-shift:baseline;text-anchor:start;white-space:normal;shape-padding:0;shape-margin:0;inline-size:0;clip-rule:nonzero;display:inline;overflow:visible;visibility:visible;opacity:1;isolation:auto;mix-blend-mode:normal;color-interpolation:sRGB;color-interpolation-filters:linearRGB;solid-color:#000000;solid-opacity:1;vector-effect:none;fill:#000000;fill-opacity:1;fill-rule:nonzero;stroke:none;stroke-width:50;stroke-linecap:round;stroke-linejoin:round;stroke-miterlimit:4;stroke-dasharray:none;stroke-dashoffset:0;stroke-opacity:1;color-rendering:auto;image-rendering:auto;shape-rendering:auto;text-rendering:auto;enable-background:accumulate;stop-color:#000000;stop-opacity:1"
       id="path845" />
  </g>
</svg>
