<?xml version="1.0" encoding="UTF-8" standalone="no"?>
<svg
   xmlns:dc="http://purl.org/dc/elements/1.1/"
   xmlns:cc="http://creativecommons.org/ns#"
   xmlns:rdf="http://www.w3.org/1999/02/22-rdf-syntax-ns#"
   xmlns:svg="http://www.w3.org/2000/svg"
   xmlns="http://www.w3.org/2000/svg"
   xmlns:sodipodi="http://sodipodi.sourceforge.net/DTD/sodipodi-0.dtd"
   xmlns:inkscape="http://www.inkscape.org/namespaces/inkscape"
   sodipodi:docname="@.svg"
   inkscape:version="1.0 (4035a4fb49, 2020-05-01)"
   id="svg8"
   version="1.1"
   viewBox="0 0 1000 1000"
   height="1000"
   width="1000">
  <defs
     id="defs2" />
  <sodipodi:namedview
     inkscape:guide-bbox="true"
     showguides="true"
     inkscape:window-maximized="1"
     inkscape:window-y="1281"
     inkscape:window-x="0"
     inkscape:window-height="997"
     inkscape:window-width="1916"
     inkscape:snap-grids="false"
     inkscape:snap-page="true"
     inkscape:snap-text-baseline="true"
     inkscape:snap-center="true"
     inkscape:snap-object-midpoints="true"
     inkscape:snap-midpoints="true"
     inkscape:snap-smooth-nodes="true"
     inkscape:snap-intersection-paths="true"
     inkscape:object-paths="true"
     inkscape:snap-bbox-midpoints="true"
     inkscape:snap-bbox-edge-midpoints="true"
     inkscape:bbox-nodes="true"
     inkscape:bbox-paths="true"
     inkscape:snap-bbox="true"
     inkscape:pagecheckerboard="true"
     units="px"
     showgrid="true"
     inkscape:document-rotation="0"
     inkscape:current-layer="layer1"
     inkscape:document-units="px"
     inkscape:cy="326.56412"
     inkscape:cx="101.54211"
     inkscape:zoom="0.73193988"
     inkscape:pageshadow="2"
     inkscape:pageopacity="0.0"
     borderopacity="1.0"
     bordercolor="#666666"
     pagecolor="#ffffff"
     id="base"
     inkscape:snap-global="true">
    <inkscape:grid
       id="grid883"
       type="xygrid" />
    <sodipodi:guide
       inkscape:color="rgb(0,0,255)"
       inkscape:locked="true"
       inkscape:label=""
       id="guide885"
       orientation="0,1"
       position="0,300" />
    <sodipodi:guide
       inkscape:color="rgb(0,0,255)"
       inkscape:locked="true"
       inkscape:label=""
       id="guide887"
       orientation="0,1"
       position="0,700" />
    <sodipodi:guide
       inkscape:color="rgb(0,0,255)"
       inkscape:locked="true"
       inkscape:label=""
       id="guide889"
       orientation="0,1"
       position="0,975" />
    <sodipodi:guide
       inkscape:color="rgb(0,0,255)"
       inkscape:locked="true"
       inkscape:label=""
       id="guide891"
       orientation="0,1"
       position="0,1000" />
    <sodipodi:guide
       inkscape:color="rgb(0,0,255)"
       inkscape:locked="true"
       inkscape:label=""
       id="guide893"
       orientation="0,1"
       position="0,0" />
    <sodipodi:guide
       id="guide921"
       orientation="0,-1"
       position="120,600" />
  </sodipodi:namedview>
  <metadata
     id="metadata5">
    <rdf:RDF>
      <cc:Work
         rdf:about="">
        <dc:format>image/svg+xml</dc:format>
        <dc:type
           rdf:resource="http://purl.org/dc/dcmitype/StillImage" />
        <dc:title />
      </cc:Work>
    </rdf:RDF>
  </metadata>
  <g
     style="display:inline"
     id="layer1"
     inkscape:groupmode="layer"
     inkscape:label="Layer 1">
    <path
       d="M 337.5 25 C 151.40001 25 3.7895613e-14 176.40001 0 362.5 C 6.1293364e-14 548.59999 151.40001 700 337.5 700 A 25 25 0 0 0 362.5 675 A 25 25 0 0 0 337.5 650 C 178.42202 650 50 521.57798 50 362.5 C 50 203.42202 178.42202 75 337.5 75 C 496.57798 75 625 203.42202 625 362.5 L 625 493.62305 C 625 537.82963 591.22482 572.26757 550 572.26758 C 508.77518 572.26757 475 537.82963 475 493.62305 L 475 368.64453 A 25.000003 25.000003 0 0 0 475 368.62305 L 475 243.62305 A 25.000003 25.000003 0 0 0 450 218.62305 A 25.000003 25.000003 0 0 0 425 243.62305 L 425 257.04492 C 398.42344 233.1813 363.34488 218.62305 325 218.62305 C 242.45342 218.62305 175 286.07645 175 368.62305 C 175 451.16966 242.45342 518.62305 325 518.62305 C 363.3449 518.62305 398.42371 504.06288 425 480.19922 L 425 493.45508 A 25 25 0 0 0 425 493.62305 A 25.000003 25.000003 0 0 0 425.00586 494.16797 C 425.2939 564.20188 480.9473 622.26757 550 622.26758 C 619.03854 622.26757 674.68152 564.22559 674.99219 494.21094 A 25 25 0 0 0 675 493.62305 L 675 362.66797 A 25 25 0 0 0 675 362.5 C 675 176.40001 523.59999 25 337.5 25 z M 325 268.62305 C 380.52458 268.62305 425 313.09846 425 368.62305 C 425 424.14765 380.52458 468.62305 325 468.62305 C 269.47543 468.62305 225 424.14765 225 368.62305 C 225 313.09846 269.47543 268.62305 325 268.62305 z "
       style="color:#000000;font-style:normal;font-variant:normal;font-weight:normal;font-stretch:normal;font-size:medium;line-height:normal;font-family:sans-serif;font-variant-ligatures:normal;font-variant-position:normal;font-variant-caps:normal;font-variant-numeric:normal;font-variant-alternates:normal;font-variant-east-asian:normal;font-feature-settings:normal;font-variation-settings:normal;text-indent:0;text-align:start;text-decoration:none;text-decoration-line:none;text-decoration-style:solid;text-decoration-color:#000000;letter-spacing:normal;word-spacing:normal;text-transform:none;writing-mode:lr-tb;direction:ltr;text-orientation:mixed;dominant-baseline:auto;baseline-shift:baseline;text-anchor:start;white-space:normal;shape-padding:0;shape-margin:0;inline-size:0;clip-rule:nonzero;display:inline;overflow:visible;visibility:visible;isolation:auto;mix-blend-mode:normal;color-interpolation:sRGB;color-interpolation-filters:linearRGB;solid-color:#000000;solid-opacity:1;vector-effect:none;fill:#000000;fill-opacity:1;fill-rule:nonzero;stroke:none;stroke-width:50;stroke-linecap:round;stroke-linejoin:round;stroke-miterlimit:4;stroke-dasharray:none;stroke-dashoffset:0;stroke-opacity:1;paint-order:stroke fill markers;color-rendering:auto;image-rendering:auto;shape-rendering:auto;text-rendering:auto;enable-background:accumulate;stop-color:#000000"
       id="path858" />
  </g>
</svg>
