<?xml version="1.0" encoding="UTF-8" standalone="no"?>
<svg
   xmlns:dc="http://purl.org/dc/elements/1.1/"
   xmlns:cc="http://creativecommons.org/ns#"
   xmlns:rdf="http://www.w3.org/1999/02/22-rdf-syntax-ns#"
   xmlns:svg="http://www.w3.org/2000/svg"
   xmlns="http://www.w3.org/2000/svg"
   xmlns:sodipodi="http://sodipodi.sourceforge.net/DTD/sodipodi-0.dtd"
   xmlns:inkscape="http://www.inkscape.org/namespaces/inkscape"
   width="1000"
   height="1000"
   viewBox="0 0 1000 1000"
   version="1.1"
   id="svg8"
   inkscape:version="1.0 (4035a4fb49, 2020-05-01)"
   sodipodi:docname="C.svg">
  <defs
     id="defs2" />
  <sodipodi:namedview
     id="base"
     pagecolor="#ffffff"
     bordercolor="#666666"
     borderopacity="1.0"
     inkscape:pageopacity="0.0"
     inkscape:pageshadow="2"
     inkscape:zoom="0.36596994"
     inkscape:cx="762.34322"
     inkscape:cy="160.20003"
     inkscape:document-units="px"
     inkscape:current-layer="layer1"
     inkscape:document-rotation="0"
     showgrid="true"
     units="px"
     inkscape:pagecheckerboard="true"
     inkscape:snap-bbox="true"
     inkscape:bbox-paths="true"
     inkscape:bbox-nodes="true"
     inkscape:snap-bbox-edge-midpoints="true"
     inkscape:snap-bbox-midpoints="true"
     inkscape:object-paths="true"
     inkscape:snap-intersection-paths="true"
     inkscape:snap-smooth-nodes="true"
     inkscape:snap-midpoints="true"
     inkscape:snap-object-midpoints="true"
     inkscape:snap-center="true"
     inkscape:snap-text-baseline="true"
     inkscape:snap-page="true"
     inkscape:snap-grids="false"
     inkscape:window-width="1916"
     inkscape:window-height="957"
     inkscape:window-x="0"
     inkscape:window-y="1321"
     inkscape:window-maximized="1"
     showguides="true"
     inkscape:guide-bbox="true">
    <inkscape:grid
       type="xygrid"
       id="grid883" />
    <sodipodi:guide
       position="0,300"
       orientation="0,1"
       id="guide885"
       inkscape:label=""
       inkscape:locked="true"
       inkscape:color="rgb(0,0,255)" />
    <sodipodi:guide
       position="0,700"
       orientation="0,1"
       id="guide887"
       inkscape:label=""
       inkscape:locked="true"
       inkscape:color="rgb(0,0,255)" />
    <sodipodi:guide
       position="0,975"
       orientation="0,1"
       id="guide889"
       inkscape:label=""
       inkscape:locked="true"
       inkscape:color="rgb(0,0,255)" />
    <sodipodi:guide
       position="0,1000"
       orientation="0,1"
       id="guide891"
       inkscape:label=""
       inkscape:locked="true"
       inkscape:color="rgb(0,0,255)" />
    <sodipodi:guide
       position="0,0"
       orientation="0,1"
       id="guide893"
       inkscape:label=""
       inkscape:locked="true"
       inkscape:color="rgb(0,0,255)" />
    <sodipodi:guide
       position="120,600"
       orientation="0,-1"
       id="guide921" />
  </sodipodi:namedview>
  <metadata
     id="metadata5">
    <rdf:RDF>
      <cc:Work
         rdf:about="">
        <dc:format>image/svg+xml</dc:format>
        <dc:type
           rdf:resource="http://purl.org/dc/dcmitype/StillImage" />
        <dc:title></dc:title>
      </cc:Work>
    </rdf:RDF>
  </metadata>
  <g
     inkscape:label="Layer 1"
     inkscape:groupmode="layer"
     id="layer1"
     style="display:inline">
    <g
       transform="matrix(0.13333334,0,0,-0.13333334,-0.70000003,1100.1646)"
       fill="#000000"
       stroke="none"
       id="g6">
      <path
         d="m 3160,9743 c -210,-20 -268,-27 -364,-43 C 2337,9620 1900,9445 1515,9188 1115,8921 828,8635 561,8235 264,7789 84,7293 18,6735 1,6592 1,6158 18,6015 57,5685 134,5383 251,5098 501,4489 934,3954 1470,3591 c 604,-409 1290,-611 2000,-588 833,27 1582,334 2206,903 122,112 154,165 154,256 0,146 -104,250 -250,249 -79,0 -125,-25 -230,-124 -389,-368 -899,-631 -1418,-731 -229,-44 -306,-51 -567,-50 -205,0 -276,5 -395,23 -322,49 -574,128 -865,271 -574,281 -1023,730 -1305,1305 -136,277 -206,488 -255,770 -163,936 130,1862 799,2531 281,280 580,480 949,633 530,220 1143,268 1731,136 479,-108 960,-366 1326,-712 105,-99 151,-124 230,-124 146,-1 250,103 250,249 0,91 -32,144 -154,256 -253,231 -510,407 -801,551 -411,203 -786,306 -1245,345 -107,9 -390,11 -470,3 z"
         id="path4" />
    </g>
  </g>
</svg>
