<?xml version="1.0" encoding="UTF-8" standalone="no"?>
<svg
   xmlns:dc="http://purl.org/dc/elements/1.1/"
   xmlns:cc="http://creativecommons.org/ns#"
   xmlns:rdf="http://www.w3.org/1999/02/22-rdf-syntax-ns#"
   xmlns:svg="http://www.w3.org/2000/svg"
   xmlns="http://www.w3.org/2000/svg"
   xmlns:sodipodi="http://sodipodi.sourceforge.net/DTD/sodipodi-0.dtd"
   xmlns:inkscape="http://www.inkscape.org/namespaces/inkscape"
   sodipodi:docname="e.svg"
   inkscape:version="1.0 (4035a4fb49, 2020-05-01)"
   id="svg8"
   version="1.1"
   viewBox="0 0 1000 1000"
   height="1000"
   width="1000">
  <defs
     id="defs2" />
  <sodipodi:namedview
     inkscape:guide-bbox="true"
     showguides="true"
     inkscape:window-maximized="1"
     inkscape:window-y="1281"
     inkscape:window-x="0"
     inkscape:window-height="997"
     inkscape:window-width="1916"
     inkscape:snap-grids="false"
     inkscape:snap-page="true"
     inkscape:snap-text-baseline="true"
     inkscape:snap-center="true"
     inkscape:snap-object-midpoints="true"
     inkscape:snap-midpoints="true"
     inkscape:snap-smooth-nodes="true"
     inkscape:snap-intersection-paths="true"
     inkscape:object-paths="true"
     inkscape:snap-bbox-midpoints="true"
     inkscape:snap-bbox-edge-midpoints="true"
     inkscape:bbox-nodes="true"
     inkscape:bbox-paths="true"
     inkscape:snap-bbox="true"
     inkscape:pagecheckerboard="true"
     units="px"
     showgrid="true"
     inkscape:document-rotation="0"
     inkscape:current-layer="layer1"
     inkscape:document-units="px"
     inkscape:cy="521.33695"
     inkscape:cx="422.43209"
     inkscape:zoom="1.0351193"
     inkscape:pageshadow="2"
     inkscape:pageopacity="0.0"
     borderopacity="1.0"
     bordercolor="#666666"
     pagecolor="#ffffff"
     id="base">
    <inkscape:grid
       id="grid883"
       type="xygrid" />
    <sodipodi:guide
       inkscape:color="rgb(0,0,255)"
       inkscape:locked="true"
       inkscape:label=""
       id="guide885"
       orientation="0,1"
       position="0,300" />
    <sodipodi:guide
       inkscape:color="rgb(0,0,255)"
       inkscape:locked="true"
       inkscape:label=""
       id="guide887"
       orientation="0,1"
       position="0,700" />
    <sodipodi:guide
       inkscape:color="rgb(0,0,255)"
       inkscape:locked="true"
       inkscape:label=""
       id="guide889"
       orientation="0,1"
       position="0,975" />
    <sodipodi:guide
       inkscape:color="rgb(0,0,255)"
       inkscape:locked="true"
       inkscape:label=""
       id="guide891"
       orientation="0,1"
       position="0,1000" />
    <sodipodi:guide
       inkscape:color="rgb(0,0,255)"
       inkscape:locked="true"
       inkscape:label=""
       id="guide893"
       orientation="0,1"
       position="0,0" />
    <sodipodi:guide
       id="guide921"
       orientation="0,-1"
       position="120,600" />
  </sodipodi:namedview>
  <metadata
     id="metadata5">
    <rdf:RDF>
      <cc:Work
         rdf:about="">
        <dc:format>image/svg+xml</dc:format>
        <dc:type
           rdf:resource="http://purl.org/dc/dcmitype/StillImage" />
        <dc:title />
      </cc:Work>
    </rdf:RDF>
  </metadata>
  <g
     style="display:inline"
     id="layer1"
     inkscape:groupmode="layer"
     inkscape:label="Layer 1">
    <path
       d="M 200 300 C 173.56628 300 148.30883 305.18514 125.17578 314.57031 C 124.64835 314.78191 124.12361 315.00054 123.59766 315.2168 C 122.96667 315.47912 122.33476 315.73923 121.70703 316.00781 C 98.744084 325.72772 77.247223 339.90903 58.578125 358.57812 C 39.899937 377.25631 25.712866 398.76471 15.992188 421.74023 C 15.751124 422.30393 15.517261 422.87119 15.28125 423.4375 C 15.030227 424.04646 14.777973 424.65468 14.533203 425.26562 C 5.2408418 448.20212 0.084013464 473.22656 0.0078125 499.41211 C 0.0077726287 499.42581 0.0078495919 499.43942 0.0078125 499.45312 A 25 25 0 0 0 0 500 A 25 25 0 0 0 0.0078125 500.56641 C 0.081251163 526.75977 5.238295 551.7916 14.533203 574.73438 C 14.777973 575.34532 15.030227 575.95354 15.28125 576.5625 C 15.517261 577.12881 15.751124 577.69607 15.992188 578.25977 C 25.712866 601.23529 39.899937 622.74369 58.578125 641.42188 C 80.431895 663.27564 106.83662 679.54051 135.55859 689.31836 C 135.76123 689.38766 135.9631 689.45868 136.16602 689.52734 C 137.2754 689.90104 138.38974 690.26095 139.50586 690.61523 C 140.05042 690.78882 140.59407 690.96379 141.14062 691.13281 C 141.90291 691.36761 142.66834 691.59264 143.43359 691.81836 C 144.34657 692.08866 145.25943 692.35772 146.17773 692.61523 C 146.59423 692.73165 147.01237 692.84135 147.42969 692.95508 C 148.64973 693.28861 149.87246 693.61694 151.10156 693.92773 C 151.30486 693.97901 151.50941 694.02553 151.71289 694.07617 C 153.12527 694.42854 154.54288 694.76782 155.9668 695.08984 C 156.03318 695.10483 156.09961 695.11984 156.16602 695.13477 C 157.70558 695.48127 159.25016 695.8105 160.80273 696.12109 C 165.5902 697.07882 170.43756 697.8673 175.33984 698.47461 C 176.96306 698.6757 178.59174 698.8598 180.22656 699.02148 C 180.22914 699.02174 180.2318 699.02123 180.23438 699.02148 C 180.26103 699.02413 180.28779 699.02666 180.31445 699.0293 C 181.90158 699.18556 183.4942 699.32274 185.0918 699.44141 C 185.38174 699.46308 185.67276 699.47763 185.96289 699.49805 C 187.30208 699.59166 188.6421 699.68113 189.98828 699.74805 C 190.71821 699.78463 191.45065 699.80343 192.18164 699.83203 C 193.11099 699.86807 194.03821 699.91234 194.9707 699.93555 C 196.64491 699.97765 198.32113 700 200 700 A 25 25 0 0 0 200.54883 699.99219 C 253.38425 699.84711 304.05096 678.79262 341.42188 641.42188 A 25 25 0 0 0 341.42188 606.06641 A 25 25 0 0 0 306.06641 606.06641 C 277.92918 634.20351 239.79196 649.99999 200 650 C 198.7565 650 197.5154 649.98387 196.27539 649.95312 C 195.08037 649.92349 193.88663 649.88026 192.69531 649.82227 C 192.65046 649.82008 192.6054 649.81863 192.56055 649.81641 C 192.5586 649.81631 192.55663 649.8165 192.55469 649.81641 C 155.47635 647.97652 120.3108 632.44361 93.933594 606.06641 C 80.2007 592.33351 69.678209 576.64854 62.361328 559.92383 C 62.3133 559.81306 62.264566 559.70271 62.216797 559.5918 C 61.911231 558.88869 61.618464 558.18129 61.324219 557.47461 C 61.018553 556.73366 60.712082 555.99304 60.417969 555.24609 C 60.385344 555.16403 60.352786 555.08211 60.320312 555 C 56.57852 545.44733 53.794609 535.40705 52.064453 525 L 375 525 A 25 25 0 0 0 375.41992 524.99609 A 25 25 0 0 0 400 500 A 25 25 0 0 0 399.99219 499.45117 C 399.84779 446.8201 378.94997 396.3463 341.84961 359.01758 C 341.84408 359.01202 341.83951 359.00556 341.83398 359 A 25 25 0 0 0 341.42188 358.57812 C 340.23233 357.38858 339.02862 356.2169 337.8125 355.06055 C 337.11035 354.39258 336.39704 353.74367 335.6875 353.08789 C 335.18336 352.62226 334.68618 352.1475 334.17773 351.6875 C 332.97297 350.59666 331.75622 349.52495 330.53125 348.46875 C 329.28291 347.3924 328.02255 346.3353 326.75391 345.29492 C 325.48123 344.25124 324.19866 343.22818 322.90625 342.2207 C 321.61057 341.21068 320.30504 340.21973 318.99023 339.24609 C 316.35143 337.29202 313.67451 335.41297 310.96289 333.60547 C 309.65474 332.73349 308.33779 331.87889 307.01367 331.04102 C 306.96002 331.00706 306.9072 330.9714 306.85352 330.9375 C 306.8367 330.92688 306.81955 330.91687 306.80273 330.90625 C 305.54349 330.11165 304.27698 329.3341 303.00391 328.57031 C 302.86293 328.48562 302.7232 328.39879 302.58203 328.31445 C 301.49233 327.66437 300.39627 327.02991 299.29688 326.40234 C 298.90747 326.17965 298.51972 325.9544 298.12891 325.73438 C 297.29585 325.26632 296.45749 324.81067 295.61914 324.35547 C 294.92767 323.97911 294.23669 323.60245 293.54102 323.23438 C 293.02676 322.96303 292.51027 322.6982 291.99414 322.43164 C 290.95519 321.89347 289.91314 321.3615 288.86523 320.8418 C 288.68396 320.75221 288.50181 320.66518 288.32031 320.57617 C 261.0917 307.17494 230.91335 300.00001 200 300 z M 200 350 C 238.53803 350.00001 275.52407 364.81671 303.37695 391.31055 C 303.38464 391.31786 303.39271 391.32472 303.40039 391.33203 C 304.29689 392.18633 305.18572 393.05291 306.06641 393.93359 C 328.23954 416.10674 342.74172 444.49087 347.89648 475 L 52.064453 475 C 53.794609 464.59295 56.57852 454.55267 60.320312 445 C 60.352786 444.91789 60.385344 444.83597 60.417969 444.75391 C 60.712082 444.00696 61.018553 443.26634 61.324219 442.52539 C 61.618464 441.81871 61.911231 441.11131 62.216797 440.4082 C 62.264566 440.29729 62.3133 440.18694 62.361328 440.07617 C 69.678209 423.35146 80.2007 407.66649 93.933594 393.93359 C 107.66649 380.2007 123.35146 369.67821 140.07617 362.36133 C 140.18694 362.3133 140.29729 362.26457 140.4082 362.2168 C 141.11131 361.91123 141.81871 361.61846 142.52539 361.32422 C 143.26634 361.01855 144.00696 360.71208 144.75391 360.41797 C 144.83597 360.38534 144.91789 360.35279 145 360.32031 C 162.01268 353.65642 180.56098 350 200 350 z "
       style="color:#000000;font-style:normal;font-variant:normal;font-weight:normal;font-stretch:normal;font-size:medium;line-height:normal;font-family:sans-serif;font-variant-ligatures:normal;font-variant-position:normal;font-variant-caps:normal;font-variant-numeric:normal;font-variant-alternates:normal;font-variant-east-asian:normal;font-feature-settings:normal;font-variation-settings:normal;text-indent:0;text-align:start;text-decoration:none;text-decoration-line:none;text-decoration-style:solid;text-decoration-color:#000000;letter-spacing:normal;word-spacing:normal;text-transform:none;writing-mode:lr-tb;direction:ltr;text-orientation:mixed;dominant-baseline:auto;baseline-shift:baseline;text-anchor:start;white-space:normal;shape-padding:0;shape-margin:0;inline-size:0;clip-rule:nonzero;display:inline;overflow:visible;visibility:visible;isolation:auto;mix-blend-mode:normal;color-interpolation:sRGB;color-interpolation-filters:linearRGB;solid-color:#000000;solid-opacity:1;vector-effect:none;fill:#000000;fill-opacity:1;fill-rule:nonzero;stroke:none;stroke-width:50;stroke-linecap:round;stroke-linejoin:round;stroke-miterlimit:4;stroke-dasharray:none;stroke-dashoffset:0;stroke-opacity:1;paint-order:stroke fill markers;color-rendering:auto;image-rendering:auto;shape-rendering:auto;text-rendering:auto;enable-background:accumulate;stop-color:#000000;stop-opacity:1;opacity:1"
       id="path850" />
  </g>
</svg>
