<?xml version="1.0" encoding="UTF-8" standalone="no"?>
<svg
   xmlns:dc="http://purl.org/dc/elements/1.1/"
   xmlns:cc="http://creativecommons.org/ns#"
   xmlns:rdf="http://www.w3.org/1999/02/22-rdf-syntax-ns#"
   xmlns:svg="http://www.w3.org/2000/svg"
   xmlns="http://www.w3.org/2000/svg"
   xmlns:sodipodi="http://sodipodi.sourceforge.net/DTD/sodipodi-0.dtd"
   xmlns:inkscape="http://www.inkscape.org/namespaces/inkscape"
   sodipodi:docname="G.svg"
   inkscape:version="1.0 (4035a4fb49, 2020-05-01)"
   id="svg8"
   version="1.1"
   viewBox="0 0 1000 1000"
   height="1000"
   width="1000">
  <defs
     id="defs2" />
  <sodipodi:namedview
     inkscape:guide-bbox="true"
     showguides="true"
     inkscape:window-maximized="1"
     inkscape:window-y="1281"
     inkscape:window-x="0"
     inkscape:window-height="997"
     inkscape:window-width="1916"
     inkscape:snap-grids="false"
     inkscape:snap-page="true"
     inkscape:snap-text-baseline="true"
     inkscape:snap-center="true"
     inkscape:snap-object-midpoints="true"
     inkscape:snap-midpoints="true"
     inkscape:snap-smooth-nodes="true"
     inkscape:snap-intersection-paths="true"
     inkscape:object-paths="true"
     inkscape:snap-bbox-midpoints="true"
     inkscape:snap-bbox-edge-midpoints="true"
     inkscape:bbox-nodes="true"
     inkscape:bbox-paths="true"
     inkscape:snap-bbox="true"
     inkscape:pagecheckerboard="true"
     units="px"
     showgrid="true"
     inkscape:document-rotation="0"
     inkscape:current-layer="layer1"
     inkscape:document-units="px"
     inkscape:cy="344.78057"
     inkscape:cx="745.14223"
     inkscape:zoom="0.51755965"
     inkscape:pageshadow="2"
     inkscape:pageopacity="0.0"
     borderopacity="1.0"
     bordercolor="#666666"
     pagecolor="#ffffff"
     id="base">
    <inkscape:grid
       id="grid883"
       type="xygrid" />
    <sodipodi:guide
       inkscape:color="rgb(0,0,255)"
       inkscape:locked="true"
       inkscape:label=""
       id="guide885"
       orientation="0,1"
       position="0,300" />
    <sodipodi:guide
       inkscape:color="rgb(0,0,255)"
       inkscape:locked="true"
       inkscape:label=""
       id="guide887"
       orientation="0,1"
       position="0,700" />
    <sodipodi:guide
       inkscape:color="rgb(0,0,255)"
       inkscape:locked="true"
       inkscape:label=""
       id="guide889"
       orientation="0,1"
       position="0,975" />
    <sodipodi:guide
       inkscape:color="rgb(0,0,255)"
       inkscape:locked="true"
       inkscape:label=""
       id="guide891"
       orientation="0,1"
       position="0,1000" />
    <sodipodi:guide
       inkscape:color="rgb(0,0,255)"
       inkscape:locked="true"
       inkscape:label=""
       id="guide893"
       orientation="0,1"
       position="0,0" />
    <sodipodi:guide
       id="guide921"
       orientation="0,-1"
       position="120,600" />
  </sodipodi:namedview>
  <metadata
     id="metadata5">
    <rdf:RDF>
      <cc:Work
         rdf:about="">
        <dc:format>image/svg+xml</dc:format>
        <dc:type
           rdf:resource="http://purl.org/dc/dcmitype/StillImage" />
        <dc:title />
      </cc:Work>
    </rdf:RDF>
  </metadata>
  <g
     style="display:inline"
     id="layer1"
     inkscape:groupmode="layer"
     inkscape:label="Layer 1">
    <path
       d="M 337.5 25 C 151.40001 25 -2.9775998e-06 176.40001 0 362.5 C 6.1293364e-14 548.59999 151.40001 700 337.5 700 C 426.89128 700.00001 512.64964 664.52022 575.91406 601.37891 C 575.92222 601.37077 575.9313 601.36361 575.93945 601.35547 A 25 25 0 0 0 576.14844 601.14844 A 25 25 0 0 0 576.23828 601.05859 A 25 25 0 0 0 576.44336 600.84961 A 25 25 0 0 0 576.53125 600.75781 A 25 25 0 0 0 576.73242 600.54492 A 25 25 0 0 0 576.81836 600.45117 A 25 25 0 0 0 577.01758 600.23438 A 25 25 0 0 0 577.10156 600.14062 A 25 25 0 0 0 577.15625 600.08008 A 25 25 0 0 0 577.37891 599.82422 A 25 25 0 0 0 577.57031 599.60156 A 25 25 0 0 0 577.65234 599.50391 A 25 25 0 0 0 577.70898 599.43359 A 25 25 0 0 0 577.9082 599.18945 A 25 25 0 0 0 577.91797 599.17969 A 25 25 0 0 0 578.10156 598.94922 A 25 25 0 0 0 578.17969 598.84961 A 25 25 0 0 0 578.35938 598.61719 A 25 25 0 0 0 578.43555 598.51758 A 25 25 0 0 0 578.61133 598.28125 A 25 25 0 0 0 578.68555 598.17969 A 25 25 0 0 0 578.85742 597.93945 A 25 25 0 0 0 579.06641 597.64062 A 25 25 0 0 0 579.09766 597.5957 A 25 25 0 0 0 579.16992 597.49023 A 25 25 0 0 0 579.22852 597.40234 A 25 25 0 0 0 579.39648 597.15039 A 25 25 0 0 0 579.40234 597.14062 A 25 25 0 0 0 579.5625 596.89258 A 25 25 0 0 0 579.62891 596.78711 A 25 25 0 0 0 579.65234 596.74805 A 25 25 0 0 0 579.84961 596.42969 A 25 25 0 0 0 580.00195 596.17578 A 25 25 0 0 0 580.06445 596.06836 A 25 25 0 0 0 580.07227 596.05273 A 25 25 0 0 0 580.27148 595.70508 A 25 25 0 0 0 580.27344 595.70312 A 25 25 0 0 0 580.41602 595.44531 A 25 25 0 0 0 580.47656 595.33398 A 25 25 0 0 0 580.61523 595.07422 A 25 25 0 0 0 580.67383 594.96289 A 25 25 0 0 0 580.80664 594.70117 A 25 25 0 0 0 580.86328 594.58789 A 25 25 0 0 0 580.99219 594.32422 A 25 25 0 0 0 581.04688 594.20898 A 25 25 0 0 0 581.17188 593.94336 A 25 25 0 0 0 581.22461 593.82812 A 25 25 0 0 0 581.34375 593.56055 A 25 25 0 0 0 581.39453 593.44336 A 25 25 0 0 0 581.54688 593.08789 A 25 25 0 0 0 581.56055 593.05664 A 25 25 0 0 0 581.58203 593.00391 A 25 25 0 0 0 581.7168 592.66797 A 25 25 0 0 0 581.82422 592.39258 A 25 25 0 0 0 581.86914 592.27539 A 25 25 0 0 0 581.9707 592 A 25 25 0 0 0 582.01367 591.88086 A 25 25 0 0 0 582.11133 591.60352 A 25 25 0 0 0 582.15234 591.48438 A 25 25 0 0 0 582.24414 591.20508 A 25 25 0 0 0 582.2832 591.08398 A 25 25 0 0 0 582.37109 590.80273 A 25 25 0 0 0 582.4082 590.68164 A 25 25 0 0 0 582.42773 590.61328 A 25 25 0 0 0 582.52539 590.2793 A 25 25 0 0 0 582.60352 589.99609 A 25 25 0 0 0 582.63672 589.87305 A 25 25 0 0 0 582.66211 589.77539 A 25 25 0 0 0 582.74023 589.4668 A 25 25 0 0 0 582.83789 589.05664 A 25 25 0 0 0 582.90234 588.76953 A 25 25 0 0 0 582.9043 588.75586 A 25 25 0 0 0 582.96484 588.46875 A 25 25 0 0 0 582.98828 588.35742 A 25 25 0 0 0 583.01172 588.23438 A 25 25 0 0 0 583.06641 587.94531 A 25 25 0 0 0 583.06836 587.93555 A 25 25 0 0 0 583.11914 587.64844 A 25 25 0 0 0 583.13867 587.53125 A 25 25 0 0 0 583.1582 587.40625 A 25 25 0 0 0 583.16406 587.37109 A 25 25 0 0 0 583.2207 586.99023 A 25 25 0 0 0 583.27344 586.60352 A 25 25 0 0 0 583.27734 586.57422 A 25 25 0 0 0 583.3125 586.28125 A 25 25 0 0 0 583.32617 586.15625 A 25 25 0 0 0 583.35547 585.86328 A 25 25 0 0 0 583.36719 585.73828 A 25 25 0 0 0 583.39258 585.44531 A 25 25 0 0 0 583.40234 585.31836 A 25 25 0 0 0 583.42188 585.02539 A 25 25 0 0 0 583.42969 584.90039 A 25 25 0 0 0 583.44531 584.60547 A 25 25 0 0 0 583.44727 584.56641 A 25 25 0 0 0 583.45508 584.35156 A 25 25 0 0 0 583.46289 584.05859 A 25 25 0 0 0 583.46875 583.76562 A 25 25 0 0 0 583.46875 583.73633 A 25 25 0 0 0 583.4707 583.4707 A 25 25 0 0 0 583.4707 583.34375 L 583.4707 400 A 25.0025 25.0025 0 0 0 558.4707 375 L 483.4707 375 A 25 25 0 0 0 458.4707 400 A 25 25 0 0 0 483.4707 425 L 533.4707 425 L 533.4707 572.83203 C 480.34523 622.33438 410.36687 650.00001 337.5 650 C 178.42202 650 50 521.57798 50 362.5 C 49.999997 203.42202 178.42202 75 337.5 75 C 413.75938 74.999989 486.86945 105.2835 540.79297 159.20703 A 25 25 0 0 0 576.14844 159.20703 A 25 25 0 0 0 576.14844 123.85156 C 512.86169 60.564787 427.001 24.999987 337.5 25 z "
       style="color:#000000;font-style:normal;font-variant:normal;font-weight:normal;font-stretch:normal;font-size:medium;line-height:normal;font-family:sans-serif;font-variant-ligatures:normal;font-variant-position:normal;font-variant-caps:normal;font-variant-numeric:normal;font-variant-alternates:normal;font-variant-east-asian:normal;font-feature-settings:normal;font-variation-settings:normal;text-indent:0;text-align:start;text-decoration:none;text-decoration-line:none;text-decoration-style:solid;text-decoration-color:#000000;letter-spacing:normal;word-spacing:normal;text-transform:none;writing-mode:lr-tb;direction:ltr;text-orientation:mixed;dominant-baseline:auto;baseline-shift:baseline;text-anchor:start;white-space:normal;shape-padding:0;shape-margin:0;inline-size:0;clip-rule:nonzero;display:inline;overflow:visible;visibility:visible;isolation:auto;mix-blend-mode:normal;color-interpolation:sRGB;color-interpolation-filters:linearRGB;solid-color:#000000;solid-opacity:1;vector-effect:none;fill:#000000;fill-opacity:1;fill-rule:nonzero;stroke:none;stroke-width:50;stroke-linecap:round;stroke-linejoin:round;stroke-miterlimit:4;stroke-dasharray:none;stroke-dashoffset:0;stroke-opacity:1;paint-order:markers stroke fill;color-rendering:auto;image-rendering:auto;shape-rendering:auto;text-rendering:auto;enable-background:accumulate;stop-color:#000000;stop-opacity:1;opacity:1"
       id="path845" />
  </g>
</svg>
