<?xml version="1.0" encoding="UTF-8" standalone="no"?>
<svg
   xmlns:dc="http://purl.org/dc/elements/1.1/"
   xmlns:cc="http://creativecommons.org/ns#"
   xmlns:rdf="http://www.w3.org/1999/02/22-rdf-syntax-ns#"
   xmlns:svg="http://www.w3.org/2000/svg"
   xmlns="http://www.w3.org/2000/svg"
   xmlns:sodipodi="http://sodipodi.sourceforge.net/DTD/sodipodi-0.dtd"
   xmlns:inkscape="http://www.inkscape.org/namespaces/inkscape"
   width="1000"
   height="1000"
   viewBox="0 0 1000 1000"
   version="1.1"
   id="svg8"
   inkscape:version="1.0 (4035a4fb49, 2020-05-01)"
   sodipodi:docname="l.svg">
  <defs
     id="defs2" />
  <sodipodi:namedview
     id="base"
     pagecolor="#ffffff"
     bordercolor="#666666"
     borderopacity="1.0"
     inkscape:pageopacity="0.0"
     inkscape:pageshadow="2"
     inkscape:zoom="0.73193988"
     inkscape:cx="533.23249"
     inkscape:cy="468.25542"
     inkscape:document-units="px"
     inkscape:current-layer="layer1"
     inkscape:document-rotation="0"
     showgrid="true"
     units="px"
     inkscape:pagecheckerboard="true"
     inkscape:snap-bbox="true"
     inkscape:bbox-paths="true"
     inkscape:bbox-nodes="true"
     inkscape:snap-bbox-edge-midpoints="true"
     inkscape:snap-bbox-midpoints="true"
     inkscape:object-paths="true"
     inkscape:snap-intersection-paths="true"
     inkscape:snap-smooth-nodes="true"
     inkscape:snap-midpoints="true"
     inkscape:snap-object-midpoints="true"
     inkscape:snap-center="true"
     inkscape:snap-text-baseline="true"
     inkscape:snap-page="true"
     inkscape:snap-grids="false"
     inkscape:window-width="1916"
     inkscape:window-height="997"
     inkscape:window-x="0"
     inkscape:window-y="1281"
     inkscape:window-maximized="1"
     showguides="true"
     inkscape:guide-bbox="true">
    <inkscape:grid
       type="xygrid"
       id="grid883" />
    <sodipodi:guide
       position="0,300"
       orientation="0,1"
       id="guide885"
       inkscape:label=""
       inkscape:locked="true"
       inkscape:color="rgb(0,0,255)" />
    <sodipodi:guide
       position="0,700"
       orientation="0,1"
       id="guide887"
       inkscape:label=""
       inkscape:locked="true"
       inkscape:color="rgb(0,0,255)" />
    <sodipodi:guide
       position="0,975"
       orientation="0,1"
       id="guide889"
       inkscape:label=""
       inkscape:locked="true"
       inkscape:color="rgb(0,0,255)" />
    <sodipodi:guide
       position="0,1000"
       orientation="0,1"
       id="guide891"
       inkscape:label=""
       inkscape:locked="true"
       inkscape:color="rgb(0,0,255)" />
    <sodipodi:guide
       position="0,0"
       orientation="0,1"
       id="guide893"
       inkscape:label=""
       inkscape:locked="true"
       inkscape:color="rgb(0,0,255)" />
    <sodipodi:guide
       position="120,600"
       orientation="0,-1"
       id="guide921" />
  </sodipodi:namedview>
  <metadata
     id="metadata5">
    <rdf:RDF>
      <cc:Work
         rdf:about="">
        <dc:format>image/svg+xml</dc:format>
        <dc:type
           rdf:resource="http://purl.org/dc/dcmitype/StillImage" />
        <dc:title />
      </cc:Work>
    </rdf:RDF>
  </metadata>
  <g
     inkscape:label="Layer 1"
     inkscape:groupmode="layer"
     id="layer1"
     style="display:inline">
    <path
       id="path840"
       d="M 24.816406 25.351562 A 25.0025 25.0025 0 0 0 23.976562 25.371094 A 25.0025 25.0025 0 0 0 22.298828 25.498047 A 25.0025 25.0025 0 0 0 21.464844 25.601562 A 25.0025 25.0025 0 0 0 21.048828 25.666016 A 25.0025 25.0025 0 0 0 20.220703 25.8125 A 25.0025 25.0025 0 0 0 19.808594 25.896484 A 25.0025 25.0025 0 0 0 19.398438 25.986328 A 25.0025 25.0025 0 0 0 18.990234 26.083984 A 25.0025 25.0025 0 0 0 16.972656 26.675781 A 25.0025 25.0025 0 0 0 16.576172 26.8125 A 25.0025 25.0025 0 0 0 14.246094 27.78125 A 25.0025 25.0025 0 0 0 13.869141 27.964844 A 25.0025 25.0025 0 0 0 13.123047 28.351562 A 25.0025 25.0025 0 0 0 12.388672 28.763672 A 25.0025 25.0025 0 0 0 12.027344 28.978516 A 25.0025 25.0025 0 0 0 11.669922 29.201172 A 25.0025 25.0025 0 0 0 11.316406 29.427734 A 25.0025 25.0025 0 0 0 10.966797 29.660156 A 25.0025 25.0025 0 0 0 10.621094 29.900391 A 25.0025 25.0025 0 0 0 10.279297 30.144531 A 25.0025 25.0025 0 0 0 9.9414062 30.394531 A 25.0025 25.0025 0 0 0 9.6074219 30.650391 A 25.0025 25.0025 0 0 0 8.953125 31.179688 A 25.0025 25.0025 0 0 0 8.6328125 31.453125 A 25.0025 25.0025 0 0 0 8.3183594 31.730469 A 25.0025 25.0025 0 0 0 8.0078125 32.013672 A 25.0025 25.0025 0 0 0 7.7011719 32.300781 A 25.0025 25.0025 0 0 0 6.8125 33.197266 A 25.0025 25.0025 0 0 0 6.5273438 33.505859 A 25.0025 25.0025 0 0 0 6.2460938 33.818359 A 25.0025 25.0025 0 0 0 4.4335938 36.134766 A 25.0025 25.0025 0 0 0 3.7421875 37.191406 A 25.0025 25.0025 0 0 0 2.1699219 40.160156 A 25.0025 25.0025 0 0 0 1.6835938 41.324219 A 25.0025 25.0025 0 0 0 1.2597656 42.511719 A 25.0025 25.0025 0 0 0 1.1308594 42.912109 A 25.0025 25.0025 0 0 0 1.0078125 43.314453 A 25.0025 25.0025 0 0 0 0.89453125 43.71875 A 25.0025 25.0025 0 0 0 0.68359375 44.533203 A 25.0025 25.0025 0 0 0 0.58984375 44.943359 A 25.0025 25.0025 0 0 0 0.50195312 45.355469 A 25.0025 25.0025 0 0 0 0.421875 45.767578 A 25.0025 25.0025 0 0 0 0.34765625 46.181641 A 25.0025 25.0025 0 0 0 0.28125 46.597656 A 25.0025 25.0025 0 0 0 0.22070312 47.013672 A 25.0025 25.0025 0 0 0 0.12304688 47.847656 A 25.0025 25.0025 0 0 0 0.01171875 49.525391 A 25.0025 25.0025 0 0 0 0 50 L 0 675 A 25.0025 25.0025 0 0 0 0.009765625 675.41992 A 25.0025 25.0025 0 0 0 0.048828125 676.25977 A 25.0025 25.0025 0 0 0 0.1171875 677.09766 A 25.0025 25.0025 0 0 0 0.21484375 677.93359 A 25.0025 25.0025 0 0 0 0.2734375 678.34961 A 25.0025 25.0025 0 0 0 0.41210938 679.17969 A 25.0025 25.0025 0 0 0 0.671875 680.41406 A 25.0025 25.0025 0 0 0 0.77148438 680.82227 A 25.0025 25.0025 0 0 0 1.2421875 682.4375 A 25.0025 25.0025 0 0 0 1.8203125 684.01562 A 25.0025 25.0025 0 0 0 1.9804688 684.4043 A 25.0025 25.0025 0 0 0 2.1484375 684.79102 A 25.0025 25.0025 0 0 0 2.5019531 685.55273 A 25.0025 25.0025 0 0 0 2.6875 685.92969 A 25.0025 25.0025 0 0 0 2.8808594 686.30273 A 25.0025 25.0025 0 0 0 5.9355469 690.82227 A 25.0025 25.0025 0 0 0 6.2109375 691.14062 A 25.0025 25.0025 0 0 0 6.4902344 691.45508 A 25.0025 25.0025 0 0 0 6.7753906 691.76367 A 25.0025 25.0025 0 0 0 7.6621094 692.66016 A 25.0025 25.0025 0 0 0 7.9667969 692.94922 A 25.0025 25.0025 0 0 0 9.5644531 694.31641 A 25.0025 25.0025 0 0 0 10.234375 694.82422 A 25.0025 25.0025 0 0 0 10.921875 695.30859 A 25.0025 25.0025 0 0 0 11.271484 695.54297 A 25.0025 25.0025 0 0 0 11.625 695.77148 A 25.0025 25.0025 0 0 0 11.982422 695.99219 A 25.0025 25.0025 0 0 0 12.707031 696.41797 A 25.0025 25.0025 0 0 0 13.074219 696.62109 A 25.0025 25.0025 0 0 0 13.447266 696.82031 A 25.0025 25.0025 0 0 0 13.820312 697.00977 A 25.0025 25.0025 0 0 0 14.580078 697.37305 A 25.0025 25.0025 0 0 0 15.349609 697.71094 A 25.0025 25.0025 0 0 0 16.130859 698.02344 A 25.0025 25.0025 0 0 0 18.53125 698.79688 A 25.0025 25.0025 0 0 0 18.9375 698.90234 A 25.0025 25.0025 0 0 0 19.345703 699.00195 A 25.0025 25.0025 0 0 0 20.167969 699.17773 A 25.0025 25.0025 0 0 0 21.828125 699.44727 A 25.0025 25.0025 0 0 0 22.664062 699.53906 A 25.0025 25.0025 0 0 0 27.283203 699.54492 A 25.0025 25.0025 0 0 0 27.701172 699.50195 A 25.0025 25.0025 0 0 0 28.119141 699.45312 A 25.0025 25.0025 0 0 0 28.535156 699.39844 A 25.0025 25.0025 0 0 0 29.365234 699.26562 A 25.0025 25.0025 0 0 0 29.779297 699.1875 A 25.0025 25.0025 0 0 0 31.009766 698.91602 A 25.0025 25.0025 0 0 0 32.226562 698.58203 A 25.0025 25.0025 0 0 0 32.628906 698.45703 A 25.0025 25.0025 0 0 0 33.027344 698.32422 A 25.0025 25.0025 0 0 0 33.423828 698.1875 A 25.0025 25.0025 0 0 0 34.601562 697.73242 A 25.0025 25.0025 0 0 0 36.130859 697.03516 A 25.0025 25.0025 0 0 0 36.505859 696.84375 A 25.0025 25.0025 0 0 0 36.876953 696.64844 A 25.0025 25.0025 0 0 0 37.972656 696.02148 A 25.0025 25.0025 0 0 0 38.330078 695.79883 A 25.0025 25.0025 0 0 0 39.033203 695.33984 A 25.0025 25.0025 0 0 0 41.367188 693.54688 A 25.0025 25.0025 0 0 0 41.681641 693.26953 A 25.0025 25.0025 0 0 0 41.992188 692.98633 A 25.0025 25.0025 0 0 0 43.472656 691.49414 A 25.0025 25.0025 0 0 0 44.029297 690.86328 A 25.0025 25.0025 0 0 0 47.287109 685.97852 A 25.0025 25.0025 0 0 0 47.65625 685.2207 A 25.0025 25.0025 0 0 0 47.998047 684.45312 A 25.0025 25.0025 0 0 0 48.605469 682.88477 A 25.0025 25.0025 0 0 0 48.740234 682.48828 A 25.0025 25.0025 0 0 0 48.992188 681.68555 A 25.0025 25.0025 0 0 0 49.105469 681.28125 A 25.0025 25.0025 0 0 0 49.316406 680.4668 A 25.0025 25.0025 0 0 0 49.410156 680.05664 A 25.0025 25.0025 0 0 0 49.779297 677.98633 A 25.0025 25.0025 0 0 0 49.876953 677.15234 A 25.0025 25.0025 0 0 0 49.947266 676.31445 A 25.0025 25.0025 0 0 0 49.970703 675.89453 A 25.0025 25.0025 0 0 0 50 675 L 50 50 A 25.0025 25.0025 0 0 0 49.990234 49.580078 A 25.0025 25.0025 0 0 0 49.951172 48.740234 A 25.0025 25.0025 0 0 0 49.919922 48.320312 A 25.0025 25.0025 0 0 0 49.837891 47.484375 A 25.0025 25.0025 0 0 0 49.785156 47.066406 A 25.0025 25.0025 0 0 0 49.660156 46.234375 A 25.0025 25.0025 0 0 0 49.587891 45.820312 A 25.0025 25.0025 0 0 0 49.507812 45.408203 A 25.0025 25.0025 0 0 0 49.421875 44.996094 A 25.0025 25.0025 0 0 0 49.328125 44.585938 A 25.0025 25.0025 0 0 0 49.228516 44.177734 A 25.0025 25.0025 0 0 0 49.121094 43.771484 A 25.0025 25.0025 0 0 0 49.005859 43.367188 A 25.0025 25.0025 0 0 0 48.884766 42.964844 A 25.0025 25.0025 0 0 0 48.757812 42.5625 A 25.0025 25.0025 0 0 0 48.623047 42.164062 A 25.0025 25.0025 0 0 0 48.333984 41.375 A 25.0025 25.0025 0 0 0 48.179688 40.984375 A 25.0025 25.0025 0 0 0 47.677734 39.826172 A 25.0025 25.0025 0 0 0 47.498047 39.447266 A 25.0025 25.0025 0 0 0 47.3125 39.070312 A 25.0025 25.0025 0 0 0 47.119141 38.697266 A 25.0025 25.0025 0 0 0 46.919922 38.326172 A 25.0025 25.0025 0 0 0 46.714844 37.958984 A 25.0025 25.0025 0 0 0 46.285156 37.236328 A 25.0025 25.0025 0 0 0 46.0625 36.880859 A 25.0025 25.0025 0 0 0 45.832031 36.527344 A 25.0025 25.0025 0 0 0 44.855469 35.158203 A 25.0025 25.0025 0 0 0 44.064453 34.177734 A 25.0025 25.0025 0 0 0 43.224609 33.236328 A 25.0025 25.0025 0 0 0 42.933594 32.931641 A 25.0025 25.0025 0 0 0 42.638672 32.632812 A 25.0025 25.0025 0 0 0 42.337891 32.339844 A 25.0025 25.0025 0 0 0 42.033203 32.050781 A 25.0025 25.0025 0 0 0 41.087891 31.214844 A 25.0025 25.0025 0 0 0 40.435547 30.683594 A 25.0025 25.0025 0 0 0 40.101562 30.427734 A 25.0025 25.0025 0 0 0 39.078125 29.691406 A 25.0025 25.0025 0 0 0 38.728516 29.457031 A 25.0025 25.0025 0 0 0 38.375 29.228516 A 25.0025 25.0025 0 0 0 38.017578 29.007812 A 25.0025 25.0025 0 0 0 36.925781 28.378906 A 25.0025 25.0025 0 0 0 36.179688 27.990234 A 25.0025 25.0025 0 0 0 35.800781 27.804688 A 25.0025 25.0025 0 0 0 34.261719 27.128906 A 25.0025 25.0025 0 0 0 33.869141 26.976562 A 25.0025 25.0025 0 0 0 33.078125 26.691406 A 25.0025 25.0025 0 0 0 30.654297 25.998047 A 25.0025 25.0025 0 0 0 30.244141 25.90625 A 25.0025 25.0025 0 0 0 28.587891 25.609375 A 25.0025 25.0025 0 0 0 27.753906 25.503906 A 25.0025 25.0025 0 0 0 26.917969 25.423828 A 25.0025 25.0025 0 0 0 24.816406 25.351562 z "
       style="color:#000000;font-style:normal;font-variant:normal;font-weight:normal;font-stretch:normal;font-size:medium;line-height:normal;font-family:sans-serif;font-variant-ligatures:normal;font-variant-position:normal;font-variant-caps:normal;font-variant-numeric:normal;font-variant-alternates:normal;font-variant-east-asian:normal;font-feature-settings:normal;font-variation-settings:normal;text-indent:0;text-align:start;text-decoration:none;text-decoration-line:none;text-decoration-style:solid;text-decoration-color:#000000;letter-spacing:normal;word-spacing:normal;text-transform:none;writing-mode:lr-tb;direction:ltr;text-orientation:mixed;dominant-baseline:auto;baseline-shift:baseline;text-anchor:start;white-space:normal;shape-padding:0;shape-margin:0;inline-size:0;clip-rule:nonzero;display:inline;overflow:visible;visibility:visible;isolation:auto;mix-blend-mode:normal;color-interpolation:sRGB;color-interpolation-filters:linearRGB;solid-color:#000000;solid-opacity:1;vector-effect:none;fill:#000000;fill-opacity:1;fill-rule:nonzero;stroke:none;stroke-width:50;stroke-linecap:round;stroke-linejoin:round;stroke-miterlimit:4;stroke-dasharray:none;stroke-dashoffset:0;stroke-opacity:1;color-rendering:auto;image-rendering:auto;shape-rendering:auto;text-rendering:auto;enable-background:accumulate;stop-color:#000000;stop-opacity:1;opacity:1" />
  </g>
</svg>
