<?xml version="1.0" encoding="UTF-8" standalone="no"?>
<svg
   xmlns:dc="http://purl.org/dc/elements/1.1/"
   xmlns:cc="http://creativecommons.org/ns#"
   xmlns:rdf="http://www.w3.org/1999/02/22-rdf-syntax-ns#"
   xmlns:svg="http://www.w3.org/2000/svg"
   xmlns="http://www.w3.org/2000/svg"
   xmlns:sodipodi="http://sodipodi.sourceforge.net/DTD/sodipodi-0.dtd"
   xmlns:inkscape="http://www.inkscape.org/namespaces/inkscape"
   sodipodi:docname="w.svg"
   inkscape:version="1.0 (4035a4fb49, 2020-05-01)"
   id="svg8"
   version="1.1"
   viewBox="0 0 1000 1000"
   height="1000"
   width="1000">
  <defs
     id="defs2" />
  <sodipodi:namedview
     inkscape:guide-bbox="true"
     showguides="true"
     inkscape:window-maximized="1"
     inkscape:window-y="1281"
     inkscape:window-x="0"
     inkscape:window-height="997"
     inkscape:window-width="1916"
     inkscape:snap-grids="false"
     inkscape:snap-page="true"
     inkscape:snap-text-baseline="true"
     inkscape:snap-center="true"
     inkscape:snap-object-midpoints="true"
     inkscape:snap-midpoints="true"
     inkscape:snap-smooth-nodes="true"
     inkscape:snap-intersection-paths="true"
     inkscape:object-paths="true"
     inkscape:snap-bbox-midpoints="true"
     inkscape:snap-bbox-edge-midpoints="true"
     inkscape:bbox-nodes="true"
     inkscape:bbox-paths="true"
     inkscape:snap-bbox="true"
     inkscape:pagecheckerboard="true"
     units="px"
     showgrid="true"
     inkscape:document-rotation="0"
     inkscape:current-layer="layer1"
     inkscape:document-units="px"
     inkscape:cy="403.60054"
     inkscape:cx="358.31605"
     inkscape:zoom="1.0351193"
     inkscape:pageshadow="2"
     inkscape:pageopacity="0.0"
     borderopacity="1.0"
     bordercolor="#666666"
     pagecolor="#ffffff"
     id="base">
    <inkscape:grid
       id="grid883"
       type="xygrid" />
    <sodipodi:guide
       inkscape:color="rgb(0,0,255)"
       inkscape:locked="true"
       inkscape:label=""
       id="guide885"
       orientation="0,1"
       position="0,300" />
    <sodipodi:guide
       inkscape:color="rgb(0,0,255)"
       inkscape:locked="true"
       inkscape:label=""
       id="guide887"
       orientation="0,1"
       position="0,700" />
    <sodipodi:guide
       inkscape:color="rgb(0,0,255)"
       inkscape:locked="true"
       inkscape:label=""
       id="guide889"
       orientation="0,1"
       position="0,975" />
    <sodipodi:guide
       inkscape:color="rgb(0,0,255)"
       inkscape:locked="true"
       inkscape:label=""
       id="guide891"
       orientation="0,1"
       position="0,1000" />
    <sodipodi:guide
       inkscape:color="rgb(0,0,255)"
       inkscape:locked="true"
       inkscape:label=""
       id="guide893"
       orientation="0,1"
       position="0,0" />
    <sodipodi:guide
       id="guide921"
       orientation="0,-1"
       position="120,600" />
  </sodipodi:namedview>
  <metadata
     id="metadata5">
    <rdf:RDF>
      <cc:Work
         rdf:about="">
        <dc:format>image/svg+xml</dc:format>
        <dc:type
           rdf:resource="http://purl.org/dc/dcmitype/StillImage" />
        <dc:title />
      </cc:Work>
    </rdf:RDF>
  </metadata>
  <g
     style="display:inline"
     id="layer1"
     inkscape:groupmode="layer"
     inkscape:label="Layer 1">
    <path
       d="M 25.136719 300 A 25 25 0 0 0 15.152344 302.02148 A 25 25 0 0 0 2.0214844 334.84766 L 151.99805 684.79102 L 152.02148 684.84766 A 25 25 0 0 0 152.10742 685.04492 A 25 25 0 0 0 152.17773 685.20508 A 25 25 0 0 0 152.18945 685.23242 A 25 25 0 0 0 152.33984 685.55859 A 25 25 0 0 0 152.50195 685.90039 A 25 25 0 0 0 152.52539 685.94727 A 25 25 0 0 0 152.60156 686.09961 A 25 25 0 0 0 152.73633 686.36914 A 25 25 0 0 0 152.92773 686.73828 A 25 25 0 0 0 152.93555 686.75391 A 25 25 0 0 0 153.13086 687.11328 A 25 25 0 0 0 153.31641 687.44141 A 25 25 0 0 0 153.39258 687.57227 A 25 25 0 0 0 153.54883 687.83789 A 25 25 0 0 0 153.56641 687.86719 A 25 25 0 0 0 153.76562 688.19336 A 25 25 0 0 0 153.76953 688.19922 A 25 25 0 0 0 153.96094 688.50195 A 25 25 0 0 0 153.99414 688.55469 A 25 25 0 0 0 154.19141 688.85547 A 25 25 0 0 0 154.34961 689.08984 A 25 25 0 0 0 154.44336 689.22852 A 25 25 0 0 0 154.53906 689.36328 A 25 25 0 0 0 154.66797 689.54688 A 25 25 0 0 0 154.70508 689.59766 A 25 25 0 0 0 154.91602 689.88672 A 25 25 0 0 0 154.95312 689.93555 A 25 25 0 0 0 155.20703 690.27148 A 25 25 0 0 0 155.45898 690.5918 A 25 25 0 0 0 155.48047 690.61719 A 25 25 0 0 0 156.00195 691.25 A 25 25 0 0 0 156.24805 691.53516 A 25 25 0 0 0 156.27734 691.56836 A 25 25 0 0 0 156.51758 691.83398 A 25 25 0 0 0 156.73438 692.06836 A 25 25 0 0 0 156.83789 692.17969 A 25 25 0 0 0 156.8457 692.1875 A 25 25 0 0 0 157.09375 692.44531 A 25 25 0 0 0 157.13672 692.49023 A 25 25 0 0 0 157.39062 692.74414 A 25 25 0 0 0 157.65234 693 A 25 25 0 0 0 157.71094 693.05859 A 25 25 0 0 0 157.8418 693.18164 A 25 25 0 0 0 158.0332 693.36133 A 25 25 0 0 0 158.04297 693.36914 A 25 25 0 0 0 158.30664 693.60938 A 25 25 0 0 0 158.61133 693.87891 A 25 25 0 0 0 158.625 693.89062 A 25 25 0 0 0 158.66992 693.92969 A 25 25 0 0 0 158.94336 694.16016 A 25 25 0 0 0 159.20312 694.375 A 25 25 0 0 0 159.30859 694.46094 A 25 25 0 0 0 159.31641 694.4668 A 25 25 0 0 0 159.5957 694.68945 A 25 25 0 0 0 159.87891 694.9082 A 25 25 0 0 0 159.94141 694.95508 A 25 25 0 0 0 159.97852 694.98438 A 25 25 0 0 0 160.26758 695.19727 A 25 25 0 0 0 160.60938 695.44141 A 25 25 0 0 0 160.95508 695.68164 A 25 25 0 0 0 161.00586 695.7168 A 25 25 0 0 0 161.30469 695.91406 A 25 25 0 0 0 161.55078 696.07227 A 25 25 0 0 0 161.68359 696.1582 A 25 25 0 0 0 161.82812 696.24805 A 25 25 0 0 0 162.01562 696.36328 A 25 25 0 0 0 162.06836 696.39453 A 25 25 0 0 0 162.38281 696.58203 A 25 25 0 0 0 162.72656 696.7793 A 25 25 0 0 0 162.74219 696.78906 A 25 25 0 0 0 163.01367 696.9375 A 25 25 0 0 0 163.14648 697.00977 A 25 25 0 0 0 163.24609 697.0625 A 25 25 0 0 0 163.51562 697.20508 A 25 25 0 0 0 163.61133 697.25391 A 25 25 0 0 0 163.85547 697.37891 A 25 25 0 0 0 163.91211 697.40625 A 25 25 0 0 0 164.23438 697.5625 A 25 25 0 0 0 164.5332 697.70117 A 25 25 0 0 0 164.61523 697.74023 A 25 25 0 0 0 164.67188 697.76562 A 25 25 0 0 0 164.99805 697.91211 A 25 25 0 0 0 165.05469 697.9375 A 25 25 0 0 0 165.15234 697.97852 A 25 25 0 0 0 165.54102 698.14062 A 25 25 0 0 0 165.87891 698.27539 A 25 25 0 0 0 166.11328 698.36523 A 25 25 0 0 0 166.27148 698.42578 A 25 25 0 0 0 166.44922 698.49023 A 25 25 0 0 0 166.68164 698.57422 A 25 25 0 0 0 166.81836 698.62109 A 25 25 0 0 0 167.08398 698.71289 A 25 25 0 0 0 167.19336 698.74805 A 25 25 0 0 0 167.50586 698.84961 A 25 25 0 0 0 167.51758 698.85352 A 25 25 0 0 0 167.81836 698.94531 A 25 25 0 0 0 168.22266 699.0625 A 25 25 0 0 0 168.54102 699.15039 A 25 25 0 0 0 168.66016 699.18164 A 25 25 0 0 0 168.73047 699.20117 A 25 25 0 0 0 169.03516 699.27734 A 25 25 0 0 0 169.39062 699.36133 A 25 25 0 0 0 169.46289 699.37891 A 25 25 0 0 0 169.75391 699.44141 A 25 25 0 0 0 169.89648 699.47266 A 25 25 0 0 0 169.95898 699.48633 A 25 25 0 0 0 170.26758 699.54688 A 25 25 0 0 0 170.68164 699.62305 A 25 25 0 0 0 170.99219 699.67578 A 25 25 0 0 0 171.19141 699.70703 A 25 25 0 0 0 171.21484 699.71094 A 25 25 0 0 0 171.61133 699.76953 A 25 25 0 0 0 171.61523 699.76953 A 25 25 0 0 0 171.62695 699.77148 A 25 25 0 0 0 172.0332 699.82227 A 25 25 0 0 0 172.35742 699.85938 A 25 25 0 0 0 172.54492 699.87695 A 25 25 0 0 0 172.86914 699.9082 A 25 25 0 0 0 173.2207 699.93555 A 25 25 0 0 0 173.49219 699.95312 A 25 25 0 0 0 173.64062 699.96289 A 25 25 0 0 0 173.91406 699.97461 A 25 25 0 0 0 174.07812 699.98242 A 25 25 0 0 0 174.12891 699.98438 A 25 25 0 0 0 174.65234 699.99609 A 25 25 0 0 0 174.96875 700 A 25 25 0 0 0 175.07422 699.99805 A 25 25 0 0 0 175.2832 699.99805 A 25 25 0 0 0 175.38867 699.99609 A 25 25 0 0 0 175.80859 699.98633 A 25 25 0 0 0 175.81055 699.98633 A 25 25 0 0 0 175.81445 699.98633 A 25 25 0 0 0 176.22852 699.96875 A 25 25 0 0 0 176.23047 699.96875 A 25 25 0 0 0 176.54492 699.95117 A 25 25 0 0 0 176.96289 699.92188 A 25 25 0 0 0 177.06836 699.91406 A 25 25 0 0 0 177.17773 699.9043 A 25 25 0 0 0 177.48828 699.875 A 25 25 0 0 0 177.80078 699.8418 A 25 25 0 0 0 177.90625 699.83008 A 25 25 0 0 0 178.21875 699.79102 A 25 25 0 0 0 178.32227 699.77734 A 25 25 0 0 0 178.63477 699.73438 A 25 25 0 0 0 178.73828 699.71875 A 25 25 0 0 0 179.05078 699.66992 A 25 25 0 0 0 179.1543 699.65234 A 25 25 0 0 0 179.46484 699.59766 A 25 25 0 0 0 179.56836 699.57812 A 25 25 0 0 0 179.58789 699.57422 A 25 25 0 0 0 179.97266 699.5 A 25 25 0 0 0 179.98047 699.49805 A 25 25 0 0 0 180.28906 699.43359 A 25 25 0 0 0 180.55078 699.375 A 25 25 0 0 0 180.80078 699.31641 A 25 25 0 0 0 181.10742 699.24219 A 25 25 0 0 0 181.20898 699.2168 A 25 25 0 0 0 181.32617 699.18555 A 25 25 0 0 0 181.61719 699.10742 A 25 25 0 0 0 181.91992 699.02344 A 25 25 0 0 0 182.02148 698.99414 A 25 25 0 0 0 182.32227 698.90234 A 25 25 0 0 0 182.67188 698.79297 A 25 25 0 0 0 182.72266 698.77734 A 25 25 0 0 0 182.82422 698.74414 A 25 25 0 0 0 183.12305 698.64258 A 25 25 0 0 0 183.36328 698.55859 A 25 25 0 0 0 183.61719 698.4668 A 25 25 0 0 0 184.00586 698.32031 A 25 25 0 0 0 184.01172 698.31836 A 25 25 0 0 0 184.30469 698.20312 A 25 25 0 0 0 184.40234 698.16406 A 25 25 0 0 0 184.4707 698.13477 A 25 25 0 0 0 184.79102 698.00195 A 25 25 0 0 0 185.04492 697.89258 A 25 25 0 0 0 185.17578 697.83594 A 25 25 0 0 0 185.23242 697.81055 A 25 25 0 0 0 185.55859 697.66016 A 25 25 0 0 0 185.90039 697.49805 A 25 25 0 0 0 185.9375 697.48047 A 25 25 0 0 0 185.99414 697.45312 A 25 25 0 0 0 186.09961 697.39844 A 25 25 0 0 0 186.36914 697.26367 A 25 25 0 0 0 186.6875 697.09961 A 25 25 0 0 0 186.74219 697.07031 A 25 25 0 0 0 186.75391 697.06445 A 25 25 0 0 0 187.11328 696.86914 A 25 25 0 0 0 187.42383 696.69336 A 25 25 0 0 0 187.47852 696.66211 A 25 25 0 0 0 187.78711 696.48242 A 25 25 0 0 0 187.8418 696.44922 A 25 25 0 0 0 188.14648 696.26367 A 25 25 0 0 0 188.19922 696.23047 A 25 25 0 0 0 188.50195 696.03906 A 25 25 0 0 0 188.55469 696.00586 A 25 25 0 0 0 188.85547 695.80859 A 25 25 0 0 0 188.90625 695.77539 A 25 25 0 0 0 189.20312 695.57422 A 25 25 0 0 0 189.25391 695.53906 A 25 25 0 0 0 189.54688 695.33203 A 25 25 0 0 0 189.59766 695.29492 A 25 25 0 0 0 189.88672 695.08398 A 25 25 0 0 0 189.93555 695.04688 A 25 25 0 0 0 190.27148 694.79297 A 25 25 0 0 0 190.55273 694.57227 A 25 25 0 0 0 190.60156 694.5332 A 25 25 0 0 0 190.61719 694.51953 A 25 25 0 0 0 191.25 693.99805 A 25 25 0 0 0 191.52148 693.76367 A 25 25 0 0 0 191.56836 693.72266 A 25 25 0 0 0 191.83398 693.48242 A 25 25 0 0 0 192.06836 693.26562 A 25 25 0 0 0 192.14258 693.19727 A 25 25 0 0 0 192.1875 693.1543 A 25 25 0 0 0 192.44531 692.90625 A 25 25 0 0 0 192.49023 692.86328 A 25 25 0 0 0 192.74414 692.60938 A 25 25 0 0 0 193 692.34766 A 25 25 0 0 0 193.03906 692.30859 A 25 25 0 0 0 193.08203 692.26367 A 25 25 0 0 0 193.32617 692.00391 A 25 25 0 0 0 193.36914 691.95703 A 25 25 0 0 0 193.60938 691.69336 A 25 25 0 0 0 193.65234 691.64648 A 25 25 0 0 0 193.88867 691.37695 A 25 25 0 0 0 193.92969 691.33008 A 25 25 0 0 0 194.16016 691.05664 A 25 25 0 0 0 194.375 690.79688 A 25 25 0 0 0 194.42773 690.73242 A 25 25 0 0 0 194.4668 690.68359 A 25 25 0 0 0 194.68945 690.4043 A 25 25 0 0 0 194.72852 690.35547 A 25 25 0 0 0 194.94727 690.07031 A 25 25 0 0 0 194.98438 690.02148 A 25 25 0 0 0 195.19727 689.73242 A 25 25 0 0 0 195.44141 689.39062 A 25 25 0 0 0 195.68164 689.04492 A 25 25 0 0 0 195.7168 688.99414 A 25 25 0 0 0 195.91406 688.69531 A 25 25 0 0 0 195.94922 688.64258 A 25 25 0 0 0 196.14258 688.3418 A 25 25 0 0 0 196.17578 688.28906 A 25 25 0 0 0 196.36328 687.98438 A 25 25 0 0 0 196.39453 687.93164 A 25 25 0 0 0 196.57812 687.62305 A 25 25 0 0 0 196.60938 687.57031 A 25 25 0 0 0 196.78711 687.25977 A 25 25 0 0 0 196.81836 687.20508 A 25 25 0 0 0 196.99023 686.89062 A 25 25 0 0 0 197.01953 686.83594 A 25 25 0 0 0 197.1875 686.51953 A 25 25 0 0 0 197.2168 686.46289 A 25 25 0 0 0 197.37891 686.14453 A 25 25 0 0 0 197.40625 686.08789 A 25 25 0 0 0 197.42578 686.04688 A 25 25 0 0 0 197.5625 685.76562 A 25 25 0 0 0 197.70117 685.4668 A 25 25 0 0 0 197.74023 685.38477 A 25 25 0 0 0 197.76562 685.32812 A 25 25 0 0 0 197.91211 685.00195 A 25 25 0 0 0 197.9375 684.94531 A 25 25 0 0 0 197.99219 684.81641 L 325 388.46484 L 452.02148 684.84766 A 25 25 0 0 0 452.10742 685.04492 A 25 25 0 0 0 452.17773 685.20508 A 25 25 0 0 0 452.18945 685.23242 A 25 25 0 0 0 452.33984 685.55859 A 25 25 0 0 0 452.50195 685.90039 A 25 25 0 0 0 452.52539 685.94727 A 25 25 0 0 0 452.60156 686.09961 A 25 25 0 0 0 452.92773 686.73828 A 25 25 0 0 0 452.93555 686.75391 A 25 25 0 0 0 453.31641 687.44141 A 25 25 0 0 0 453.39258 687.57227 A 25 25 0 0 0 453.54883 687.83789 A 25 25 0 0 0 453.56641 687.86719 A 25 25 0 0 0 453.76562 688.19336 A 25 25 0 0 0 453.76953 688.19922 A 25 25 0 0 0 453.96094 688.50195 A 25 25 0 0 0 453.99414 688.55469 A 25 25 0 0 0 454.19141 688.85547 A 25 25 0 0 0 454.34961 689.08984 A 25 25 0 0 0 454.44336 689.22852 A 25 25 0 0 0 454.53906 689.36328 A 25 25 0 0 0 454.66797 689.54688 A 25 25 0 0 0 454.70508 689.59766 A 25 25 0 0 0 454.91602 689.88672 A 25 25 0 0 0 454.95312 689.93555 A 25 25 0 0 0 455.45898 690.5918 A 25 25 0 0 0 455.48047 690.61719 A 25 25 0 0 0 456.24805 691.53516 A 25 25 0 0 0 456.27734 691.56836 A 25 25 0 0 0 456.51758 691.83398 A 25 25 0 0 0 456.73438 692.06836 A 25 25 0 0 0 456.83789 692.17969 A 25 25 0 0 0 456.8457 692.1875 A 25 25 0 0 0 457.09375 692.44531 A 25 25 0 0 0 457.13672 692.49023 A 25 25 0 0 0 457.39062 692.74414 A 25 25 0 0 0 457.65234 693 A 25 25 0 0 0 457.71094 693.05859 A 25 25 0 0 0 457.8418 693.18164 A 25 25 0 0 0 458.0332 693.36133 A 25 25 0 0 0 458.04297 693.36914 A 25 25 0 0 0 458.30664 693.60938 A 25 25 0 0 0 458.61133 693.87891 A 25 25 0 0 0 458.625 693.89062 A 25 25 0 0 0 458.66992 693.92969 A 25 25 0 0 0 458.94336 694.16016 A 25 25 0 0 0 459.20312 694.375 A 25 25 0 0 0 459.30859 694.46094 A 25 25 0 0 0 459.31641 694.4668 A 25 25 0 0 0 459.5957 694.68945 A 25 25 0 0 0 459.87891 694.9082 A 25 25 0 0 0 459.94141 694.95508 A 25 25 0 0 0 459.97852 694.98438 A 25 25 0 0 0 460.26758 695.19727 A 25 25 0 0 0 461.00586 695.7168 A 25 25 0 0 0 461.30469 695.91406 A 25 25 0 0 0 461.55078 696.07227 A 25 25 0 0 0 461.68359 696.1582 A 25 25 0 0 0 461.82812 696.24805 A 25 25 0 0 0 462.01562 696.36328 A 25 25 0 0 0 462.06836 696.39453 A 25 25 0 0 0 462.38281 696.58203 A 25 25 0 0 0 462.72656 696.7793 A 25 25 0 0 0 462.74219 696.78906 A 25 25 0 0 0 463.01367 696.9375 A 25 25 0 0 0 463.14648 697.00977 A 25 25 0 0 0 463.24609 697.0625 A 25 25 0 0 0 463.51562 697.20508 A 25 25 0 0 0 463.61133 697.25391 A 25 25 0 0 0 463.85547 697.37891 A 25 25 0 0 0 463.91211 697.40625 A 25 25 0 0 0 464.23438 697.5625 A 25 25 0 0 0 464.5332 697.70117 A 25 25 0 0 0 464.61523 697.74023 A 25 25 0 0 0 464.67188 697.76562 A 25 25 0 0 0 464.99805 697.91211 A 25 25 0 0 0 465.05469 697.9375 A 25 25 0 0 0 465.15234 697.97852 A 25 25 0 0 0 465.87891 698.27539 A 25 25 0 0 0 466.11328 698.36523 A 25 25 0 0 0 466.27148 698.42578 A 25 25 0 0 0 466.44922 698.49023 A 25 25 0 0 0 466.68164 698.57422 A 25 25 0 0 0 466.81836 698.62109 A 25 25 0 0 0 467.08398 698.71289 A 25 25 0 0 0 467.19336 698.74805 A 25 25 0 0 0 467.50586 698.84961 A 25 25 0 0 0 467.51758 698.85352 A 25 25 0 0 0 467.81836 698.94531 A 25 25 0 0 0 468.54102 699.15039 A 25 25 0 0 0 468.66016 699.18164 A 25 25 0 0 0 468.73047 699.20117 A 25 25 0 0 0 469.03516 699.27734 A 25 25 0 0 0 469.39062 699.36133 A 25 25 0 0 0 469.46289 699.37891 A 25 25 0 0 0 469.75391 699.44141 A 25 25 0 0 0 469.89648 699.47266 A 25 25 0 0 0 469.95898 699.48633 A 25 25 0 0 0 470.26758 699.54688 A 25 25 0 0 0 470.99219 699.67578 A 25 25 0 0 0 471.19141 699.70703 A 25 25 0 0 0 471.21484 699.71094 A 25 25 0 0 0 471.61523 699.76953 A 25 25 0 0 0 471.62695 699.77148 A 25 25 0 0 0 472.35742 699.85938 A 25 25 0 0 0 472.54492 699.87695 A 25 25 0 0 0 473.2207 699.93555 A 25 25 0 0 0 473.49219 699.95312 A 25 25 0 0 0 473.64062 699.96289 A 25 25 0 0 0 473.91406 699.97461 A 25 25 0 0 0 474.07812 699.98242 A 25 25 0 0 0 474.12891 699.98438 A 25 25 0 0 0 474.65234 699.99609 A 25 25 0 0 0 474.96875 700 A 25 25 0 0 0 475.07422 699.99805 A 25 25 0 0 0 475.2832 699.99805 A 25 25 0 0 0 475.81055 699.98633 A 25 25 0 0 0 475.81445 699.98633 A 25 25 0 0 0 476.23047 699.96875 A 25 25 0 0 0 476.96289 699.92188 A 25 25 0 0 0 477.06836 699.91406 A 25 25 0 0 0 477.17773 699.9043 A 25 25 0 0 0 477.48828 699.875 A 25 25 0 0 0 477.80078 699.8418 A 25 25 0 0 0 477.90625 699.83008 A 25 25 0 0 0 478.21875 699.79102 A 25 25 0 0 0 478.32227 699.77734 A 25 25 0 0 0 478.63477 699.73438 A 25 25 0 0 0 478.73828 699.71875 A 25 25 0 0 0 479.05078 699.66992 A 25 25 0 0 0 479.1543 699.65234 A 25 25 0 0 0 479.46484 699.59766 A 25 25 0 0 0 479.56836 699.57812 A 25 25 0 0 0 479.58789 699.57422 A 25 25 0 0 0 479.98047 699.49805 A 25 25 0 0 0 480.55078 699.375 A 25 25 0 0 0 480.80078 699.31641 A 25 25 0 0 0 481.10742 699.24219 A 25 25 0 0 0 481.20898 699.2168 A 25 25 0 0 0 481.32617 699.18555 A 25 25 0 0 0 481.61719 699.10742 A 25 25 0 0 0 481.91992 699.02344 A 25 25 0 0 0 482.02148 698.99414 A 25 25 0 0 0 482.72266 698.77734 A 25 25 0 0 0 482.82422 698.74414 A 25 25 0 0 0 483.36328 698.55859 A 25 25 0 0 0 484.01172 698.31836 A 25 25 0 0 0 484.30469 698.20312 A 25 25 0 0 0 484.40234 698.16406 A 25 25 0 0 0 484.4707 698.13477 A 25 25 0 0 0 484.79102 698.00195 A 25 25 0 0 0 485.04492 697.89258 A 25 25 0 0 0 485.17578 697.83594 A 25 25 0 0 0 485.23242 697.81055 A 25 25 0 0 0 485.9375 697.48047 A 25 25 0 0 0 485.99414 697.45312 A 25 25 0 0 0 486.09961 697.39844 A 25 25 0 0 0 486.36914 697.26367 A 25 25 0 0 0 486.6875 697.09961 A 25 25 0 0 0 486.74219 697.07031 A 25 25 0 0 0 486.75391 697.06445 A 25 25 0 0 0 487.11328 696.86914 A 25 25 0 0 0 487.42383 696.69336 A 25 25 0 0 0 487.47852 696.66211 A 25 25 0 0 0 487.78711 696.48242 A 25 25 0 0 0 487.8418 696.44922 A 25 25 0 0 0 488.14648 696.26367 A 25 25 0 0 0 488.19922 696.23047 A 25 25 0 0 0 488.50195 696.03906 A 25 25 0 0 0 488.55469 696.00586 A 25 25 0 0 0 488.85547 695.80859 A 25 25 0 0 0 488.90625 695.77539 A 25 25 0 0 0 489.20312 695.57422 A 25 25 0 0 0 489.25391 695.53906 A 25 25 0 0 0 489.54688 695.33203 A 25 25 0 0 0 489.59766 695.29492 A 25 25 0 0 0 489.88672 695.08398 A 25 25 0 0 0 490.27148 694.79297 A 25 25 0 0 0 490.55273 694.57227 A 25 25 0 0 0 490.60156 694.5332 A 25 25 0 0 0 490.61719 694.51953 A 25 25 0 0 0 491.25 693.99805 A 25 25 0 0 0 491.52148 693.76367 A 25 25 0 0 0 491.56836 693.72266 A 25 25 0 0 0 492.14258 693.19727 A 25 25 0 0 0 492.1875 693.1543 A 25 25 0 0 0 492.44531 692.90625 A 25 25 0 0 0 492.49023 692.86328 A 25 25 0 0 0 493.03906 692.30859 A 25 25 0 0 0 493.08203 692.26367 A 25 25 0 0 0 493.32617 692.00391 A 25 25 0 0 0 493.36914 691.95703 A 25 25 0 0 0 493.60938 691.69336 A 25 25 0 0 0 493.65234 691.64648 A 25 25 0 0 0 493.88867 691.37695 A 25 25 0 0 0 493.92969 691.33008 A 25 25 0 0 0 494.42773 690.73242 A 25 25 0 0 0 494.4668 690.68359 A 25 25 0 0 0 494.68945 690.4043 A 25 25 0 0 0 494.72852 690.35547 A 25 25 0 0 0 494.94727 690.07031 A 25 25 0 0 0 494.98438 690.02148 A 25 25 0 0 0 495.68164 689.04492 A 25 25 0 0 0 495.7168 688.99414 A 25 25 0 0 0 495.91406 688.69531 A 25 25 0 0 0 495.94922 688.64258 A 25 25 0 0 0 496.14258 688.3418 A 25 25 0 0 0 496.17578 688.28906 A 25 25 0 0 0 496.36328 687.98438 A 25 25 0 0 0 496.39453 687.93164 A 25 25 0 0 0 496.57812 687.62305 A 25 25 0 0 0 496.60938 687.57031 A 25 25 0 0 0 496.78711 687.25977 A 25 25 0 0 0 496.81836 687.20508 A 25 25 0 0 0 496.99023 686.89062 A 25 25 0 0 0 497.01953 686.83594 A 25 25 0 0 0 497.1875 686.51953 A 25 25 0 0 0 497.2168 686.46289 A 25 25 0 0 0 497.37891 686.14453 A 25 25 0 0 0 497.40625 686.08789 A 25 25 0 0 0 497.42578 686.04688 A 25 25 0 0 0 497.5625 685.76562 A 25 25 0 0 0 497.74023 685.38477 A 25 25 0 0 0 497.76562 685.32812 A 25 25 0 0 0 497.91211 685.00195 A 25 25 0 0 0 497.9375 684.94531 A 25 25 0 0 0 497.99219 684.81641 L 647.97852 334.84766 A 25 25 0 0 0 634.84766 302.02148 A 25 25 0 0 0 625.03125 300 A 25 25 0 0 0 602.02148 315.15234 L 475 611.53516 L 348.00195 315.20898 A 25 25 0 0 0 347.89258 314.95508 A 25 25 0 0 0 347.83594 314.82422 A 25 25 0 0 0 347.81055 314.76758 A 25 25 0 0 0 347.48047 314.0625 A 25 25 0 0 0 347.45312 314.00586 A 25 25 0 0 0 347.39844 313.90039 A 25 25 0 0 0 347.26367 313.63086 A 25 25 0 0 0 347.09961 313.3125 A 25 25 0 0 0 347.07031 313.25781 A 25 25 0 0 0 347.06445 313.24609 A 25 25 0 0 0 346.86914 312.88672 A 25 25 0 0 0 346.69336 312.57617 A 25 25 0 0 0 346.66211 312.52148 A 25 25 0 0 0 346.48242 312.21289 A 25 25 0 0 0 346.44922 312.1582 A 25 25 0 0 0 346.26367 311.85352 A 25 25 0 0 0 346.23047 311.80078 A 25 25 0 0 0 346.03906 311.49805 A 25 25 0 0 0 346.00586 311.44531 A 25 25 0 0 0 345.80859 311.14453 A 25 25 0 0 0 345.77539 311.09375 A 25 25 0 0 0 345.57422 310.79688 A 25 25 0 0 0 345.53906 310.74609 A 25 25 0 0 0 345.33203 310.45312 A 25 25 0 0 0 345.29492 310.40234 A 25 25 0 0 0 345.08398 310.11328 A 25 25 0 0 0 345.04688 310.0625 A 25 25 0 0 0 344.97461 309.9668 A 25 25 0 0 0 344.79297 309.72852 A 25 25 0 0 0 344.57227 309.44727 A 25 25 0 0 0 344.5332 309.39844 A 25 25 0 0 0 344.51953 309.38281 A 25 25 0 0 0 343.99805 308.75 A 25 25 0 0 0 343.76367 308.47852 A 25 25 0 0 0 343.72266 308.43164 A 25 25 0 0 0 343.19727 307.85742 A 25 25 0 0 0 343.1543 307.8125 A 25 25 0 0 0 342.90625 307.55469 A 25 25 0 0 0 342.86328 307.50977 A 25 25 0 0 0 342.30859 306.96094 A 25 25 0 0 0 342.26367 306.91797 A 25 25 0 0 0 342.00391 306.67383 A 25 25 0 0 0 341.95703 306.63086 A 25 25 0 0 0 341.69336 306.39062 A 25 25 0 0 0 341.64648 306.34766 A 25 25 0 0 0 341.37695 306.11133 A 25 25 0 0 0 341.33008 306.07031 A 25 25 0 0 0 340.73242 305.57227 A 25 25 0 0 0 340.68555 305.5332 A 25 25 0 0 0 340.4043 305.31055 A 25 25 0 0 0 340.35547 305.27148 A 25 25 0 0 0 340.07031 305.05273 A 25 25 0 0 0 340.02148 305.01562 A 25 25 0 0 0 339.04492 304.31836 A 25 25 0 0 0 338.99414 304.2832 A 25 25 0 0 0 338.3418 303.85742 A 25 25 0 0 0 338.28906 303.82422 A 25 25 0 0 0 337.62305 303.42188 A 25 25 0 0 0 337.57031 303.39062 A 25 25 0 0 0 337.25977 303.21289 A 25 25 0 0 0 337.20508 303.18164 A 25 25 0 0 0 336.51953 302.8125 A 25 25 0 0 0 336.46484 302.7832 A 25 25 0 0 0 336.14453 302.62109 A 25 25 0 0 0 336.08984 302.59375 A 25 25 0 0 0 335.38477 302.25977 A 25 25 0 0 0 335.33008 302.23438 A 25 25 0 0 0 335.00195 302.08789 A 25 25 0 0 0 334.94531 302.0625 A 25 25 0 0 0 334.45898 301.85938 A 25 25 0 0 0 334.16797 301.74219 A 25 25 0 0 0 334.06836 301.70312 A 25 25 0 0 0 334.02734 301.6875 A 25 25 0 0 0 333.28125 301.41211 A 25 25 0 0 0 332.98242 301.30859 A 25 25 0 0 0 332.88281 301.27539 A 25 25 0 0 0 332.80664 301.25195 A 25 25 0 0 0 331.67578 300.9082 A 25 25 0 0 0 331.37305 300.82617 A 25 25 0 0 0 331.26953 300.79883 A 25 25 0 0 0 330.96484 300.72266 A 25 25 0 0 0 330.86328 300.69727 A 25 25 0 0 0 330.55664 300.625 A 25 25 0 0 0 330.45312 300.60156 A 25 25 0 0 0 330.14453 300.53516 A 25 25 0 0 0 330.04102 300.51367 A 25 25 0 0 0 329.73242 300.45117 A 25 25 0 0 0 329.62891 300.43164 A 25 25 0 0 0 329.55859 300.41797 A 25 25 0 0 0 329.21484 300.35742 A 25 25 0 0 0 328.9043 300.30664 A 25 25 0 0 0 328.80078 300.29102 A 25 25 0 0 0 328.78516 300.28906 A 25 25 0 0 0 328.38477 300.23047 A 25 25 0 0 0 328.37305 300.22852 A 25 25 0 0 0 327.13086 300.0918 A 25 25 0 0 0 326.81641 300.06641 A 25 25 0 0 0 326.71094 300.05859 A 25 25 0 0 0 326.35938 300.03711 A 25 25 0 0 0 326.29297 300.0332 A 25 25 0 0 0 325.97852 300.01953 A 25 25 0 0 0 325.87109 300.01562 A 25 25 0 0 0 325.55664 300.00586 A 25 25 0 0 0 325.45117 300.00391 A 25 25 0 0 0 325.03125 300 A 25 25 0 0 0 324.61133 300.00391 A 25 25 0 0 0 324.60938 300.00391 A 25 25 0 0 0 324.19141 300.01367 A 25 25 0 0 0 323.61328 300.03906 A 25 25 0 0 0 321.29102 300.27734 A 25 25 0 0 0 321.17383 300.29492 A 25 25 0 0 0 320.53516 300.40234 A 25 25 0 0 0 320.21484 300.46289 A 25 25 0 0 0 320.03125 300.5 A 25 25 0 0 0 320.01953 300.50195 A 25 25 0 0 0 319.71094 300.56641 A 25 25 0 0 0 319.32031 300.6543 A 25 25 0 0 0 319.29297 300.66016 A 25 25 0 0 0 318.91797 300.75195 A 25 25 0 0 0 318.88086 300.75977 A 25 25 0 0 0 318.58789 300.83594 A 25 25 0 0 0 318.45312 300.87305 A 25 25 0 0 0 318.18164 300.94922 A 25 25 0 0 0 318.04102 300.98828 A 25 25 0 0 0 317.81836 301.05469 A 25 25 0 0 0 317.63477 301.10938 A 25 25 0 0 0 317.38086 301.18945 A 25 25 0 0 0 317.23242 301.23828 A 25 25 0 0 0 317.04297 301.30078 A 25 25 0 0 0 316.83008 301.37305 A 25 25 0 0 0 316.64844 301.4375 A 25 25 0 0 0 316.48242 301.49609 A 25 25 0 0 0 316.38281 301.5332 A 25 25 0 0 0 316.08203 301.64453 A 25 25 0 0 0 315.46094 301.89258 A 25 25 0 0 0 315.26367 301.97266 A 25 25 0 0 0 315.20898 301.99609 A 25 25 0 0 0 315.15234 302.02148 A 25 25 0 0 0 314.79492 302.17773 A 25 25 0 0 0 314.76758 302.18945 A 25 25 0 0 0 314.44141 302.33984 A 25 25 0 0 0 314.09961 302.50195 A 25 25 0 0 0 314.05273 302.52539 A 25 25 0 0 0 313.90039 302.60156 A 25 25 0 0 0 313.26172 302.92773 A 25 25 0 0 0 313.24609 302.93555 A 25 25 0 0 0 312.55859 303.31641 A 25 25 0 0 0 312.42773 303.39258 A 25 25 0 0 0 312.16211 303.54883 A 25 25 0 0 0 312.13281 303.56641 A 25 25 0 0 0 311.80664 303.76562 A 25 25 0 0 0 311.80078 303.76953 A 25 25 0 0 0 311.49805 303.96094 A 25 25 0 0 0 311.25195 304.12109 A 25 25 0 0 0 311.11719 304.20898 A 25 25 0 0 0 310.96484 304.3125 A 25 25 0 0 0 310.77148 304.44336 A 25 25 0 0 0 310.63672 304.53906 A 25 25 0 0 0 310.45312 304.66797 A 25 25 0 0 0 310.40234 304.70508 A 25 25 0 0 0 310.11328 304.91602 A 25 25 0 0 0 310.06445 304.95312 A 25 25 0 0 0 309.4082 305.45898 A 25 25 0 0 0 309.38281 305.48047 A 25 25 0 0 0 308.46484 306.24805 A 25 25 0 0 0 308.43164 306.27734 A 25 25 0 0 0 308.16602 306.51758 A 25 25 0 0 0 307.93164 306.73438 A 25 25 0 0 0 307.82031 306.83789 A 25 25 0 0 0 307.8125 306.8457 A 25 25 0 0 0 307.55469 307.09375 A 25 25 0 0 0 307.50977 307.13672 A 25 25 0 0 0 307.25586 307.39062 A 25 25 0 0 0 307 307.65234 A 25 25 0 0 0 306.94141 307.71094 A 25 25 0 0 0 306.81836 307.8418 A 25 25 0 0 0 306.63867 308.0332 A 25 25 0 0 0 306.63086 308.04297 A 25 25 0 0 0 306.39062 308.30664 A 25 25 0 0 0 306.12109 308.61133 A 25 25 0 0 0 306.10938 308.62695 A 25 25 0 0 0 305.90039 308.87109 A 25 25 0 0 0 305.82812 308.95508 A 25 25 0 0 0 305.66797 309.15039 A 25 25 0 0 0 305.53906 309.30859 A 25 25 0 0 0 305.5332 309.31641 A 25 25 0 0 0 305.31055 309.5957 A 25 25 0 0 0 305.0918 309.87891 A 25 25 0 0 0 305.04492 309.94141 A 25 25 0 0 0 305.01562 309.97852 A 25 25 0 0 0 304.80273 310.26758 A 25 25 0 0 0 304.2832 311.00586 A 25 25 0 0 0 304.08594 311.30469 A 25 25 0 0 0 303.92773 311.55078 A 25 25 0 0 0 303.8418 311.68359 A 25 25 0 0 0 303.75195 311.82812 A 25 25 0 0 0 303.63672 312.01562 A 25 25 0 0 0 303.60547 312.06836 A 25 25 0 0 0 303.41797 312.38281 A 25 25 0 0 0 303.2207 312.72656 A 25 25 0 0 0 303.21094 312.74219 A 25 25 0 0 0 303.0625 313.01367 A 25 25 0 0 0 302.99023 313.14648 A 25 25 0 0 0 302.9375 313.24609 A 25 25 0 0 0 302.79492 313.51562 A 25 25 0 0 0 302.74609 313.61133 A 25 25 0 0 0 302.62109 313.85547 A 25 25 0 0 0 302.59375 313.91211 A 25 25 0 0 0 302.43164 314.24414 A 25 25 0 0 0 302.35352 314.41016 A 25 25 0 0 0 302.08789 315 A 25 25 0 0 0 302.0625 315.05469 A 25 25 0 0 0 302.02148 315.15234 A 25 25 0 0 0 302.00781 315.18359 L 175 611.53516 L 47.978516 315.15234 A 25 25 0 0 0 25.136719 300 z "
       style="color:#000000;font-style:normal;font-variant:normal;font-weight:normal;font-stretch:normal;font-size:medium;line-height:normal;font-family:sans-serif;font-variant-ligatures:normal;font-variant-position:normal;font-variant-caps:normal;font-variant-numeric:normal;font-variant-alternates:normal;font-variant-east-asian:normal;font-feature-settings:normal;font-variation-settings:normal;text-indent:0;text-align:start;text-decoration:none;text-decoration-line:none;text-decoration-style:solid;text-decoration-color:#000000;letter-spacing:normal;word-spacing:normal;text-transform:none;writing-mode:lr-tb;direction:ltr;text-orientation:mixed;dominant-baseline:auto;baseline-shift:baseline;text-anchor:start;white-space:normal;shape-padding:0;shape-margin:0;inline-size:0;clip-rule:nonzero;display:inline;overflow:visible;visibility:visible;isolation:auto;mix-blend-mode:normal;color-interpolation:sRGB;color-interpolation-filters:linearRGB;solid-color:#000000;solid-opacity:1;vector-effect:none;fill:#000000;fill-opacity:1;fill-rule:nonzero;stroke:none;stroke-width:50;stroke-linecap:round;stroke-linejoin:round;stroke-miterlimit:4;stroke-dasharray:none;stroke-dashoffset:0;stroke-opacity:1;color-rendering:auto;image-rendering:auto;shape-rendering:auto;text-rendering:auto;enable-background:accumulate;stop-color:#000000;stop-opacity:1;opacity:1"
       id="path855" />
  </g>
</svg>
