<?xml version="1.0" encoding="UTF-8" standalone="no"?>
<svg
   xmlns:dc="http://purl.org/dc/elements/1.1/"
   xmlns:cc="http://creativecommons.org/ns#"
   xmlns:rdf="http://www.w3.org/1999/02/22-rdf-syntax-ns#"
   xmlns:svg="http://www.w3.org/2000/svg"
   xmlns="http://www.w3.org/2000/svg"
   xmlns:sodipodi="http://sodipodi.sourceforge.net/DTD/sodipodi-0.dtd"
   xmlns:inkscape="http://www.inkscape.org/namespaces/inkscape"
   sodipodi:docname="W.svg"
   inkscape:version="1.0 (4035a4fb49, 2020-05-01)"
   id="svg8"
   version="1.1"
   viewBox="0 0 1000 1000"
   height="1000"
   width="1000">
  <defs
     id="defs2" />
  <sodipodi:namedview
     inkscape:guide-bbox="true"
     showguides="true"
     inkscape:window-maximized="1"
     inkscape:window-y="1281"
     inkscape:window-x="0"
     inkscape:window-height="997"
     inkscape:window-width="1916"
     inkscape:snap-grids="false"
     inkscape:snap-page="true"
     inkscape:snap-text-baseline="true"
     inkscape:snap-center="true"
     inkscape:snap-object-midpoints="true"
     inkscape:snap-midpoints="true"
     inkscape:snap-smooth-nodes="true"
     inkscape:snap-intersection-paths="true"
     inkscape:object-paths="true"
     inkscape:snap-bbox-midpoints="true"
     inkscape:snap-bbox-edge-midpoints="true"
     inkscape:bbox-nodes="true"
     inkscape:bbox-paths="true"
     inkscape:snap-bbox="true"
     inkscape:pagecheckerboard="true"
     units="px"
     showgrid="true"
     inkscape:document-rotation="0"
     inkscape:current-layer="layer1"
     inkscape:document-units="px"
     inkscape:cy="419.12023"
     inkscape:cx="272.13537"
     inkscape:zoom="0.51755965"
     inkscape:pageshadow="2"
     inkscape:pageopacity="0.0"
     borderopacity="1.0"
     bordercolor="#666666"
     pagecolor="#ffffff"
     id="base">
    <inkscape:grid
       id="grid883"
       type="xygrid" />
    <sodipodi:guide
       inkscape:color="rgb(0,0,255)"
       inkscape:locked="true"
       inkscape:label=""
       id="guide885"
       orientation="0,1"
       position="0,300" />
    <sodipodi:guide
       inkscape:color="rgb(0,0,255)"
       inkscape:locked="true"
       inkscape:label=""
       id="guide887"
       orientation="0,1"
       position="0,700" />
    <sodipodi:guide
       inkscape:color="rgb(0,0,255)"
       inkscape:locked="true"
       inkscape:label=""
       id="guide889"
       orientation="0,1"
       position="0,975" />
    <sodipodi:guide
       inkscape:color="rgb(0,0,255)"
       inkscape:locked="true"
       inkscape:label=""
       id="guide891"
       orientation="0,1"
       position="0,1000" />
    <sodipodi:guide
       inkscape:color="rgb(0,0,255)"
       inkscape:locked="true"
       inkscape:label=""
       id="guide893"
       orientation="0,1"
       position="0,0" />
    <sodipodi:guide
       id="guide921"
       orientation="0,-1"
       position="120,600" />
  </sodipodi:namedview>
  <metadata
     id="metadata5">
    <rdf:RDF>
      <cc:Work
         rdf:about="">
        <dc:format>image/svg+xml</dc:format>
        <dc:type
           rdf:resource="http://purl.org/dc/dcmitype/StillImage" />
        <dc:title />
      </cc:Work>
    </rdf:RDF>
  </metadata>
  <g
     style="display:inline"
     id="layer1"
     inkscape:groupmode="layer"
     inkscape:label="Layer 1">
    <path
       d="M 23.853516 24.363281 A 25 25 0 0 0 17.044922 25.298828 A 25 25 0 0 0 -0.2421875 56.140625 L 175.93555 681.77734 A 25 25 0 0 0 175.9668 681.88672 A 25 25 0 0 0 175.99219 681.96875 A 25 25 0 0 0 176.07812 682.26367 A 25 25 0 0 0 176.0957 682.32227 A 25 25 0 0 0 176.17773 682.58203 A 25 25 0 0 0 176.30859 682.98242 A 25 25 0 0 0 176.41406 683.28711 A 25 25 0 0 0 176.47852 683.4707 A 25 25 0 0 0 176.52344 683.58984 A 25 25 0 0 0 176.63086 683.88086 A 25 25 0 0 0 176.66406 683.9707 A 25 25 0 0 0 176.77344 684.24805 A 25 25 0 0 0 176.87305 684.49609 A 25 25 0 0 0 176.9082 684.58203 A 25 25 0 0 0 176.95508 684.69336 A 25 25 0 0 0 177.0625 684.94336 A 25 25 0 0 0 177.18555 685.22266 A 25 25 0 0 0 177.28125 685.43164 A 25 25 0 0 0 177.29492 685.46289 A 25 25 0 0 0 177.41016 685.70898 A 25 25 0 0 0 177.55273 686.00781 A 25 25 0 0 0 177.62109 686.14453 A 25 25 0 0 0 177.6582 686.2207 A 25 25 0 0 0 177.7832 686.46289 A 25 25 0 0 0 177.97656 686.83203 A 25 25 0 0 0 177.98242 686.8418 A 25 25 0 0 0 178.12109 687.09766 A 25 25 0 0 0 178.22656 687.28516 A 25 25 0 0 0 178.37695 687.54883 A 25 25 0 0 0 178.39062 687.57227 A 25 25 0 0 0 178.60352 687.93164 A 25 25 0 0 0 178.82422 688.28906 A 25 25 0 0 0 179.05078 688.64258 A 25 25 0 0 0 179.26367 688.96289 A 25 25 0 0 0 179.30078 689.01953 A 25 25 0 0 0 179.36523 689.11523 A 25 25 0 0 0 179.52148 689.33984 A 25 25 0 0 0 179.76562 689.68164 A 25 25 0 0 0 179.94336 689.92383 A 25 25 0 0 0 180.10352 690.13867 A 25 25 0 0 0 180.35742 690.46484 A 25 25 0 0 0 180.37695 690.49023 A 25 25 0 0 0 180.61719 690.79102 A 25 25 0 0 0 180.63281 690.80664 A 25 25 0 0 0 180.88086 691.10938 A 25 25 0 0 0 180.91602 691.15039 A 25 25 0 0 0 181.16602 691.44141 A 25 25 0 0 0 181.43945 691.75 A 25 25 0 0 0 181.46484 691.77734 A 25 25 0 0 0 181.6875 692.01953 A 25 25 0 0 0 181.79492 692.13477 A 25 25 0 0 0 181.99805 692.34766 A 25 25 0 0 0 182.04297 692.39453 A 25 25 0 0 0 182.31445 692.66992 A 25 25 0 0 0 182.53711 692.89062 A 25 25 0 0 0 182.72852 693.07422 A 25 25 0 0 0 182.84375 693.18555 A 25 25 0 0 0 183.11914 693.43945 A 25 25 0 0 0 183.36328 693.66211 A 25 25 0 0 0 183.5 693.7832 A 25 25 0 0 0 183.60938 693.87695 A 25 25 0 0 0 183.81836 694.05664 A 25 25 0 0 0 183.86133 694.09375 A 25 25 0 0 0 184.07031 694.26758 A 25 25 0 0 0 184.38867 694.52734 A 25 25 0 0 0 184.4082 694.54102 A 25 25 0 0 0 184.61719 694.70703 A 25 25 0 0 0 184.78125 694.83594 A 25 25 0 0 0 184.96875 694.97656 A 25 25 0 0 0 185.14453 695.10742 A 25 25 0 0 0 185.22461 695.16602 A 25 25 0 0 0 185.52148 695.38086 A 25 25 0 0 0 185.85156 695.61133 A 25 25 0 0 0 185.92773 695.66406 A 25 25 0 0 0 186.14062 695.80859 A 25 25 0 0 0 186.36523 695.95312 A 25 25 0 0 0 186.49219 696.03711 A 25 25 0 0 0 186.76758 696.21094 A 25 25 0 0 0 186.81055 696.23828 A 25 25 0 0 0 187.05859 696.38867 A 25 25 0 0 0 187.24023 696.49805 A 25 25 0 0 0 187.40234 696.59375 A 25 25 0 0 0 187.56445 696.6875 A 25 25 0 0 0 187.78711 696.8125 A 25 25 0 0 0 187.93555 696.89648 A 25 25 0 0 0 188.14062 697.00781 A 25 25 0 0 0 188.25586 697.07031 A 25 25 0 0 0 188.38672 697.13867 A 25 25 0 0 0 188.70703 697.30469 A 25 25 0 0 0 188.88477 697.39453 A 25 25 0 0 0 189.07617 697.48828 A 25 25 0 0 0 189.24023 697.56641 A 25 25 0 0 0 189.46875 697.67383 A 25 25 0 0 0 189.57812 697.72461 A 25 25 0 0 0 189.90039 697.86914 A 25 25 0 0 0 190.19531 697.99805 A 25 25 0 0 0 190.53906 698.14062 A 25 25 0 0 0 190.81641 698.25195 A 25 25 0 0 0 190.92773 698.29688 A 25 25 0 0 0 191.06641 698.34961 A 25 25 0 0 0 191.41602 698.48047 A 25 25 0 0 0 191.51758 698.51758 A 25 25 0 0 0 191.85742 698.63672 A 25 25 0 0 0 192.1582 698.73828 A 25 25 0 0 0 192.51562 698.85352 A 25 25 0 0 0 192.82812 698.94922 A 25 25 0 0 0 193.02148 699.00586 A 25 25 0 0 0 193.22266 699.06445 A 25 25 0 0 0 193.31836 699.08984 A 25 25 0 0 0 193.33203 699.09375 A 25 25 0 0 0 193.72852 699.20117 A 25 25 0 0 0 193.73047 699.20117 A 25 25 0 0 0 194.12305 699.30078 A 25 25 0 0 0 194.13477 699.30273 A 25 25 0 0 0 194.44531 699.375 A 25 25 0 0 0 194.82422 699.45898 A 25 25 0 0 0 194.875 699.46875 A 25 25 0 0 0 195.12305 699.51953 A 25 25 0 0 0 195.3125 699.55664 A 25 25 0 0 0 195.54883 699.59961 A 25 25 0 0 0 195.72656 699.63281 A 25 25 0 0 0 195.7832 699.64258 A 25 25 0 0 0 196.16016 699.70312 A 25 25 0 0 0 196.27539 699.7207 A 25 25 0 0 0 196.58984 699.76562 A 25 25 0 0 0 196.61328 699.76953 A 25 25 0 0 0 196.92773 699.81055 A 25 25 0 0 0 197.3457 699.85938 A 25 25 0 0 0 197.76562 699.90039 A 25 25 0 0 0 197.99414 699.91992 A 25 25 0 0 0 198.28711 699.94141 A 25 25 0 0 0 198.63672 699.96289 A 25 25 0 0 0 198.84766 699.97266 A 25 25 0 0 0 199.06641 699.98438 A 25 25 0 0 0 199.34961 699.99219 A 25 25 0 0 0 199.44336 699.99414 A 25 25 0 0 0 199.65625 699.99805 A 25 25 0 0 0 199.86328 700 A 25 25 0 0 0 199.9668 700 A 25 25 0 0 0 200.36523 699.99805 A 25 25 0 0 0 200.70508 699.99023 A 25 25 0 0 0 201.125 699.97461 A 25 25 0 0 0 201.50391 699.95508 A 25 25 0 0 0 201.54492 699.95312 A 25 25 0 0 0 201.55859 699.95312 A 25 25 0 0 0 201.91016 699.92773 A 25 25 0 0 0 201.96484 699.92383 A 25 25 0 0 0 201.98242 699.92188 A 25 25 0 0 0 202.32422 699.89258 A 25 25 0 0 0 202.38281 699.88672 A 25 25 0 0 0 202.48438 699.87695 A 25 25 0 0 0 202.80078 699.84375 A 25 25 0 0 0 202.90234 699.83203 A 25 25 0 0 0 203.21875 699.79297 A 25 25 0 0 0 203.32031 699.7793 A 25 25 0 0 0 203.63477 699.73438 A 25 25 0 0 0 204.05078 699.66992 A 25 25 0 0 0 204.32422 699.62305 A 25 25 0 0 0 204.55273 699.58203 A 25 25 0 0 0 204.56641 699.58008 A 25 25 0 0 0 204.87695 699.51953 A 25 25 0 0 0 204.97852 699.5 A 25 25 0 0 0 205.10156 699.47461 A 25 25 0 0 0 205.39062 699.41211 A 25 25 0 0 0 205.69922 699.3418 A 25 25 0 0 0 205.79883 699.31836 A 25 25 0 0 0 206.10742 699.24219 A 25 25 0 0 0 206.20703 699.2168 A 25 25 0 0 0 206.26367 699.20117 A 25 25 0 0 0 206.61133 699.10938 A 25 25 0 0 0 206.61328 699.10938 A 25 25 0 0 0 206.77734 699.06445 A 25 25 0 0 0 206.88672 699.0332 A 25 25 0 0 0 206.91992 699.02344 A 25 25 0 0 0 206.96875 699.00781 A 25 25 0 0 0 207.26367 698.92188 A 25 25 0 0 0 207.32227 698.9043 A 25 25 0 0 0 207.58203 698.82227 A 25 25 0 0 0 207.98242 698.69141 A 25 25 0 0 0 208.28711 698.58594 A 25 25 0 0 0 208.37891 698.55469 A 25 25 0 0 0 208.51953 698.50391 A 25 25 0 0 0 208.77539 698.41016 A 25 25 0 0 0 208.91406 698.35742 A 25 25 0 0 0 208.9707 698.33594 A 25 25 0 0 0 209.24805 698.22656 A 25 25 0 0 0 209.30469 698.20508 A 25 25 0 0 0 209.55664 698.10156 A 25 25 0 0 0 209.69336 698.04492 A 25 25 0 0 0 209.94336 697.9375 A 25 25 0 0 0 210.22266 697.81445 A 25 25 0 0 0 210.32812 697.76758 A 25 25 0 0 0 210.46289 697.70508 A 25 25 0 0 0 210.70898 697.58984 A 25 25 0 0 0 211.00781 697.44727 A 25 25 0 0 0 211.08789 697.4082 A 25 25 0 0 0 211.2207 697.3418 A 25 25 0 0 0 211.46289 697.2168 A 25 25 0 0 0 211.83203 697.02344 A 25 25 0 0 0 211.83594 697.02148 A 25 25 0 0 0 211.9668 696.95117 A 25 25 0 0 0 212.20312 696.82031 A 25 25 0 0 0 212.33398 696.74609 A 25 25 0 0 0 212.56836 696.61133 A 25 25 0 0 0 212.57227 696.60938 A 25 25 0 0 0 212.93164 696.39648 A 25 25 0 0 0 213.28906 696.17578 A 25 25 0 0 0 213.64258 695.94922 A 25 25 0 0 0 213.96289 695.73633 A 25 25 0 0 0 213.99414 695.7168 A 25 25 0 0 0 214.11523 695.63477 A 25 25 0 0 0 214.33984 695.47852 A 25 25 0 0 0 214.68164 695.23438 A 25 25 0 0 0 214.92383 695.05664 A 25 25 0 0 0 215.13867 694.89648 A 25 25 0 0 0 215.46484 694.64258 A 25 25 0 0 0 215.4707 694.63867 A 25 25 0 0 0 215.68359 694.46875 A 25 25 0 0 0 215.79883 694.375 A 25 25 0 0 0 215.80664 694.36719 A 25 25 0 0 0 216.10938 694.11914 A 25 25 0 0 0 216.12305 694.10742 A 25 25 0 0 0 216.15039 694.08398 A 25 25 0 0 0 216.44141 693.83398 A 25 25 0 0 0 216.75 693.56055 A 25 25 0 0 0 216.75586 693.55469 A 25 25 0 0 0 216.95703 693.37109 A 25 25 0 0 0 217.06641 693.26953 A 25 25 0 0 0 217.26367 693.08398 A 25 25 0 0 0 217.37109 692.98047 A 25 25 0 0 0 217.39453 692.95703 A 25 25 0 0 0 217.66992 692.68555 A 25 25 0 0 0 217.86133 692.49219 A 25 25 0 0 0 217.96484 692.38672 A 25 25 0 0 0 218.1543 692.18945 A 25 25 0 0 0 218.18555 692.15625 A 25 25 0 0 0 218.43945 691.88086 A 25 25 0 0 0 218.66211 691.63672 A 25 25 0 0 0 218.72266 691.56836 A 25 25 0 0 0 218.82031 691.45703 A 25 25 0 0 0 218.99805 691.25195 A 25 25 0 0 0 219.09375 691.13867 A 25 25 0 0 0 219.26758 690.92969 A 25 25 0 0 0 219.52734 690.61133 A 25 25 0 0 0 219.5332 690.60352 A 25 25 0 0 0 219.625 690.48828 A 25 25 0 0 0 219.79297 690.27344 A 25 25 0 0 0 219.88281 690.15625 A 25 25 0 0 0 220.04688 689.9375 A 25 25 0 0 0 220.13477 689.81836 A 25 25 0 0 0 220.16602 689.77539 A 25 25 0 0 0 220.38086 689.47852 A 25 25 0 0 0 220.61133 689.14844 A 25 25 0 0 0 220.62305 689.13281 A 25 25 0 0 0 220.77539 688.9082 A 25 25 0 0 0 220.85742 688.78516 A 25 25 0 0 0 221.00586 688.55664 A 25 25 0 0 0 221.08594 688.43164 A 25 25 0 0 0 221.23047 688.20117 A 25 25 0 0 0 221.23828 688.18945 A 25 25 0 0 0 221.38867 687.94141 A 25 25 0 0 0 221.44922 687.84375 A 25 25 0 0 0 221.52539 687.71484 A 25 25 0 0 0 221.66211 687.48047 A 25 25 0 0 0 221.73633 687.35156 A 25 25 0 0 0 221.86914 687.11523 A 25 25 0 0 0 221.94141 686.98438 A 25 25 0 0 0 222.07031 686.74414 A 25 25 0 0 0 222.13867 686.61328 A 25 25 0 0 0 222.26562 686.37109 A 25 25 0 0 0 222.33203 686.24023 A 25 25 0 0 0 222.45312 685.99609 A 25 25 0 0 0 222.51758 685.86328 A 25 25 0 0 0 222.63477 685.61719 A 25 25 0 0 0 222.69727 685.48242 A 25 25 0 0 0 222.72461 685.42188 A 25 25 0 0 0 222.86914 685.09961 A 25 25 0 0 0 222.97852 684.84961 A 25 25 0 0 0 222.99805 684.80469 A 25 25 0 0 0 223.14062 684.46094 A 25 25 0 0 0 223.25195 684.18359 A 25 25 0 0 0 223.29688 684.07227 A 25 25 0 0 0 223.34961 683.93359 A 25 25 0 0 0 223.48047 683.58398 A 25 25 0 0 0 223.49805 683.53906 A 25 25 0 0 0 223.51758 683.48242 A 25 25 0 0 0 223.63672 683.14258 A 25 25 0 0 0 223.72461 682.88477 A 25 25 0 0 0 223.73828 682.8418 A 25 25 0 0 0 223.85352 682.48438 A 25 25 0 0 0 223.94922 682.17188 A 25 25 0 0 0 223.97656 682.08203 A 25 25 0 0 0 224.01758 681.93945 A 25 25 0 0 0 224.06445 681.77734 A 25 25 0 0 0 224.0918 681.67773 L 340.97852 266.59375 L 457.89453 681.77539 A 25 25 0 0 0 457.91016 681.82812 A 25 25 0 0 0 457.97656 682.06055 A 25 25 0 0 0 458.02539 682.22656 A 25 25 0 0 0 458.39648 683.35547 A 25 25 0 0 0 458.41211 683.39844 A 25 25 0 0 0 458.52148 683.69531 A 25 25 0 0 0 458.56641 683.81836 A 25 25 0 0 0 458.66602 684.07812 A 25 25 0 0 0 458.71289 684.20117 A 25 25 0 0 0 459.17578 685.29297 A 25 25 0 0 0 459.2168 685.38281 A 25 25 0 0 0 459.30859 685.58008 A 25 25 0 0 0 459.38477 685.74414 A 25 25 0 0 0 459.54688 686.07617 A 25 25 0 0 0 459.55273 686.0918 A 25 25 0 0 0 460.09375 687.11914 A 25 25 0 0 0 460.18555 687.28516 A 25 25 0 0 0 460.33594 687.54883 A 25 25 0 0 0 460.34961 687.57227 A 25 25 0 0 0 460.75781 688.24805 A 25 25 0 0 0 460.80664 688.32617 A 25 25 0 0 0 460.86133 688.41406 A 25 25 0 0 0 461.00781 688.64062 A 25 25 0 0 0 461.1875 688.91406 A 25 25 0 0 0 461.28711 689.06055 A 25 25 0 0 0 461.42578 689.26172 A 25 25 0 0 0 461.49414 689.35938 A 25 25 0 0 0 461.94727 689.98633 A 25 25 0 0 0 461.99609 690.05078 A 25 25 0 0 0 462.16992 690.27539 A 25 25 0 0 0 462.25977 690.39062 A 25 25 0 0 0 462.32031 690.4707 A 25 25 0 0 0 462.49023 690.68164 A 25 25 0 0 0 462.71094 690.95312 A 25 25 0 0 0 462.7793 691.03516 A 25 25 0 0 0 463 691.29688 A 25 25 0 0 0 463.04492 691.34766 A 25 25 0 0 0 463.25 691.58203 A 25 25 0 0 0 463.33203 691.67578 A 25 25 0 0 0 464.09766 692.49219 A 25 25 0 0 0 464.23828 692.63477 A 25 25 0 0 0 464.37891 692.77344 A 25 25 0 0 0 464.48828 692.88281 A 25 25 0 0 0 465.03906 693.4043 A 25 25 0 0 0 465.11328 693.47266 A 25 25 0 0 0 465.30273 693.64453 A 25 25 0 0 0 465.43164 693.75781 A 25 25 0 0 0 465.50195 693.82031 A 25 25 0 0 0 465.70703 693.99609 A 25 25 0 0 0 465.9668 694.2168 A 25 25 0 0 0 466.05078 694.28711 A 25 25 0 0 0 466.98828 695.02148 A 25 25 0 0 0 467.06445 695.07812 A 25 25 0 0 0 467.20703 695.18359 A 25 25 0 0 0 467.44922 695.35742 A 25 25 0 0 0 467.63672 695.49023 A 25 25 0 0 0 467.7168 695.54492 A 25 25 0 0 0 468.39844 696.00195 A 25 25 0 0 0 468.4043 696.00586 A 25 25 0 0 0 468.62891 696.15039 A 25 25 0 0 0 468.83398 696.2793 A 25 25 0 0 0 468.98047 696.36719 A 25 25 0 0 0 469.19922 696.49805 A 25 25 0 0 0 469.36133 696.59375 A 25 25 0 0 0 469.52344 696.6875 A 25 25 0 0 0 469.74609 696.8125 A 25 25 0 0 0 469.88672 696.89258 A 25 25 0 0 0 470.17773 697.04883 A 25 25 0 0 0 470.24805 697.08789 A 25 25 0 0 0 470.49414 697.21484 A 25 25 0 0 0 470.60938 697.27539 A 25 25 0 0 0 471.65625 697.77734 A 25 25 0 0 0 471.81055 697.84766 A 25 25 0 0 0 471.95312 697.91016 A 25 25 0 0 0 472.16211 698 A 25 25 0 0 0 472.42578 698.11133 A 25 25 0 0 0 472.53711 698.15625 A 25 25 0 0 0 472.75195 698.24219 A 25 25 0 0 0 473 698.33984 A 25 25 0 0 0 473.18555 698.41016 A 25 25 0 0 0 473.28906 698.44922 A 25 25 0 0 0 473.64062 698.57422 A 25 25 0 0 0 473.74805 698.61328 A 25 25 0 0 0 473.86719 698.6543 A 25 25 0 0 0 474.1543 698.75195 A 25 25 0 0 0 474.41406 698.83398 A 25 25 0 0 0 474.49023 698.85938 A 25 25 0 0 0 475.18164 699.06445 A 25 25 0 0 0 475.24219 699.08203 A 25 25 0 0 0 475.40039 699.125 A 25 25 0 0 0 475.65039 699.19141 A 25 25 0 0 0 475.76953 699.22266 A 25 25 0 0 0 476.08203 699.29883 A 25 25 0 0 0 476.09375 699.30273 A 25 25 0 0 0 476.4043 699.375 A 25 25 0 0 0 477.03906 699.50977 A 25 25 0 0 0 477.67969 699.63086 A 25 25 0 0 0 477.94727 699.67578 A 25 25 0 0 0 478.11719 699.70312 A 25 25 0 0 0 478.23438 699.7207 A 25 25 0 0 0 478.54883 699.76562 A 25 25 0 0 0 478.64062 699.77734 A 25 25 0 0 0 480.1582 699.93555 A 25 25 0 0 0 480.50195 699.95703 A 25 25 0 0 0 480.5625 699.96094 A 25 25 0 0 0 480.9082 699.97656 A 25 25 0 0 0 481.01953 699.98242 A 25 25 0 0 0 481.21289 699.98828 A 25 25 0 0 0 481.40234 699.99414 A 25 25 0 0 0 481.92383 700 A 25 25 0 0 0 482.24414 699.99805 A 25 25 0 0 0 482.54883 699.99219 A 25 25 0 0 0 482.76562 699.98633 A 25 25 0 0 0 483.08398 699.97461 A 25 25 0 0 0 483.09375 699.97461 A 25 25 0 0 0 483.32422 699.96289 A 25 25 0 0 0 483.60547 699.94531 A 25 25 0 0 0 483.92383 699.92188 A 25 25 0 0 0 484.02539 699.91406 A 25 25 0 0 0 484.3418 699.88672 A 25 25 0 0 0 484.38281 699.88281 A 25 25 0 0 0 485.59375 699.73438 A 25 25 0 0 0 485.69531 699.71875 A 25 25 0 0 0 485.71484 699.71484 A 25 25 0 0 0 486.10938 699.65234 A 25 25 0 0 0 486.42383 699.59766 A 25 25 0 0 0 486.4375 699.5957 A 25 25 0 0 0 487.24805 699.43359 A 25 25 0 0 0 487.34766 699.41211 A 25 25 0 0 0 487.6582 699.3418 A 25 25 0 0 0 487.75781 699.31836 A 25 25 0 0 0 488.06641 699.24219 A 25 25 0 0 0 488.16602 699.2168 A 25 25 0 0 0 488.73438 699.06445 A 25 25 0 0 0 488.81836 699.04102 A 25 25 0 0 0 488.87891 699.02344 A 25 25 0 0 0 488.95703 699 A 25 25 0 0 0 489.28125 698.90234 A 25 25 0 0 0 489.53906 698.82227 A 25 25 0 0 0 489.68359 698.77539 A 25 25 0 0 0 489.93945 698.69141 A 25 25 0 0 0 490.08203 698.64258 A 25 25 0 0 0 490.33594 698.55469 A 25 25 0 0 0 490.47852 698.50391 A 25 25 0 0 0 490.77734 698.39258 A 25 25 0 0 0 490.87305 698.35742 A 25 25 0 0 0 490.96875 698.32031 A 25 25 0 0 0 491.65234 698.04297 A 25 25 0 0 0 491.90039 697.9375 A 25 25 0 0 0 492.03906 697.87695 A 25 25 0 0 0 492.28516 697.76758 A 25 25 0 0 0 492.42188 697.70508 A 25 25 0 0 0 492.66602 697.58984 A 25 25 0 0 0 492.80273 697.52539 A 25 25 0 0 0 492.88672 697.48438 A 25 25 0 0 0 493.17969 697.33984 A 25 25 0 0 0 493.69141 697.07422 A 25 25 0 0 0 493.92383 696.94922 A 25 25 0 0 0 494.16016 696.82031 A 25 25 0 0 0 494.21289 696.79102 A 25 25 0 0 0 494.52539 696.61133 A 25 25 0 0 0 494.65625 696.53516 A 25 25 0 0 0 494.88867 696.39648 A 25 25 0 0 0 495.01562 696.31836 A 25 25 0 0 0 495.24609 696.17578 A 25 25 0 0 0 495.37305 696.0957 A 25 25 0 0 0 495.95117 695.7168 A 25 25 0 0 0 496.07422 695.63281 A 25 25 0 0 0 496.29688 695.47852 A 25 25 0 0 0 496.31836 695.46289 A 25 25 0 0 0 496.63867 695.23438 A 25 25 0 0 0 496.75977 695.14648 A 25 25 0 0 0 496.79102 695.12305 A 25 25 0 0 0 497.42969 694.63672 A 25 25 0 0 0 497.64062 694.46875 A 25 25 0 0 0 498.08203 694.10547 A 25 25 0 0 0 498.08398 694.10547 A 25 25 0 0 0 498.71484 693.55273 A 25 25 0 0 0 498.91406 693.37109 A 25 25 0 0 0 499.02539 693.26758 A 25 25 0 0 0 499.2207 693.08398 A 25 25 0 0 0 499.33008 692.97852 A 25 25 0 0 0 499.34961 692.95898 A 25 25 0 0 0 499.62891 692.68359 A 25 25 0 0 0 499.81836 692.49219 A 25 25 0 0 0 500.21289 692.07812 A 25 25 0 0 0 500.39648 691.88086 A 25 25 0 0 0 500.49805 691.76953 A 25 25 0 0 0 500.53125 691.73242 A 25 25 0 0 0 501.05273 691.13672 A 25 25 0 0 0 501.22461 690.92969 A 25 25 0 0 0 501.32031 690.8125 A 25 25 0 0 0 501.33984 690.78711 A 25 25 0 0 0 501.8418 690.15234 A 25 25 0 0 0 502.00391 689.9375 A 25 25 0 0 0 502.09375 689.81641 A 25 25 0 0 0 502.25195 689.59961 A 25 25 0 0 0 502.33984 689.47656 A 25 25 0 0 0 502.36328 689.44336 A 25 25 0 0 0 503.04297 688.42969 A 25 25 0 0 0 503.1875 688.20117 A 25 25 0 0 0 503.26758 688.07227 A 25 25 0 0 0 503.40625 687.84375 A 25 25 0 0 0 503.48438 687.71289 A 25 25 0 0 0 503.61914 687.48047 A 25 25 0 0 0 503.69336 687.34961 A 25 25 0 0 0 503.69531 687.34375 A 25 25 0 0 0 503.89844 686.98242 A 25 25 0 0 0 504.02734 686.74414 A 25 25 0 0 0 504.09766 686.61133 A 25 25 0 0 0 504.12695 686.55273 A 25 25 0 0 0 504.82812 685.0957 A 25 25 0 0 0 504.93555 684.84961 A 25 25 0 0 0 504.99414 684.71094 A 25 25 0 0 0 505.09766 684.46094 A 25 25 0 0 0 505.1543 684.32227 A 25 25 0 0 0 505.25391 684.07227 A 25 25 0 0 0 505.30859 683.92969 A 25 25 0 0 0 505.32422 683.88672 A 25 25 0 0 0 505.5957 683.14062 A 25 25 0 0 0 505.68164 682.88477 A 25 25 0 0 0 505.72852 682.74023 A 25 25 0 0 0 505.81055 682.48438 A 25 25 0 0 0 505.85547 682.33984 A 25 25 0 0 0 505.87695 682.26562 A 25 25 0 0 0 505.97461 681.9375 A 25 25 0 0 0 505.98633 681.89453 A 25 25 0 0 0 506.04883 681.67773 L 682.20117 56.140625 A 25 25 0 0 0 664.91406 25.298828 A 25 25 0 0 0 658.27148 24.363281 A 25 25 0 0 0 634.07227 42.585938 L 481.95703 582.76953 L 365.11523 167.8457 A 25 25 0 0 0 365.02734 167.53125 A 25 25 0 0 0 365.00195 167.44141 A 25 25 0 0 0 364.97852 167.36328 A 25 25 0 0 0 364.88086 167.03906 A 25 25 0 0 0 364.80078 166.78125 A 25 25 0 0 0 364.80078 166.7793 A 25 25 0 0 0 364.66992 166.38086 A 25 25 0 0 0 364.62109 166.23828 A 25 25 0 0 0 364.5332 165.98438 A 25 25 0 0 0 364.48242 165.8418 A 25 25 0 0 0 364.38867 165.58789 A 25 25 0 0 0 364.37305 165.55078 A 25 25 0 0 0 364.23828 165.19727 A 25 25 0 0 0 364.18164 165.05664 A 25 25 0 0 0 364.16406 165.01172 A 25 25 0 0 0 364.02148 164.66797 A 25 25 0 0 0 363.91602 164.41992 A 25 25 0 0 0 363.85547 164.28125 A 25 25 0 0 0 363.74609 164.03516 A 25 25 0 0 0 363.68359 163.89844 A 25 25 0 0 0 363.38477 163.27539 A 25 25 0 0 0 363.38281 163.26953 A 25 25 0 0 0 363.05273 162.62891 A 25 25 0 0 0 362.92773 162.39648 A 25 25 0 0 0 362.79883 162.16016 A 25 25 0 0 0 362.76953 162.10742 A 25 25 0 0 0 362.58984 161.79492 A 25 25 0 0 0 362.51367 161.66406 A 25 25 0 0 0 362.375 161.43164 A 25 25 0 0 0 362.29688 161.30469 A 25 25 0 0 0 362.1543 161.07422 A 25 25 0 0 0 362.07422 160.94727 A 25 25 0 0 0 361.69531 160.36914 A 25 25 0 0 0 361.61133 160.24609 A 25 25 0 0 0 361.45703 160.02344 A 25 25 0 0 0 361.44141 160.00195 A 25 25 0 0 0 360.70898 159.00977 A 25 25 0 0 0 360.61523 158.89062 A 25 25 0 0 0 360.44727 158.67969 A 25 25 0 0 0 360.35352 158.5625 A 25 25 0 0 0 360.27148 158.46289 A 25 25 0 0 0 360.08398 158.23828 A 25 25 0 0 0 359.9082 158.0332 A 25 25 0 0 0 359.81055 157.91992 A 25 25 0 0 0 359.63086 157.7168 A 25 25 0 0 0 359.53125 157.60547 A 25 25 0 0 0 359.34961 157.40625 A 25 25 0 0 0 359.24609 157.29492 A 25 25 0 0 0 358.76758 156.79883 A 25 25 0 0 0 358.66211 156.69141 A 25 25 0 0 0 358.4707 156.50195 A 25 25 0 0 0 358.36328 156.39648 A 25 25 0 0 0 358.16797 156.20898 A 25 25 0 0 0 358.13672 156.18164 A 25 25 0 0 0 357.85938 155.92383 A 25 25 0 0 0 357.74805 155.82227 A 25 25 0 0 0 357.54688 155.64258 A 25 25 0 0 0 357.43359 155.54297 A 25 25 0 0 0 357.40625 155.51953 A 25 25 0 0 0 357.11523 155.26758 A 25 25 0 0 0 356.58203 154.83008 A 25 25 0 0 0 356.46484 154.73633 A 25 25 0 0 0 356.25195 154.57031 A 25 25 0 0 0 356.2168 154.54492 A 25 25 0 0 0 355.91602 154.31641 A 25 25 0 0 0 355.79492 154.22656 A 25 25 0 0 0 355.57812 154.06836 A 25 25 0 0 0 355.45508 153.98047 A 25 25 0 0 0 355.23438 153.82617 A 25 25 0 0 0 355.10938 153.74023 A 25 25 0 0 0 355.08594 153.72461 A 25 25 0 0 0 354.76172 153.50586 A 25 25 0 0 0 354.53516 153.35742 A 25 25 0 0 0 354.49805 153.33398 A 25 25 0 0 0 353.0918 152.49414 A 25 25 0 0 0 352.96094 152.42188 A 25 25 0 0 0 352.72266 152.29297 A 25 25 0 0 0 352.58984 152.22266 A 25 25 0 0 0 352.34961 152.09961 A 25 25 0 0 0 352.2168 152.03125 A 25 25 0 0 0 352.11914 151.98438 A 25 25 0 0 0 351.45898 151.66602 A 25 25 0 0 0 350.82812 151.38477 A 25 25 0 0 0 350.68945 151.32617 A 25 25 0 0 0 350.43945 151.22266 A 25 25 0 0 0 350.30078 151.16602 A 25 25 0 0 0 350.04883 151.06641 A 25 25 0 0 0 350.04297 151.06445 A 25 25 0 0 0 348.86328 150.63867 A 25 25 0 0 0 348.7207 150.5918 A 25 25 0 0 0 348.46289 150.50977 A 25 25 0 0 0 348.4375 150.50195 A 25 25 0 0 0 348.06055 150.38672 A 25 25 0 0 0 348.03906 150.38086 A 25 25 0 0 0 347.75586 150.29883 A 25 25 0 0 0 347.66016 150.27344 A 25 25 0 0 0 347.65625 150.27148 A 25 25 0 0 0 347.64648 150.26953 A 25 25 0 0 0 347.25 150.16211 A 25 25 0 0 0 347.24805 150.16211 A 25 25 0 0 0 346.8418 150.06055 A 25 25 0 0 0 346.60938 150.00586 A 25 25 0 0 0 346.5332 149.98828 A 25 25 0 0 0 346.12305 149.89844 A 25 25 0 0 0 346.02148 149.87695 A 25 25 0 0 0 345.85547 149.84375 A 25 25 0 0 0 345.60938 149.79492 A 25 25 0 0 0 345.29688 149.73828 A 25 25 0 0 0 345.19531 149.7207 A 25 25 0 0 0 344.88281 149.66992 A 25 25 0 0 0 344.78125 149.6543 A 25 25 0 0 0 344.4668 149.60742 A 25 25 0 0 0 344.36523 149.59375 A 25 25 0 0 0 344.30469 149.58594 A 25 25 0 0 0 343.11133 149.45508 A 25 25 0 0 0 342.79492 149.42969 A 25 25 0 0 0 342.76758 149.42773 A 25 25 0 0 0 342.375 149.40234 A 25 25 0 0 0 342.3457 149.40039 A 25 25 0 0 0 341.95508 149.38281 A 25 25 0 0 0 341.85156 149.37891 A 25 25 0 0 0 341.53516 149.36914 A 25 25 0 0 0 341.32227 149.36523 A 25 25 0 0 0 341.01172 149.36328 A 25 25 0 0 0 340.91016 149.36328 A 25 25 0 0 0 339.85156 149.38867 A 25 25 0 0 0 339.61523 149.40039 A 25 25 0 0 0 338.53906 149.48242 A 25 25 0 0 0 338.49219 149.48633 A 25 25 0 0 0 337.67773 149.58203 A 25 25 0 0 0 337.58203 149.5957 A 25 25 0 0 0 336.49805 149.76758 A 25 25 0 0 0 336.13672 149.83594 A 25 25 0 0 0 336.08789 149.8457 A 25 25 0 0 0 335.73828 149.91992 A 25 25 0 0 0 335.66406 149.93555 A 25 25 0 0 0 335.44922 149.98242 A 25 25 0 0 0 335.20703 150.03906 A 25 25 0 0 0 335.09766 150.06445 A 25 25 0 0 0 334.86914 150.12109 A 25 25 0 0 0 334.77148 150.14648 A 25 25 0 0 0 334.39062 150.24609 A 25 25 0 0 0 334.20312 150.29883 A 25 25 0 0 0 334.1875 150.30273 A 25 25 0 0 0 333.82617 150.4082 A 25 25 0 0 0 333.78906 150.41992 A 25 25 0 0 0 332.62305 150.80078 A 25 25 0 0 0 332.58008 150.81641 A 25 25 0 0 0 332.2832 150.92578 A 25 25 0 0 0 332.16016 150.9707 A 25 25 0 0 0 331.94922 151.05078 A 25 25 0 0 0 331.71484 151.14258 A 25 25 0 0 0 331.67188 151.16016 A 25 25 0 0 0 331.42383 151.26172 A 25 25 0 0 0 330.68555 151.58203 A 25 25 0 0 0 330.63281 151.60547 A 25 25 0 0 0 330.36719 151.72656 A 25 25 0 0 0 330.19531 151.80859 A 25 25 0 0 0 330.03125 151.88867 A 25 25 0 0 0 329.81055 151.99609 A 25 25 0 0 0 329.66602 152.07031 A 25 25 0 0 0 329.44336 152.18359 A 25 25 0 0 0 329.38281 152.21484 A 25 25 0 0 0 329.14453 152.3418 A 25 25 0 0 0 328.85938 152.49805 A 25 25 0 0 0 328.69336 152.58984 A 25 25 0 0 0 328.52148 152.6875 A 25 25 0 0 0 328.375 152.77344 A 25 25 0 0 0 328.08984 152.94141 A 25 25 0 0 0 328.00781 152.99219 A 25 25 0 0 0 327.84961 153.08789 A 25 25 0 0 0 327.5957 153.24805 A 25 25 0 0 0 327.49805 153.30859 A 25 25 0 0 0 327.33789 153.41211 A 25 25 0 0 0 327.21094 153.49609 A 25 25 0 0 0 326.87305 153.72266 A 25 25 0 0 0 326.82227 153.75781 A 25 25 0 0 0 326.58789 153.91992 A 25 25 0 0 0 326.375 154.07422 A 25 25 0 0 0 326.23438 154.17383 A 25 25 0 0 0 326.10938 154.26758 A 25 25 0 0 0 325.88477 154.43359 A 25 25 0 0 0 325.74414 154.54102 A 25 25 0 0 0 325.56641 154.67969 A 25 25 0 0 0 325.50586 154.72656 A 25 25 0 0 0 325.29688 154.89453 A 25 25 0 0 0 325.0293 155.11328 A 25 25 0 0 0 324.85547 155.25781 A 25 25 0 0 0 324.85352 155.25977 A 25 25 0 0 0 324.5957 155.47852 A 25 25 0 0 0 324.41602 155.63867 A 25 25 0 0 0 324.29492 155.74609 A 25 25 0 0 0 324.2207 155.81055 A 25 25 0 0 0 324.02344 155.99219 A 25 25 0 0 0 323.76953 156.22852 A 25 25 0 0 0 323.63672 156.35547 A 25 25 0 0 0 323.57812 156.41406 A 25 25 0 0 0 323.33398 156.65234 A 25 25 0 0 0 323.20117 156.78711 A 25 25 0 0 0 323.0957 156.89258 A 25 25 0 0 0 322.8457 157.1543 A 25 25 0 0 0 322.80664 157.19336 A 25 25 0 0 0 322.63867 157.37305 A 25 25 0 0 0 322.49023 157.53516 A 25 25 0 0 0 322.33398 157.70703 A 25 25 0 0 0 322.2207 157.83594 A 25 25 0 0 0 322.1582 157.90625 A 25 25 0 0 0 321.98242 158.11133 A 25 25 0 0 0 321.80078 158.32617 A 25 25 0 0 0 321.65039 158.50586 A 25 25 0 0 0 321.45312 158.75 A 25 25 0 0 0 321.44531 158.75977 A 25 25 0 0 0 320.7168 159.71875 A 25 25 0 0 0 320.65234 159.80859 A 25 25 0 0 0 320.44922 160.09766 A 25 25 0 0 0 320.43945 160.10938 A 25 25 0 0 0 320.00977 160.75195 A 25 25 0 0 0 319.94922 160.84375 A 25 25 0 0 0 319.84375 161.00977 A 25 25 0 0 0 319.52148 161.53516 A 25 25 0 0 0 319.34375 161.83594 A 25 25 0 0 0 319.24609 162.00586 A 25 25 0 0 0 319.24023 162.01953 A 25 25 0 0 0 319.05469 162.34961 A 25 25 0 0 0 318.92578 162.58789 A 25 25 0 0 0 318.90625 162.62305 A 25 25 0 0 0 318.75391 162.91406 A 25 25 0 0 0 318.68945 163.04102 A 25 25 0 0 0 318.64648 163.125 A 25 25 0 0 0 318.52734 163.36719 A 25 25 0 0 0 318.34961 163.74023 A 25 25 0 0 0 318.34375 163.75 A 25 25 0 0 0 318.19922 164.06445 A 25 25 0 0 0 318.15625 164.1582 A 25 25 0 0 0 318.04102 164.42188 A 25 25 0 0 0 317.96094 164.60547 A 25 25 0 0 0 317.91406 164.7168 A 25 25 0 0 0 317.79492 165.00781 A 25 25 0 0 0 317.75 165.11914 A 25 25 0 0 0 317.66211 165.3418 A 25 25 0 0 0 317.54492 165.6543 A 25 25 0 0 0 317.52734 165.70117 A 25 25 0 0 0 317.29297 166.36328 A 25 25 0 0 0 317.2168 166.5918 A 25 25 0 0 0 317.18555 166.69141 A 25 25 0 0 0 317.10742 166.93359 A 25 25 0 0 0 316.91406 167.58594 A 25 25 0 0 0 316.88672 167.68359 L 200 582.76562 L 47.884766 42.587891 A 25 25 0 0 0 23.853516 24.363281 z "
       style="color:#000000;font-style:normal;font-variant:normal;font-weight:normal;font-stretch:normal;font-size:medium;line-height:normal;font-family:sans-serif;font-variant-ligatures:normal;font-variant-position:normal;font-variant-caps:normal;font-variant-numeric:normal;font-variant-alternates:normal;font-variant-east-asian:normal;font-feature-settings:normal;font-variation-settings:normal;text-indent:0;text-align:start;text-decoration:none;text-decoration-line:none;text-decoration-style:solid;text-decoration-color:#000000;letter-spacing:normal;word-spacing:normal;text-transform:none;writing-mode:lr-tb;direction:ltr;text-orientation:mixed;dominant-baseline:auto;baseline-shift:baseline;text-anchor:start;white-space:normal;shape-padding:0;shape-margin:0;inline-size:0;clip-rule:nonzero;display:inline;overflow:visible;visibility:visible;isolation:auto;mix-blend-mode:normal;color-interpolation:sRGB;color-interpolation-filters:linearRGB;solid-color:#000000;solid-opacity:1;vector-effect:none;fill:#000000;fill-opacity:1;fill-rule:nonzero;stroke:none;stroke-width:50;stroke-linecap:round;stroke-linejoin:round;stroke-miterlimit:4;stroke-dasharray:none;stroke-dashoffset:0;stroke-opacity:1;color-rendering:auto;image-rendering:auto;shape-rendering:auto;text-rendering:auto;enable-background:accumulate;stop-color:#000000;stop-opacity:1;opacity:1"
       id="path855" />
  </g>
</svg>
