<?xml version="1.0" encoding="UTF-8" standalone="no"?>
<svg
   xmlns:dc="http://purl.org/dc/elements/1.1/"
   xmlns:cc="http://creativecommons.org/ns#"
   xmlns:rdf="http://www.w3.org/1999/02/22-rdf-syntax-ns#"
   xmlns:svg="http://www.w3.org/2000/svg"
   xmlns="http://www.w3.org/2000/svg"
   xmlns:sodipodi="http://sodipodi.sourceforge.net/DTD/sodipodi-0.dtd"
   xmlns:inkscape="http://www.inkscape.org/namespaces/inkscape"
   sodipodi:docname="Z.svg"
   inkscape:version="1.0 (4035a4fb49, 2020-05-01)"
   id="svg8"
   version="1.1"
   viewBox="0 0 1000 1000"
   height="1000"
   width="1000">
  <defs
     id="defs2" />
  <sodipodi:namedview
     inkscape:guide-bbox="true"
     showguides="true"
     inkscape:window-maximized="1"
     inkscape:window-y="1281"
     inkscape:window-x="0"
     inkscape:window-height="997"
     inkscape:window-width="1916"
     inkscape:snap-grids="false"
     inkscape:snap-page="true"
     inkscape:snap-text-baseline="true"
     inkscape:snap-center="true"
     inkscape:snap-object-midpoints="true"
     inkscape:snap-midpoints="true"
     inkscape:snap-smooth-nodes="true"
     inkscape:snap-intersection-paths="true"
     inkscape:object-paths="true"
     inkscape:snap-bbox-midpoints="true"
     inkscape:snap-bbox-edge-midpoints="true"
     inkscape:bbox-nodes="true"
     inkscape:bbox-paths="true"
     inkscape:snap-bbox="true"
     inkscape:pagecheckerboard="true"
     units="px"
     showgrid="true"
     inkscape:document-rotation="0"
     inkscape:current-layer="layer1"
     inkscape:document-units="px"
     inkscape:cy="423.50089"
     inkscape:cx="238.84068"
     inkscape:zoom="0.73193988"
     inkscape:pageshadow="2"
     inkscape:pageopacity="0.0"
     borderopacity="1.0"
     bordercolor="#666666"
     pagecolor="#ffffff"
     id="base">
    <inkscape:grid
       id="grid883"
       type="xygrid" />
    <sodipodi:guide
       inkscape:color="rgb(0,0,255)"
       inkscape:locked="true"
       inkscape:label=""
       id="guide885"
       orientation="0,1"
       position="0,300" />
    <sodipodi:guide
       inkscape:color="rgb(0,0,255)"
       inkscape:locked="true"
       inkscape:label=""
       id="guide887"
       orientation="0,1"
       position="0,700" />
    <sodipodi:guide
       inkscape:color="rgb(0,0,255)"
       inkscape:locked="true"
       inkscape:label=""
       id="guide889"
       orientation="0,1"
       position="0,975" />
    <sodipodi:guide
       inkscape:color="rgb(0,0,255)"
       inkscape:locked="true"
       inkscape:label=""
       id="guide891"
       orientation="0,1"
       position="0,1000" />
    <sodipodi:guide
       inkscape:color="rgb(0,0,255)"
       inkscape:locked="true"
       inkscape:label=""
       id="guide893"
       orientation="0,1"
       position="0,0" />
    <sodipodi:guide
       id="guide921"
       orientation="0,-1"
       position="120,600" />
  </sodipodi:namedview>
  <metadata
     id="metadata5">
    <rdf:RDF>
      <cc:Work
         rdf:about="">
        <dc:format>image/svg+xml</dc:format>
        <dc:type
           rdf:resource="http://purl.org/dc/dcmitype/StillImage" />
        <dc:title />
      </cc:Work>
    </rdf:RDF>
  </metadata>
  <g
     style="display:inline"
     id="layer1"
     inkscape:groupmode="layer"
     inkscape:label="Layer 1">
    <path
       d="M 25 25 A 25 25 0 0 0 0 50 A 25 25 0 0 0 25 75 L 332.34766 75 L 3.2011719 662.76172 A 25 25 0 0 0 3.1933594 662.77539 L 3.1875 662.78516 A 25 25 0 0 0 2.9941406 663.13672 A 25 25 0 0 0 2.9414062 663.23438 A 25 25 0 0 0 2.796875 663.50781 A 25 25 0 0 0 2.7890625 663.52539 A 25 25 0 0 0 2.6074219 663.88281 A 25 25 0 0 0 2.5996094 663.90039 A 25 25 0 0 0 2.4238281 664.26172 A 25 25 0 0 0 2.4160156 664.2793 A 25 25 0 0 0 2.2382812 664.6582 A 25 25 0 0 0 2.2382812 664.66016 A 25 25 0 0 0 2.0761719 665.02734 A 25 25 0 0 0 2.046875 665.09766 A 25 25 0 0 0 1.9042969 665.43164 A 25 25 0 0 0 1.7519531 665.80859 A 25 25 0 0 0 1.7167969 665.89844 A 25 25 0 0 0 1.6015625 666.19531 A 25 25 0 0 0 1.5957031 666.21289 A 25 25 0 0 0 1.4570312 666.58984 A 25 25 0 0 0 1.4511719 666.60938 A 25 25 0 0 0 1.3183594 666.98633 A 25 25 0 0 0 1.3125 667.00586 A 25 25 0 0 0 1.1875 667.38672 A 25 25 0 0 0 1.1816406 667.40625 A 25 25 0 0 0 1.0625 667.78906 A 25 25 0 0 0 1.0566406 667.80664 A 25 25 0 0 0 0.9453125 668.19141 A 25 25 0 0 0 0.93945312 668.21094 A 25 25 0 0 0 0.83398438 668.59766 A 25 25 0 0 0 0.828125 668.61719 A 25 25 0 0 0 0.73046875 669.00391 A 25 25 0 0 0 0.66601562 669.27734 A 25 25 0 0 0 0.6328125 669.41406 A 25 25 0 0 0 0.62890625 669.43359 A 25 25 0 0 0 0.45898438 670.23633 A 25 25 0 0 0 0.44726562 670.30273 A 25 25 0 0 0 0.33398438 670.93945 A 25 25 0 0 0 0.3125 671.06445 A 25 25 0 0 0 0.30859375 671.08398 A 25 25 0 0 0 0.25 671.48047 A 25 25 0 0 0 0.2109375 671.76562 A 25 25 0 0 0 0.19335938 671.89648 A 25 25 0 0 0 0.19140625 671.91602 A 25 25 0 0 0 0.14257812 672.33203 A 25 25 0 0 0 0.14257812 672.33398 A 25 25 0 0 0 0.10351562 672.73242 A 25 25 0 0 0 0.1015625 672.75195 A 25 25 0 0 0 0.068359375 673.15234 A 25 25 0 0 0 0.05859375 673.30859 A 25 25 0 0 0 0.01953125 674.01172 A 25 25 0 0 0 0.015625 674.13672 A 25 25 0 0 0 0.001953125 674.77344 A 25 25 0 0 0 0 674.83203 A 25 25 0 0 0 0 674.85156 A 25 25 0 0 0 0 675 A 25 25 0 0 0 0.001953125 675.14844 A 25 25 0 0 0 0.00390625 675.33203 A 25 25 0 0 0 0.0078125 675.59375 A 25 25 0 0 0 0.01171875 675.72461 A 25 25 0 0 0 0.025390625 676.11328 A 25 25 0 0 0 0.04296875 676.44336 A 25 25 0 0 0 0.052734375 676.625 A 25 25 0 0 0 0.064453125 676.79492 A 25 25 0 0 0 0.080078125 677 A 25 25 0 0 0 0.11328125 677.37109 A 25 25 0 0 0 0.14453125 677.66602 A 25 25 0 0 0 0.171875 677.91211 A 25 25 0 0 0 0.1796875 677.98242 A 25 25 0 0 0 0.22070312 678.3125 A 25 25 0 0 0 0.23828125 678.44141 A 25 25 0 0 0 0.2734375 678.68359 A 25 25 0 0 0 0.30664062 678.89844 A 25 25 0 0 0 0.3515625 679.16797 A 25 25 0 0 0 0.390625 679.39648 A 25 25 0 0 0 0.40039062 679.45703 A 25 25 0 0 0 0.47265625 679.83203 A 25 25 0 0 0 0.484375 679.89258 A 25 25 0 0 0 0.5546875 680.22852 A 25 25 0 0 0 0.5703125 680.30664 A 25 25 0 0 0 0.6484375 680.65234 A 25 25 0 0 0 0.65820312 680.69922 A 25 25 0 0 0 0.75585938 681.0957 A 25 25 0 0 0 0.84570312 681.44141 A 25 25 0 0 0 0.87890625 681.56641 A 25 25 0 0 0 0.953125 681.83008 A 25 25 0 0 0 0.984375 681.94141 A 25 25 0 0 0 1.0898438 682.29883 A 25 25 0 0 0 1.0957031 682.31641 A 25 25 0 0 0 1.1738281 682.57031 A 25 25 0 0 0 1.2519531 682.81055 A 25 25 0 0 0 1.265625 682.85352 A 25 25 0 0 0 1.3535156 683.11133 A 25 25 0 0 0 1.4726562 683.45117 A 25 25 0 0 0 1.5175781 683.57422 A 25 25 0 0 0 1.5957031 683.78906 A 25 25 0 0 0 1.6542969 683.94336 A 25 25 0 0 0 1.7460938 684.17578 A 25 25 0 0 0 1.8320312 684.39062 A 25 25 0 0 0 1.8769531 684.50195 A 25 25 0 0 0 2.0058594 684.80859 A 25 25 0 0 0 2.0175781 684.83789 A 25 25 0 0 0 2.1445312 685.12695 A 25 25 0 0 0 2.2910156 685.45117 A 25 25 0 0 0 2.4609375 685.81445 A 25 25 0 0 0 2.4746094 685.84375 A 25 25 0 0 0 2.6542969 686.20898 A 25 25 0 0 0 2.8105469 686.51758 A 25 25 0 0 0 2.8613281 686.61328 A 25 25 0 0 0 3.0449219 686.95508 A 25 25 0 0 0 3.2011719 687.23828 A 25 25 0 0 0 3.296875 687.40625 A 25 25 0 0 0 3.3222656 687.45117 A 25 25 0 0 0 3.4589844 687.68555 A 25 25 0 0 0 3.6757812 688.04688 A 25 25 0 0 0 3.8496094 688.32812 A 25 25 0 0 0 3.9355469 688.46484 A 25 25 0 0 0 4.1152344 688.74023 A 25 25 0 0 0 4.1289062 688.76172 A 25 25 0 0 0 4.3359375 689.06836 A 25 25 0 0 0 4.375 689.12891 A 25 25 0 0 0 4.5546875 689.38672 A 25 25 0 0 0 4.6289062 689.49219 A 25 25 0 0 0 4.7773438 689.69922 A 25 25 0 0 0 4.8808594 689.83984 A 25 25 0 0 0 5.0429688 690.05469 A 25 25 0 0 0 5.1328125 690.17578 A 25 25 0 0 0 5.3398438 690.44141 A 25 25 0 0 0 5.3613281 690.46875 A 25 25 0 0 0 5.5722656 690.73438 A 25 25 0 0 0 5.6386719 690.81445 A 25 25 0 0 0 5.8671875 691.08789 A 25 25 0 0 0 5.9003906 691.12891 A 25 25 0 0 0 5.9824219 691.22656 A 25 25 0 0 0 6.1601562 691.43164 A 25 25 0 0 0 6.4394531 691.74609 A 25 25 0 0 0 6.6855469 692.01562 A 25 25 0 0 0 6.7421875 692.07617 A 25 25 0 0 0 6.9921875 692.3418 A 25 25 0 0 0 7.0253906 692.375 A 25 25 0 0 0 7.2539062 692.60938 A 25 25 0 0 0 7.3339844 692.6875 A 25 25 0 0 0 7.6074219 692.95703 A 25 25 0 0 0 7.8652344 693.20312 A 25 25 0 0 0 7.9570312 693.28906 A 25 25 0 0 0 8.1992188 693.51172 A 25 25 0 0 0 8.2265625 693.53711 A 25 25 0 0 0 8.5351562 693.81055 A 25 25 0 0 0 8.765625 694.00977 A 25 25 0 0 0 8.8964844 694.12109 A 25 25 0 0 0 9.1152344 694.30469 A 25 25 0 0 0 9.2167969 694.38672 A 25 25 0 0 0 9.3984375 694.5332 A 25 25 0 0 0 9.5722656 694.66992 A 25 25 0 0 0 9.7578125 694.81445 A 25 25 0 0 0 9.8574219 694.89258 A 25 25 0 0 0 10.146484 695.10742 A 25 25 0 0 0 10.189453 695.14062 A 25 25 0 0 0 10.4375 695.31836 A 25 25 0 0 0 10.558594 695.40625 A 25 25 0 0 0 10.771484 695.55469 A 25 25 0 0 0 10.900391 695.64453 A 25 25 0 0 0 10.980469 695.69922 A 25 25 0 0 0 11.207031 695.84961 A 25 25 0 0 0 11.554688 696.07617 A 25 25 0 0 0 11.560547 696.08008 A 25 25 0 0 0 11.824219 696.24414 A 25 25 0 0 0 11.986328 696.3457 A 25 25 0 0 0 12.128906 696.43164 A 25 25 0 0 0 12.367188 696.57227 A 25 25 0 0 0 12.462891 696.62695 A 25 25 0 0 0 12.761719 696.79883 A 25 25 0 0 0 12.775391 696.80664 A 25 25 0 0 0 12.785156 696.8125 A 25 25 0 0 0 13.136719 697.00586 A 25 25 0 0 0 13.234375 697.05859 A 25 25 0 0 0 13.507812 697.20312 A 25 25 0 0 0 13.525391 697.21094 A 25 25 0 0 0 13.882812 697.39258 A 25 25 0 0 0 13.900391 697.40039 A 25 25 0 0 0 14.261719 697.57617 A 25 25 0 0 0 14.279297 697.58398 A 25 25 0 0 0 15.027344 697.92383 A 25 25 0 0 0 15.097656 697.95312 A 25 25 0 0 0 15.431641 698.0957 A 25 25 0 0 0 15.808594 698.24805 A 25 25 0 0 0 15.898438 698.2832 A 25 25 0 0 0 16.195312 698.39844 A 25 25 0 0 0 16.212891 698.4043 A 25 25 0 0 0 16.589844 698.54297 A 25 25 0 0 0 16.609375 698.54883 A 25 25 0 0 0 16.986328 698.68164 A 25 25 0 0 0 17.005859 698.6875 A 25 25 0 0 0 17.386719 698.8125 A 25 25 0 0 0 17.40625 698.81836 A 25 25 0 0 0 17.789062 698.9375 A 25 25 0 0 0 17.806641 698.94336 A 25 25 0 0 0 18.191406 699.05469 A 25 25 0 0 0 18.210938 699.06055 A 25 25 0 0 0 18.597656 699.16602 A 25 25 0 0 0 18.617188 699.17188 A 25 25 0 0 0 19.003906 699.26953 A 25 25 0 0 0 19.277344 699.33398 A 25 25 0 0 0 19.414062 699.36719 A 25 25 0 0 0 19.433594 699.37109 A 25 25 0 0 0 20.236328 699.54102 A 25 25 0 0 0 20.302734 699.55273 A 25 25 0 0 0 20.939453 699.66602 A 25 25 0 0 0 21.064453 699.6875 A 25 25 0 0 0 21.083984 699.69141 A 25 25 0 0 0 21.480469 699.75 A 25 25 0 0 0 21.765625 699.78906 A 25 25 0 0 0 21.896484 699.80664 A 25 25 0 0 0 21.916016 699.80859 A 25 25 0 0 0 22.732422 699.89648 A 25 25 0 0 0 22.751953 699.89844 A 25 25 0 0 0 23.152344 699.93164 A 25 25 0 0 0 23.308594 699.94141 A 25 25 0 0 0 24.011719 699.98047 A 25 25 0 0 0 24.136719 699.98438 A 25 25 0 0 0 24.773438 699.99805 A 25 25 0 0 0 24.832031 700 A 25 25 0 0 0 24.851562 700 A 25 25 0 0 0 25 700 L 375 700 A 25 25 0 0 0 400 675 A 25 25 0 0 0 375 650 L 67.652344 650 L 396.8125 62.214844 A 25.0025 25.0025 0 0 0 375 25 L 25 25 z "
       style="color:#000000;font-style:normal;font-variant:normal;font-weight:normal;font-stretch:normal;font-size:medium;line-height:normal;font-family:sans-serif;font-variant-ligatures:normal;font-variant-position:normal;font-variant-caps:normal;font-variant-numeric:normal;font-variant-alternates:normal;font-variant-east-asian:normal;font-feature-settings:normal;font-variation-settings:normal;text-indent:0;text-align:start;text-decoration:none;text-decoration-line:none;text-decoration-style:solid;text-decoration-color:#000000;letter-spacing:normal;word-spacing:normal;text-transform:none;writing-mode:lr-tb;direction:ltr;text-orientation:mixed;dominant-baseline:auto;baseline-shift:baseline;text-anchor:start;white-space:normal;shape-padding:0;shape-margin:0;inline-size:0;clip-rule:nonzero;display:inline;overflow:visible;visibility:visible;isolation:auto;mix-blend-mode:normal;color-interpolation:sRGB;color-interpolation-filters:linearRGB;solid-color:#000000;solid-opacity:1;vector-effect:none;fill:#000000;fill-opacity:1;fill-rule:nonzero;stroke:none;stroke-width:50;stroke-linecap:round;stroke-linejoin:round;stroke-miterlimit:4;stroke-dasharray:none;stroke-dashoffset:0;stroke-opacity:1;color-rendering:auto;image-rendering:auto;shape-rendering:auto;text-rendering:auto;enable-background:accumulate;stop-color:#000000;stop-opacity:1;opacity:1"
       id="path845" />
  </g>
</svg>
