<?xml version="1.0" encoding="UTF-8" standalone="no"?>
<svg
   xmlns:dc="http://purl.org/dc/elements/1.1/"
   xmlns:cc="http://creativecommons.org/ns#"
   xmlns:rdf="http://www.w3.org/1999/02/22-rdf-syntax-ns#"
   xmlns:svg="http://www.w3.org/2000/svg"
   xmlns="http://www.w3.org/2000/svg"
   xmlns:sodipodi="http://sodipodi.sourceforge.net/DTD/sodipodi-0.dtd"
   xmlns:inkscape="http://www.inkscape.org/namespaces/inkscape"
   sodipodi:docname="z.svg"
   inkscape:version="1.0 (4035a4fb49, 2020-05-01)"
   id="svg8"
   version="1.1"
   viewBox="0 0 1000 1000"
   height="1000"
   width="1000">
  <defs
     id="defs2" />
  <sodipodi:namedview
     inkscape:guide-bbox="true"
     showguides="true"
     inkscape:window-maximized="1"
     inkscape:window-y="1281"
     inkscape:window-x="0"
     inkscape:window-height="997"
     inkscape:window-width="1916"
     inkscape:snap-grids="false"
     inkscape:snap-page="true"
     inkscape:snap-text-baseline="true"
     inkscape:snap-center="true"
     inkscape:snap-object-midpoints="true"
     inkscape:snap-midpoints="true"
     inkscape:snap-smooth-nodes="true"
     inkscape:snap-intersection-paths="true"
     inkscape:object-paths="true"
     inkscape:snap-bbox-midpoints="true"
     inkscape:snap-bbox-edge-midpoints="true"
     inkscape:bbox-nodes="true"
     inkscape:bbox-paths="true"
     inkscape:snap-bbox="true"
     inkscape:pagecheckerboard="true"
     units="px"
     showgrid="true"
     inkscape:document-rotation="0"
     inkscape:current-layer="layer1"
     inkscape:document-units="px"
     inkscape:cy="367.43916"
     inkscape:cx="67.082224"
     inkscape:zoom="0.51755965"
     inkscape:pageshadow="2"
     inkscape:pageopacity="0.0"
     borderopacity="1.0"
     bordercolor="#666666"
     pagecolor="#ffffff"
     id="base">
    <inkscape:grid
       id="grid883"
       type="xygrid" />
    <sodipodi:guide
       inkscape:color="rgb(0,0,255)"
       inkscape:locked="true"
       inkscape:label=""
       id="guide885"
       orientation="0,1"
       position="0,300" />
    <sodipodi:guide
       inkscape:color="rgb(0,0,255)"
       inkscape:locked="true"
       inkscape:label=""
       id="guide887"
       orientation="0,1"
       position="0,700" />
    <sodipodi:guide
       inkscape:color="rgb(0,0,255)"
       inkscape:locked="true"
       inkscape:label=""
       id="guide889"
       orientation="0,1"
       position="0,975" />
    <sodipodi:guide
       inkscape:color="rgb(0,0,255)"
       inkscape:locked="true"
       inkscape:label=""
       id="guide891"
       orientation="0,1"
       position="0,1000" />
    <sodipodi:guide
       inkscape:color="rgb(0,0,255)"
       inkscape:locked="true"
       inkscape:label=""
       id="guide893"
       orientation="0,1"
       position="0,0" />
    <sodipodi:guide
       id="guide921"
       orientation="0,-1"
       position="120,600" />
  </sodipodi:namedview>
  <metadata
     id="metadata5">
    <rdf:RDF>
      <cc:Work
         rdf:about="">
        <dc:format>image/svg+xml</dc:format>
        <dc:type
           rdf:resource="http://purl.org/dc/dcmitype/StillImage" />
        <dc:title />
      </cc:Work>
    </rdf:RDF>
  </metadata>
  <g
     style="display:inline"
     id="layer1"
     inkscape:groupmode="layer"
     inkscape:label="Layer 1">
    <path
       d="M 25 300 A 25 25 0 0 0 0 325 A 25 25 0 0 0 25 350 L 226.41992 350 L 4.65625 660.46875 A 25 25 0 0 0 4.5527344 660.61523 A 25 25 0 0 0 4.5292969 660.64844 A 25 25 0 0 0 4.3027344 660.97852 A 25 25 0 0 0 4.296875 660.98438 A 25 25 0 0 0 4.0976562 661.28711 A 25 25 0 0 0 4.0371094 661.37891 A 25 25 0 0 0 3.8457031 661.67773 A 25 25 0 0 0 3.8398438 661.6875 A 25 25 0 0 0 3.6210938 662.04102 A 25 25 0 0 0 3.40625 662.40234 A 25 25 0 0 0 3.1972656 662.76758 A 25 25 0 0 0 2.9941406 663.13672 A 25 25 0 0 0 2.8339844 663.43945 A 25 25 0 0 0 2.7441406 663.61328 A 25 25 0 0 0 2.6523438 663.79297 A 25 25 0 0 0 2.5625 663.97461 A 25 25 0 0 0 2.4453125 664.21875 A 25 25 0 0 0 2.4082031 664.29297 A 25 25 0 0 0 2.2695312 664.59375 A 25 25 0 0 0 2.2246094 664.69141 A 25 25 0 0 0 2.0761719 665.02734 A 25 25 0 0 0 1.9316406 665.36328 A 25 25 0 0 0 1.875 665.5 A 25 25 0 0 0 1.7636719 665.78125 A 25 25 0 0 0 1.7460938 665.82617 A 25 25 0 0 0 1.6347656 666.11133 A 25 25 0 0 0 1.5644531 666.29492 A 25 25 0 0 0 1.4882812 666.50586 A 25 25 0 0 0 1.4140625 666.71484 A 25 25 0 0 0 1.3691406 666.8418 A 25 25 0 0 0 1.2714844 667.13281 A 25 25 0 0 0 1.203125 667.33594 A 25 25 0 0 0 1.1816406 667.4082 A 25 25 0 0 0 1.0644531 667.78125 A 25 25 0 0 0 1.0585938 667.80078 A 25 25 0 0 0 0.9453125 668.19141 A 25 25 0 0 0 0.83398438 668.59766 A 25 25 0 0 0 0.73046875 669.00391 A 25 25 0 0 0 0.6328125 669.41406 A 25 25 0 0 0 0.55664062 669.75 A 25 25 0 0 0 0.53125 669.86914 A 25 25 0 0 0 0.38671875 670.62305 A 25 25 0 0 0 0.375 670.69141 A 25 25 0 0 0 0.3125 671.06445 A 25 25 0 0 0 0.25 671.48047 A 25 25 0 0 0 0.19335938 671.89648 A 25 25 0 0 0 0.19335938 671.89844 A 25 25 0 0 0 0.14453125 672.31445 A 25 25 0 0 0 0.10351562 672.73242 A 25 25 0 0 0 0.072265625 673.09766 A 25 25 0 0 0 0.064453125 673.20898 A 25 25 0 0 0 0.044921875 673.51953 A 25 25 0 0 0 0.03515625 673.67578 A 25 25 0 0 0 0.02734375 673.8457 A 25 25 0 0 0 0.017578125 674.08594 A 25 25 0 0 0 0.0078125 674.41211 A 25 25 0 0 0 0.001953125 674.75977 A 25 25 0 0 0 0 675 A 25 25 0 0 0 0 675.01758 A 25 25 0 0 0 0 675.05078 A 25 25 0 0 0 0.00390625 675.41992 A 25 25 0 0 0 0.01171875 675.72461 A 25 25 0 0 0 0.015625 675.87891 A 25 25 0 0 0 0.015625 675.89062 A 25 25 0 0 0 0.03125 676.26172 A 25 25 0 0 0 0.033203125 676.31055 A 25 25 0 0 0 0.087890625 677.09961 A 25 25 0 0 0 0.091796875 677.15039 A 25 25 0 0 0 0.12695312 677.51758 A 25 25 0 0 0 0.2265625 678.35352 A 25 25 0 0 0 0.26367188 678.61914 A 25 25 0 0 0 0.29101562 678.80664 A 25 25 0 0 0 0.29296875 678.81836 A 25 25 0 0 0 0.35351562 679.18555 A 25 25 0 0 0 0.39648438 679.42773 A 25 25 0 0 0 0.43359375 679.63281 A 25 25 0 0 0 0.49804688 679.96289 A 25 25 0 0 0 0.5078125 680.01562 A 25 25 0 0 0 0.51757812 680.06055 A 25 25 0 0 0 0.59570312 680.42188 A 25 25 0 0 0 0.67382812 680.76367 A 25 25 0 0 0 0.6953125 680.85352 A 25 25 0 0 0 0.70117188 680.88086 A 25 25 0 0 0 0.79101562 681.24023 A 25 25 0 0 0 1.1367188 682.45312 A 25 25 0 0 0 1.2460938 682.79102 A 25 25 0 0 0 1.2753906 682.88086 A 25 25 0 0 0 1.28125 682.90039 A 25 25 0 0 0 1.4003906 683.25195 A 25 25 0 0 0 1.5136719 683.56445 A 25 25 0 0 0 1.5585938 683.6875 A 25 25 0 0 0 1.5722656 683.72461 A 25 25 0 0 0 1.703125 684.06836 A 25 25 0 0 0 1.7089844 684.08594 A 25 25 0 0 0 1.8476562 684.43164 A 25 25 0 0 0 1.8652344 684.47656 A 25 25 0 0 0 2.1777344 685.20508 A 25 25 0 0 0 2.1972656 685.25 A 25 25 0 0 0 2.3515625 685.58594 A 25 25 0 0 0 2.3730469 685.63281 A 25 25 0 0 0 2.5332031 685.9668 A 25 25 0 0 0 2.5546875 686.01172 A 25 25 0 0 0 2.7207031 686.3418 A 25 25 0 0 0 2.9140625 686.71484 A 25 25 0 0 0 3.1113281 687.07812 A 25 25 0 0 0 3.1152344 687.08594 A 25 25 0 0 0 3.1386719 687.12891 A 25 25 0 0 0 3.3222656 687.45117 A 25 25 0 0 0 3.5097656 687.77539 A 25 25 0 0 0 3.5390625 687.82422 A 25 25 0 0 0 3.5585938 687.85742 A 25 25 0 0 0 3.7519531 688.17383 A 25 25 0 0 0 3.9023438 688.41211 A 25 25 0 0 0 3.9765625 688.5293 A 25 25 0 0 0 4.0039062 688.57031 A 25 25 0 0 0 4.2207031 688.90039 A 25 25 0 0 0 4.234375 688.92188 A 25 25 0 0 0 4.4433594 689.22852 A 25 25 0 0 0 4.6640625 689.54297 A 25 25 0 0 0 4.6914062 689.58008 A 25 25 0 0 0 4.8261719 689.76562 A 25 25 0 0 0 4.9511719 689.93555 A 25 25 0 0 0 4.9628906 689.95117 A 25 25 0 0 0 5.1875 690.24609 A 25 25 0 0 0 5.4472656 690.57812 A 25 25 0 0 0 5.7109375 690.9043 A 25 25 0 0 0 5.7421875 690.94336 A 25 25 0 0 0 5.9824219 691.22656 A 25 25 0 0 0 6.0136719 691.26367 A 25 25 0 0 0 6.2578125 691.54492 A 25 25 0 0 0 6.8027344 692.14258 A 25 25 0 0 0 6.8359375 692.17773 A 25 25 0 0 0 6.9453125 692.29297 A 25 25 0 0 0 7.1152344 692.46875 A 25 25 0 0 0 7.1503906 692.50391 A 25 25 0 0 0 7.4199219 692.77539 A 25 25 0 0 0 7.5878906 692.93945 A 25 25 0 0 0 7.7382812 693.08398 A 25 25 0 0 0 7.7480469 693.09375 A 25 25 0 0 0 8.3144531 693.61523 A 25 25 0 0 0 8.3378906 693.63867 A 25 25 0 0 0 8.3671875 693.66406 A 25 25 0 0 0 8.6464844 693.9082 A 25 25 0 0 0 8.9335938 694.15234 A 25 25 0 0 0 8.9746094 694.1875 A 25 25 0 0 0 9.0039062 694.21289 A 25 25 0 0 0 9.2910156 694.44727 A 25 25 0 0 0 9.953125 694.96484 A 25 25 0 0 0 10.226562 695.16797 A 25 25 0 0 0 10.291016 695.21484 A 25 25 0 0 0 10.332031 695.24414 A 25 25 0 0 0 10.337891 695.24805 A 25 25 0 0 0 10.46875 695.34375 A 25 25 0 0 0 10.615234 695.44727 A 25 25 0 0 0 10.648438 695.4707 A 25 25 0 0 0 10.978516 695.69727 A 25 25 0 0 0 10.984375 695.70312 A 25 25 0 0 0 11.287109 695.90234 A 25 25 0 0 0 11.378906 695.96289 A 25 25 0 0 0 11.677734 696.1543 A 25 25 0 0 0 11.6875 696.16016 A 25 25 0 0 0 12.041016 696.37891 A 25 25 0 0 0 12.402344 696.59375 A 25 25 0 0 0 12.767578 696.80273 A 25 25 0 0 0 13.136719 697.00586 A 25 25 0 0 0 13.439453 697.16602 A 25 25 0 0 0 13.613281 697.25586 A 25 25 0 0 0 13.792969 697.34766 A 25 25 0 0 0 13.974609 697.4375 A 25 25 0 0 0 14.21875 697.55469 A 25 25 0 0 0 14.292969 697.5918 A 25 25 0 0 0 14.59375 697.73047 A 25 25 0 0 0 14.691406 697.77539 A 25 25 0 0 0 15.027344 697.92383 A 25 25 0 0 0 15.363281 698.06836 A 25 25 0 0 0 15.5 698.125 A 25 25 0 0 0 15.78125 698.23633 A 25 25 0 0 0 15.826172 698.25391 A 25 25 0 0 0 16.111328 698.36523 A 25 25 0 0 0 16.294922 698.43555 A 25 25 0 0 0 16.505859 698.51172 A 25 25 0 0 0 16.714844 698.58594 A 25 25 0 0 0 16.841797 698.63086 A 25 25 0 0 0 17.132812 698.72852 A 25 25 0 0 0 17.335938 698.79688 A 25 25 0 0 0 17.408203 698.81836 A 25 25 0 0 0 17.78125 698.93555 A 25 25 0 0 0 17.800781 698.94141 A 25 25 0 0 0 18.191406 699.05469 A 25 25 0 0 0 18.597656 699.16602 A 25 25 0 0 0 19.003906 699.26953 A 25 25 0 0 0 19.414062 699.36719 A 25 25 0 0 0 19.75 699.44336 A 25 25 0 0 0 19.869141 699.46875 A 25 25 0 0 0 20.623047 699.61328 A 25 25 0 0 0 20.691406 699.625 A 25 25 0 0 0 21.064453 699.6875 A 25 25 0 0 0 21.480469 699.75 A 25 25 0 0 0 21.896484 699.80664 A 25 25 0 0 0 21.898438 699.80664 A 25 25 0 0 0 22.314453 699.85547 A 25 25 0 0 0 22.732422 699.89648 A 25 25 0 0 0 23.097656 699.92773 A 25 25 0 0 0 23.208984 699.93555 A 25 25 0 0 0 23.519531 699.95508 A 25 25 0 0 0 23.675781 699.96484 A 25 25 0 0 0 23.845703 699.97266 A 25 25 0 0 0 24.085938 699.98242 A 25 25 0 0 0 24.412109 699.99219 A 25 25 0 0 0 24.759766 699.99805 A 25 25 0 0 0 25 700 A 25 25 0 0 0 25.050781 700 L 275 700 A 25 25 0 0 0 300 675 A 25 25 0 0 0 275 650 L 73.580078 650 L 295.34375 339.53125 A 25 25 0 0 0 295.46094 339.36523 A 25 25 0 0 0 295.4707 339.35156 A 25 25 0 0 0 295.69922 339.01953 A 25 25 0 0 0 295.70312 339.01562 A 25 25 0 0 0 295.93164 338.66992 A 25 25 0 0 0 296.05078 338.48633 A 25 25 0 0 0 296.1582 338.31641 A 25 25 0 0 0 296.16016 338.3125 A 25 25 0 0 0 297.20312 336.49219 A 25 25 0 0 0 297.30273 336.29688 A 25 25 0 0 0 297.39258 336.11719 A 25 25 0 0 0 297.48828 335.92188 A 25 25 0 0 0 297.57617 335.73828 A 25 25 0 0 0 297.5918 335.70703 A 25 25 0 0 0 297.75391 335.35742 A 25 25 0 0 0 297.77539 335.30859 A 25 25 0 0 0 298.08984 334.58594 A 25 25 0 0 0 298.17188 334.38477 A 25 25 0 0 0 298.24609 334.19727 A 25 25 0 0 0 298.32617 333.99414 A 25 25 0 0 0 298.39844 333.80469 A 25 25 0 0 0 298.47461 333.59961 A 25 25 0 0 0 298.54297 333.41016 A 25 25 0 0 0 298.61523 333.20508 A 25 25 0 0 0 298.63086 333.1582 A 25 25 0 0 0 298.75 332.80664 A 25 25 0 0 0 298.8125 332.61328 A 25 25 0 0 0 298.81836 332.5918 A 25 25 0 0 0 298.9375 332.21094 A 25 25 0 0 0 298.94141 332.19922 A 25 25 0 0 0 299.36719 330.58594 A 25 25 0 0 0 299.41602 330.37305 A 25 25 0 0 0 299.45898 330.17578 A 25 25 0 0 0 299.46875 330.13086 A 25 25 0 0 0 299.61914 329.34961 A 25 25 0 0 0 299.625 329.30859 A 25 25 0 0 0 299.80664 328.10352 A 25 25 0 0 0 299.80664 328.10156 A 25 25 0 0 0 299.93164 326.84766 A 25 25 0 0 0 299.93555 326.79102 A 25 25 0 0 0 299.95898 326.42969 A 25 25 0 0 0 299.9707 326.21094 A 25 25 0 0 0 299.97266 326.1543 A 25 25 0 0 0 299.98242 325.91406 A 25 25 0 0 0 299.99805 325.24023 A 25 25 0 0 0 300 325 A 25 25 0 0 0 300 324.94922 A 25 25 0 0 0 299.98633 324.16016 A 25 25 0 0 0 299.98438 324.10938 A 25 25 0 0 0 299.96875 323.73828 A 25 25 0 0 0 299.9668 323.68945 A 25 25 0 0 0 299.91211 322.90039 A 25 25 0 0 0 299.9082 322.84961 A 25 25 0 0 0 299.77344 321.64648 A 25 25 0 0 0 299.76758 321.59766 A 25 25 0 0 0 299.71484 321.23047 A 25 25 0 0 0 299.70703 321.18164 A 25 25 0 0 0 299.64648 320.81445 A 25 25 0 0 0 299.63867 320.76562 A 25 25 0 0 0 299.57422 320.40234 A 25 25 0 0 0 299.56445 320.35156 A 25 25 0 0 0 299.49219 319.98828 A 25 25 0 0 0 299.48242 319.93945 A 25 25 0 0 0 299.31055 319.16797 A 25 25 0 0 0 299.29883 319.11914 A 25 25 0 0 0 298.73438 317.14648 A 25 25 0 0 0 298.71875 317.09961 A 25 25 0 0 0 298.59961 316.74805 A 25 25 0 0 0 298.58398 316.70117 A 25 25 0 0 0 298.45703 316.35352 A 25 25 0 0 0 298.43945 316.30664 A 25 25 0 0 0 298.30859 315.95898 A 25 25 0 0 0 298.29102 315.91406 A 25 25 0 0 0 298.15234 315.56836 A 25 25 0 0 0 298.13477 315.52344 A 25 25 0 0 0 297.82227 314.79492 A 25 25 0 0 0 297.80273 314.75 A 25 25 0 0 0 297.64844 314.41406 A 25 25 0 0 0 297.62695 314.36719 A 25 25 0 0 0 297.4668 314.0332 A 25 25 0 0 0 297.44531 313.98828 A 25 25 0 0 0 297.08594 313.28516 A 25 25 0 0 0 297.0625 313.24023 A 25 25 0 0 0 296.88477 312.91406 A 25 25 0 0 0 296.86133 312.87109 A 25 25 0 0 0 296.67773 312.54883 A 25 25 0 0 0 296.6543 312.50586 A 25 25 0 0 0 296.4668 312.18555 A 25 25 0 0 0 296.44141 312.14258 A 25 25 0 0 0 296.02344 311.4707 A 25 25 0 0 0 295.99609 311.42969 A 25 25 0 0 0 295.79297 311.11914 A 25 25 0 0 0 295.76562 311.07812 A 25 25 0 0 0 295.55664 310.77148 A 25 25 0 0 0 295.5293 310.73047 A 25 25 0 0 0 295.31445 310.42773 A 25 25 0 0 0 295.28516 310.38672 A 25 25 0 0 0 295.06641 310.08789 A 25 25 0 0 0 295.03711 310.04883 A 25 25 0 0 0 294.28906 309.0957 A 25 25 0 0 0 294.25781 309.05664 A 25 25 0 0 0 294.01758 308.77344 A 25 25 0 0 0 293.98633 308.73633 A 25 25 0 0 0 293.17578 307.83398 A 25 25 0 0 0 293.14258 307.79883 A 25 25 0 0 0 292.88477 307.53125 A 25 25 0 0 0 292.84961 307.49609 A 25 25 0 0 0 292.58789 307.23242 A 25 25 0 0 0 292.55273 307.19727 A 25 25 0 0 0 292.28711 306.93945 A 25 25 0 0 0 292.25195 306.90625 A 25 25 0 0 0 291.66992 306.36914 A 25 25 0 0 0 291.63281 306.33594 A 25 25 0 0 0 291.35352 306.0918 A 25 25 0 0 0 291.31641 306.05859 A 25 25 0 0 0 291.0332 305.81836 A 25 25 0 0 0 290.99609 305.78711 A 25 25 0 0 0 289.70898 304.78516 A 25 25 0 0 0 289.66797 304.75586 A 25 25 0 0 0 289.66211 304.75195 A 25 25 0 0 0 289.53125 304.65625 A 25 25 0 0 0 289.36523 304.53906 A 25 25 0 0 0 289.35156 304.5293 A 25 25 0 0 0 289.01953 304.30078 A 25 25 0 0 0 289.01562 304.29688 A 25 25 0 0 0 288.66992 304.06836 A 25 25 0 0 0 288.48633 303.94922 A 25 25 0 0 0 288.31641 303.8418 A 25 25 0 0 0 288.3125 303.83984 A 25 25 0 0 0 287.59766 303.40625 A 25 25 0 0 0 287.4082 303.29688 A 25 25 0 0 0 287.23242 303.19727 A 25 25 0 0 0 287.19531 303.17773 A 25 25 0 0 0 286.49219 302.79688 A 25 25 0 0 0 286.29688 302.69727 A 25 25 0 0 0 286.11719 302.60742 A 25 25 0 0 0 285.92188 302.51172 A 25 25 0 0 0 285.73828 302.42383 A 25 25 0 0 0 285.70703 302.4082 A 25 25 0 0 0 285.35742 302.24609 A 25 25 0 0 0 285.30859 302.22461 A 25 25 0 0 0 284.58594 301.91016 A 25 25 0 0 0 284.38477 301.82812 A 25 25 0 0 0 284.19727 301.75391 A 25 25 0 0 0 283.99414 301.67383 A 25 25 0 0 0 283.80469 301.60156 A 25 25 0 0 0 283.59961 301.52539 A 25 25 0 0 0 283.41016 301.45703 A 25 25 0 0 0 282.80469 301.25 A 25 25 0 0 0 282.61328 301.1875 A 25 25 0 0 0 282.53516 301.16406 A 25 25 0 0 0 282.21094 301.0625 A 25 25 0 0 0 282.16992 301.05078 A 25 25 0 0 0 281.80859 300.94531 A 25 25 0 0 0 281.59766 300.88672 A 25 25 0 0 0 281.40234 300.83398 A 25 25 0 0 0 281.19141 300.7793 A 25 25 0 0 0 280.99609 300.73047 A 25 25 0 0 0 280.97461 300.72461 A 25 25 0 0 0 280.58594 300.63281 A 25 25 0 0 0 280.37305 300.58398 A 25 25 0 0 0 280.29102 300.56641 A 25 25 0 0 0 279.96289 300.49805 A 25 25 0 0 0 279.76367 300.45898 A 25 25 0 0 0 279.54883 300.41797 A 25 25 0 0 0 279.49805 300.4082 A 25 25 0 0 0 279.25 300.36523 A 25 25 0 0 0 278.10352 300.19336 A 25 25 0 0 0 277.88672 300.16797 A 25 25 0 0 0 277.68555 300.14453 A 25 25 0 0 0 277.62305 300.13867 A 25 25 0 0 0 276.84766 300.06836 A 25 25 0 0 0 276.78516 300.06445 A 25 25 0 0 0 276.42969 300.04102 A 25 25 0 0 0 276.21094 300.0293 A 25 25 0 0 0 276.1543 300.02734 A 25 25 0 0 0 275.91406 300.01758 A 25 25 0 0 0 275.24023 300.00195 A 25 25 0 0 0 275 300 L 25 300 z "
       style="color:#000000;font-style:normal;font-variant:normal;font-weight:normal;font-stretch:normal;font-size:medium;line-height:normal;font-family:sans-serif;font-variant-ligatures:normal;font-variant-position:normal;font-variant-caps:normal;font-variant-numeric:normal;font-variant-alternates:normal;font-variant-east-asian:normal;font-feature-settings:normal;font-variation-settings:normal;text-indent:0;text-align:start;text-decoration:none;text-decoration-line:none;text-decoration-style:solid;text-decoration-color:#000000;letter-spacing:normal;word-spacing:normal;text-transform:none;writing-mode:lr-tb;direction:ltr;text-orientation:mixed;dominant-baseline:auto;baseline-shift:baseline;text-anchor:start;white-space:normal;shape-padding:0;shape-margin:0;inline-size:0;clip-rule:nonzero;display:inline;overflow:visible;visibility:visible;isolation:auto;mix-blend-mode:normal;color-interpolation:sRGB;color-interpolation-filters:linearRGB;solid-color:#000000;solid-opacity:1;vector-effect:none;fill:#000000;fill-opacity:1;fill-rule:nonzero;stroke:none;stroke-width:50;stroke-linecap:round;stroke-linejoin:round;stroke-miterlimit:4;stroke-dasharray:none;stroke-dashoffset:0;stroke-opacity:1;color-rendering:auto;image-rendering:auto;shape-rendering:auto;text-rendering:auto;enable-background:accumulate;stop-color:#000000;stop-opacity:1;opacity:1"
       id="path850" />
  </g>
</svg>
